<?xml version="1.0" encoding="UTF-8"?>
<svg xmlns="http://www.w3.org/2000/svg" xmlns:xlink="http://www.w3.org/1999/xlink" width="154px" height="32px" viewBox="0 0 154 32" version="1.1">
<g id="surface1">
<path style=" stroke:none;fill-rule:evenodd;fill:rgb(92.941177%,10.980392%,14.117648%);fill-opacity:1;" d="M 94.417969 29.050781 C 94.121094 29.050781 93.816406 29.066406 93.519531 29.097656 C 93.226562 29.125 92.953125 29.171875 92.722656 29.234375 C 92.480469 29.296875 92.296875 29.375 92.152344 29.472656 C 92.011719 29.566406 91.933594 29.679688 91.933594 29.808594 C 91.933594 29.878906 91.964844 29.945312 92.011719 30.011719 C 92.054688 30.074219 92.140625 30.136719 92.25 30.195312 C 92.359375 30.253906 92.515625 30.308594 92.710938 30.355469 C 92.898438 30.398438 93.136719 30.4375 93.433594 30.464844 C 93.902344 30.511719 94.296875 30.554688 94.613281 30.582031 C 94.933594 30.613281 95.214844 30.644531 95.457031 30.679688 C 95.597656 30.699219 95.71875 30.734375 95.839844 30.78125 C 95.960938 30.824219 96.015625 30.898438 96.015625 30.996094 C 96.015625 31.042969 95.992188 31.09375 95.9375 31.140625 C 95.882812 31.1875 95.792969 31.226562 95.683594 31.265625 C 95.566406 31.296875 95.421875 31.332031 95.238281 31.351562 C 95.050781 31.375 94.832031 31.386719 94.570312 31.386719 C 94.328125 31.386719 94.109375 31.378906 93.902344 31.355469 C 93.695312 31.335938 93.507812 31.308594 93.355469 31.261719 C 93.191406 31.21875 93.070312 31.160156 92.984375 31.089844 C 92.898438 31.019531 92.855469 30.9375 92.851562 30.84375 L 91.671875 30.84375 C 91.679688 31 91.757812 31.140625 91.910156 31.257812 C 92.054688 31.375 92.261719 31.46875 92.515625 31.542969 C 92.777344 31.621094 93.070312 31.675781 93.410156 31.710938 C 93.75 31.75 94.121094 31.765625 94.503906 31.765625 C 94.832031 31.765625 95.171875 31.75 95.488281 31.71875 C 95.816406 31.691406 96.101562 31.644531 96.355469 31.578125 C 96.605469 31.515625 96.8125 31.433594 96.964844 31.328125 C 97.117188 31.222656 97.195312 31.101562 97.195312 30.957031 C 97.195312 30.882812 97.171875 30.816406 97.117188 30.75 C 97.0625 30.679688 96.976562 30.617188 96.867188 30.558594 C 96.757812 30.5 96.617188 30.445312 96.453125 30.398438 C 96.289062 30.355469 96.089844 30.316406 95.871094 30.292969 C 95.785156 30.28125 95.644531 30.265625 95.433594 30.246094 C 95.226562 30.226562 95.019531 30.203125 94.800781 30.183594 C 94.59375 30.160156 94.394531 30.140625 94.21875 30.125 C 94.042969 30.109375 93.945312 30.101562 93.925781 30.09375 C 93.683594 30.070312 93.5 30.027344 93.34375 29.976562 C 93.203125 29.921875 93.125 29.851562 93.125 29.761719 C 93.125 29.695312 93.171875 29.640625 93.246094 29.597656 C 93.324219 29.550781 93.421875 29.519531 93.542969 29.492188 C 93.664062 29.46875 93.792969 29.453125 93.933594 29.4375 C 94.078125 29.425781 94.21875 29.421875 94.363281 29.421875 C 94.777344 29.421875 95.117188 29.457031 95.378906 29.527344 C 95.652344 29.59375 95.796875 29.710938 95.828125 29.878906 L 97.011719 29.878906 C 97.011719 29.742188 96.945312 29.625 96.804688 29.523438 C 96.660156 29.417969 96.472656 29.335938 96.230469 29.265625 C 96.003906 29.191406 95.730469 29.136719 95.410156 29.105469 C 95.105469 29.066406 94.765625 29.050781 94.414062 29.050781 Z M 51.785156 29.109375 L 51.773438 29.109375 L 51.785156 29.109375 L 51.785156 31.699219 L 52.964844 31.699219 L 52.964844 30.636719 L 54.714844 30.636719 C 54.988281 30.636719 55.207031 30.648438 55.382812 30.671875 C 55.558594 30.699219 55.699219 30.738281 55.796875 30.796875 C 55.898438 30.851562 55.972656 30.921875 56.007812 31.011719 C 56.039062 31.09375 56.0625 31.199219 56.0625 31.316406 C 56.0625 31.378906 56.0625 31.445312 56.082031 31.511719 C 56.09375 31.578125 56.148438 31.640625 56.238281 31.695312 L 57.507812 31.695312 C 57.375 31.640625 57.273438 31.554688 57.21875 31.429688 C 57.164062 31.304688 57.132812 31.164062 57.132812 31.015625 C 57.132812 30.910156 57.097656 30.828125 57.035156 30.761719 C 56.96875 30.695312 56.882812 30.640625 56.785156 30.597656 C 56.683594 30.554688 56.574219 30.527344 56.453125 30.503906 C 56.335938 30.484375 56.222656 30.472656 56.125 30.46875 L 56.125 30.460938 C 56.179688 30.453125 56.277344 30.4375 56.398438 30.417969 C 56.519531 30.390625 56.640625 30.359375 56.769531 30.308594 C 56.890625 30.257812 57 30.191406 57.101562 30.113281 C 57.199219 30.03125 57.242188 29.929688 57.242188 29.808594 C 57.242188 29.589844 57.058594 29.417969 56.683594 29.292969 C 56.3125 29.171875 55.753906 29.109375 55.011719 29.109375 Z M 136.078125 29.109375 L 136.066406 29.109375 L 136.078125 29.109375 L 136.078125 31.699219 L 137.257812 31.699219 L 137.257812 30.636719 L 139.007812 30.636719 C 139.28125 30.636719 139.5 30.648438 139.675781 30.671875 C 139.851562 30.699219 139.992188 30.738281 140.089844 30.796875 C 140.191406 30.851562 140.269531 30.921875 140.300781 31.011719 C 140.332031 31.09375 140.355469 31.199219 140.355469 31.316406 C 140.355469 31.378906 140.355469 31.445312 140.375 31.511719 C 140.386719 31.578125 140.441406 31.640625 140.53125 31.695312 L 141.796875 31.695312 C 141.667969 31.640625 141.570312 31.554688 141.515625 31.429688 C 141.460938 31.304688 141.425781 31.164062 141.425781 31.015625 C 141.425781 30.910156 141.394531 30.828125 141.328125 30.761719 C 141.261719 30.695312 141.175781 30.640625 141.078125 30.597656 C 140.976562 30.554688 140.871094 30.527344 140.75 30.503906 C 140.628906 30.484375 140.519531 30.472656 140.421875 30.46875 L 140.421875 30.460938 C 140.476562 30.453125 140.574219 30.4375 140.695312 30.417969 C 140.8125 30.390625 140.933594 30.359375 141.066406 30.308594 C 141.1875 30.257812 141.296875 30.191406 141.394531 30.113281 C 141.492188 30.03125 141.535156 29.929688 141.535156 29.808594 C 141.535156 29.589844 141.351562 29.417969 140.976562 29.292969 C 140.605469 29.171875 140.050781 29.109375 139.304688 29.109375 Z M 4.433594 29.109375 L 4.433594 31.695312 L 5.613281 31.695312 L 5.613281 30.546875 L 8.679688 30.546875 L 8.679688 30.179688 L 5.613281 30.179688 L 5.613281 29.5 L 9.105469 29.5 L 9.105469 29.109375 Z M 15.558594 29.109375 L 15.558594 30.761719 C 15.558594 30.929688 15.625 31.074219 15.757812 31.199219 C 15.898438 31.320312 16.085938 31.425781 16.328125 31.507812 C 16.566406 31.589844 16.859375 31.652344 17.199219 31.695312 C 17.539062 31.738281 17.921875 31.757812 18.339844 31.757812 C 18.753906 31.757812 19.136719 31.738281 19.476562 31.695312 C 19.816406 31.652344 20.113281 31.589844 20.351562 31.507812 C 20.605469 31.425781 20.789062 31.320312 20.921875 31.199219 C 21.050781 31.078125 21.117188 30.929688 21.117188 30.761719 L 21.117188 29.109375 L 19.933594 29.109375 L 19.933594 30.617188 C 19.933594 30.707031 19.925781 30.792969 19.902344 30.882812 C 19.882812 30.972656 19.828125 31.050781 19.71875 31.125 C 19.617188 31.195312 19.453125 31.253906 19.246094 31.300781 C 19.039062 31.34375 18.734375 31.371094 18.351562 31.371094 C 17.964844 31.371094 17.660156 31.34375 17.453125 31.300781 C 17.246094 31.253906 17.089844 31.195312 16.980469 31.125 C 16.882812 31.050781 16.816406 30.96875 16.796875 30.882812 C 16.773438 30.792969 16.765625 30.707031 16.765625 30.617188 L 16.765625 29.109375 Z M 27.464844 29.109375 L 27.464844 29.5 L 29.609375 29.5 L 29.609375 31.695312 L 30.789062 31.695312 L 30.789062 29.5 L 32.945312 29.5 L 32.945312 29.109375 Z M 39.222656 29.109375 L 39.222656 30.761719 C 39.222656 30.929688 39.289062 31.074219 39.421875 31.199219 C 39.5625 31.320312 39.75 31.425781 39.988281 31.507812 C 40.230469 31.589844 40.527344 31.652344 40.863281 31.695312 C 41.203125 31.738281 41.585938 31.757812 42 31.757812 C 42.417969 31.757812 42.800781 31.738281 43.140625 31.695312 C 43.480469 31.652344 43.773438 31.589844 44.015625 31.507812 C 44.265625 31.425781 44.453125 31.320312 44.585938 31.199219 C 44.714844 31.078125 44.78125 30.929688 44.78125 30.761719 L 44.78125 29.109375 L 43.601562 29.109375 L 43.601562 30.617188 C 43.601562 30.707031 43.589844 30.792969 43.566406 30.882812 C 43.546875 30.972656 43.492188 31.050781 43.382812 31.125 C 43.285156 31.195312 43.117188 31.253906 42.910156 31.300781 C 42.703125 31.34375 42.398438 31.371094 42.015625 31.371094 C 41.632812 31.371094 41.324219 31.34375 41.117188 31.300781 C 40.910156 31.253906 40.757812 31.195312 40.648438 31.125 C 40.546875 31.050781 40.480469 30.96875 40.457031 30.882812 C 40.4375 30.792969 40.425781 30.707031 40.425781 30.617188 L 40.425781 29.109375 Z M 64.035156 29.109375 L 64.035156 31.695312 L 68.980469 31.695312 L 68.980469 31.304688 L 65.226562 31.304688 L 65.226562 30.546875 L 68.644531 30.546875 L 68.644531 30.179688 L 65.226562 30.179688 L 65.226562 29.5 L 68.917969 29.5 L 68.917969 29.109375 Z M 83.847656 29.109375 L 83.847656 31.695312 L 85.03125 31.695312 L 85.03125 29.109375 Z M 112.019531 29.109375 L 112.019531 31.695312 L 113.199219 31.695312 L 113.199219 30.53125 L 116.285156 30.53125 L 116.285156 31.695312 L 117.46875 31.695312 L 117.46875 29.109375 L 116.285156 29.109375 L 116.285156 30.136719 L 113.199219 30.136719 L 113.199219 29.109375 Z M 124.492188 29.109375 L 124.492188 31.695312 L 129.4375 31.695312 L 129.4375 31.304688 L 125.683594 31.304688 L 125.683594 30.546875 L 129.097656 30.546875 L 129.097656 30.179688 L 125.683594 30.179688 L 125.683594 29.5 L 129.371094 29.5 L 129.371094 29.109375 Z M 148.339844 29.109375 L 148.339844 31.695312 L 153.285156 31.695312 L 153.285156 31.304688 L 149.535156 31.304688 L 149.535156 30.546875 L 152.945312 30.546875 L 152.945312 30.179688 L 149.535156 30.179688 L 149.535156 29.5 L 153.21875 29.5 L 153.21875 29.109375 Z M 52.953125 29.480469 L 54.878906 29.480469 C 55.03125 29.480469 55.175781 29.484375 55.316406 29.492188 C 55.460938 29.5 55.589844 29.523438 55.699219 29.550781 C 55.808594 29.582031 55.898438 29.621094 55.964844 29.671875 C 56.027344 29.722656 56.0625 29.789062 56.0625 29.875 C 56.0625 30.011719 55.960938 30.117188 55.765625 30.183594 C 55.566406 30.253906 55.285156 30.289062 54.902344 30.289062 L 52.953125 30.289062 Z M 137.246094 29.480469 L 139.171875 29.480469 C 139.324219 29.480469 139.46875 29.484375 139.609375 29.492188 C 139.753906 29.5 139.882812 29.523438 139.992188 29.550781 C 140.101562 29.582031 140.191406 29.621094 140.253906 29.671875 C 140.320312 29.722656 140.355469 29.789062 140.355469 29.875 C 140.355469 30.011719 140.257812 30.117188 140.058594 30.183594 C 139.863281 30.253906 139.578125 30.289062 139.195312 30.289062 L 137.246094 30.289062 Z M 137.246094 29.480469 "/>
<path style=" stroke:none;fill-rule:evenodd;fill:rgb(0%,65.490198%,31.37255%);fill-opacity:1;" d="M 80.226562 1.050781 L 80.226562 15.621094 L 88.707031 15.621094 L 88.707031 1.050781 Z M 112.972656 1.050781 C 103.148438 1.050781 92.140625 3.175781 92.140625 8.609375 C 92.140625 11.832031 97.074219 15.621094 112.433594 15.621094 C 117.03125 15.621094 120.5625 15.203125 120.5625 15.203125 L 120.5625 12.507812 C 120.5625 12.507812 117.828125 12.957031 113.78125 12.957031 C 106.351562 12.957031 101.222656 11.5 101.222656 8.335938 C 101.222656 5.171875 106.746094 3.660156 113.222656 3.660156 C 117.644531 3.660156 120.5625 4.199219 120.5625 4.199219 L 120.5625 1.347656 C 120.5625 1.347656 118.253906 1.050781 112.972656 1.050781 Z M 124.175781 1.050781 L 124.175781 3.832031 L 134.425781 3.832031 L 134.425781 15.621094 L 142.902344 15.621094 L 142.902344 3.832031 L 153.382812 3.832031 L 153.382812 1.050781 Z M 119.207031 17.761719 C 116.164062 17.761719 114.328125 18.40625 114.328125 19.246094 C 114.328125 19.960938 115.730469 20.417969 117.875 20.699219 C 119.425781 20.910156 120.039062 21.085938 120.039062 21.394531 C 120.039062 21.714844 119.339844 21.929688 117.992188 21.929688 C 116.746094 21.929688 115.542969 21.777344 114.753906 21.621094 L 114.144531 22.546875 C 114.863281 22.703125 116.320312 22.847656 117.796875 22.847656 C 121.339844 22.847656 123.003906 22.148438 123.003906 21.320312 C 123.003906 20.625 121.929688 20.171875 119.65625 19.847656 C 117.992188 19.609375 117.261719 19.46875 117.261719 19.15625 C 117.261719 18.898438 117.875 18.679688 119.140625 18.679688 C 120.410156 18.679688 121.328125 18.816406 121.84375 18.914062 L 122.5 18.015625 C 121.734375 17.878906 120.660156 17.761719 119.207031 17.761719 Z M 135.148438 17.761719 C 131.339844 17.761719 128.867188 18.867188 128.867188 20.347656 C 128.867188 21.75 131.109375 22.851562 134.941406 22.851562 C 138.714844 22.851562 141.285156 21.871094 141.285156 20.253906 C 141.285156 18.890625 139.117188 17.757812 135.148438 17.761719 Z M 84.175781 17.800781 C 82.699219 17.800781 81.300781 17.839844 80.226562 17.90625 L 80.238281 17.90625 L 80.238281 22.75 C 80.972656 22.78125 82.042969 22.820312 83.554688 22.820312 C 86.078125 22.820312 88.148438 22.613281 89.507812 22.183594 C 90.753906 21.785156 91.648438 21.132812 91.648438 20.1875 C 91.648438 19.3125 90.804688 18.707031 89.460938 18.328125 C 88.214844 17.96875 86.628906 17.800781 84.175781 17.800781 Z M 150.703125 17.835938 L 150.703125 21.152344 L 146.109375 17.839844 L 142.695312 17.839844 L 142.695312 22.765625 L 145.375 22.765625 L 145.375 19.167969 L 150.320312 22.765625 L 153.382812 22.765625 L 153.382812 17.835938 Z M 93.0625 17.839844 L 93.0625 22.769531 L 95.992188 22.769531 L 95.992188 17.839844 Z M 96.933594 17.839844 L 101.066406 22.769531 L 104.492188 22.769531 L 108.835938 17.839844 L 105.726562 17.839844 L 104.078125 19.945312 C 103.640625 20.511719 103.234375 21.09375 102.90625 21.6875 L 102.851562 21.6875 C 102.546875 21.074219 102.140625 20.507812 101.703125 19.925781 L 100.128906 17.839844 Z M 109.699219 17.839844 L 109.699219 22.769531 L 112.632812 22.769531 L 112.632812 17.839844 Z M 124.5 17.839844 L 124.5 22.769531 L 127.433594 22.769531 L 127.433594 17.839844 Z M 135.082031 18.640625 C 137.082031 18.640625 138.199219 19.402344 138.199219 20.289062 C 138.199219 21.246094 137.0625 21.964844 135.09375 21.964844 C 133.144531 21.964844 131.953125 21.28125 131.953125 20.316406 C 131.953125 19.359375 133.101562 18.640625 135.082031 18.640625 Z M 84.480469 18.660156 C 86.988281 18.660156 88.5625 19.203125 88.542969 20.226562 C 88.542969 21.402344 86.824219 21.957031 84.175781 21.949219 C 83.816406 21.949219 83.410156 21.953125 83.160156 21.929688 L 83.160156 18.699219 C 83.410156 18.679688 83.824219 18.660156 84.480469 18.660156 Z M 84.480469 18.660156 "/>
<path style=" stroke:none;fill-rule:evenodd;fill:rgb(1.568628%,59.607846%,29.019609%);fill-opacity:1;" d="M 66.257812 12.769531 C 66.257812 19.695312 51.5625 25.304688 33.4375 25.304688 C 15.308594 25.304688 0.617188 19.695312 0.617188 12.769531 C 0.617188 5.847656 15.308594 0.234375 33.4375 0.234375 C 51.5625 0.234375 66.257812 5.847656 66.257812 12.769531 Z M 66.257812 12.769531 "/>
<path style=" stroke:none;fill-rule:nonzero;fill:rgb(100%,100%,100%);fill-opacity:1;" d="M 65.566406 12.769531 C 65.566406 19.546875 51.183594 25.042969 33.4375 25.042969 C 15.691406 25.042969 1.304688 19.546875 1.304688 12.769531 C 1.304688 5.992188 15.691406 0.496094 33.4375 0.496094 C 51.183594 0.496094 65.566406 5.992188 65.566406 12.769531 Z M 65.566406 12.769531 "/>
<path style=" stroke:none;fill-rule:evenodd;fill:rgb(1.568628%,59.607846%,29.019609%);fill-opacity:1;" d="M 33.902344 1.410156 C 33.050781 1.410156 32.277344 1.503906 32.027344 1.535156 L 32.207031 1.824219 C 35.992188 1.316406 36.046875 2.039062 36.019531 2.140625 C 35.902344 2.136719 35.785156 2.132812 35.671875 2.128906 C 28.40625 1.890625 22.992188 2.8125 22.75 2.847656 C 16.949219 3.675781 13.398438 5.144531 12.933594 5.328125 L 13.695312 5.636719 C 10.257812 5.53125 10.53125 6.746094 10.566406 6.914062 C 10.6875 6.941406 10.789062 6.953125 10.875 6.949219 C 10.886719 6.949219 10.898438 6.945312 10.910156 6.945312 C 11.195312 6.921875 11.308594 6.753906 11.355469 6.707031 C 11.421875 6.640625 12.351562 6.523438 12.171875 6.921875 L 12.855469 6.917969 L 13.941406 5.738281 L 15.269531 6.253906 C 13.0625 6.398438 13.835938 6.886719 13.164062 7.234375 C 12.636719 7.566406 11.820312 7.3125 11.691406 7.203125 L 11.628906 7.359375 C 12.328125 7.566406 12.835938 7.601562 13.210938 7.542969 C 13.246094 7.539062 13.28125 7.53125 13.3125 7.523438 C 13.503906 7.484375 13.664062 7.414062 13.792969 7.332031 C 13.8125 7.316406 13.835938 7.304688 13.855469 7.289062 C 14.121094 7.101562 14.269531 6.855469 14.417969 6.671875 C 14.625 6.414062 15.335938 6.308594 15.917969 6.390625 L 16.238281 6.261719 L 13.890625 5.304688 L 16.5 4.457031 C 16.34375 4.855469 16.886719 4.984375 17.183594 4.992188 C 17.316406 4.996094 17.4375 5 17.550781 4.996094 C 17.625 4.996094 17.699219 4.992188 17.765625 4.988281 C 18.667969 4.9375 18.839844 4.683594 19.070312 4.570312 C 19.625 4.5625 19.171875 4.949219 19.054688 5.003906 C 17.917969 5.519531 15.75 5.207031 15.414062 5.140625 L 15.21875 5.265625 C 18.925781 5.777344 19.832031 5.121094 19.882812 5.042969 C 20.386719 4.3125 18.835938 4.332031 18.539062 4.347656 C 18.269531 4.9375 17.222656 4.867188 17.105469 4.773438 C 17.023438 4.710938 17.007812 4.652344 17.03125 4.59375 C 17.035156 4.582031 17.039062 4.574219 17.046875 4.5625 C 17.207031 4.320312 18.066406 4.097656 18.320312 4.039062 C 18.746094 4.113281 20.167969 4.074219 20.503906 4.066406 C 20.078125 4.421875 20.773438 4.925781 20.917969 4.992188 L 21.367188 4.933594 C 20.605469 4.519531 21.316406 3.953125 21.496094 3.867188 L 21.125 3.738281 C 20.308594 4.054688 19.445312 3.96875 19.09375 3.960938 C 18.746094 3.957031 18.785156 3.902344 18.941406 3.859375 L 21.871094 3.261719 L 23.152344 4.5 L 23.824219 4.375 L 22.609375 3.164062 C 27.066406 2.386719 33.113281 2.3125 33.5 2.328125 C 33.898438 2.339844 33.746094 2.644531 33.695312 2.695312 C 33.667969 2.691406 33.644531 2.691406 33.617188 2.6875 C 33.242188 2.667969 32.953125 2.742188 32.738281 2.757812 C 32.226562 2.523438 31.761719 2.46875 31.371094 2.488281 C 31.34375 2.492188 31.3125 2.492188 31.285156 2.496094 C 30.761719 2.542969 30.394531 2.730469 30.269531 2.785156 L 30.863281 2.96875 C 31.691406 2.441406 32.519531 2.738281 32.632812 2.8125 L 32.050781 3.003906 L 32.648438 3.171875 C 33.292969 2.804688 33.769531 2.855469 33.953125 2.890625 C 34.3125 2.964844 34.066406 3.324219 34.027344 3.453125 C 33.058594 3.121094 31.378906 3.5625 30.964844 3.460938 C 30.957031 3.457031 30.945312 3.453125 30.941406 3.453125 C 30.835938 3.414062 30.839844 3.332031 30.992188 3.171875 L 30.605469 3.222656 C 30.503906 3.609375 30.902344 3.703125 31.472656 3.691406 C 31.566406 3.691406 31.664062 3.683594 31.769531 3.679688 C 32.695312 3.621094 33.882812 3.402344 34.222656 3.664062 L 34.570312 3.660156 C 35.128906 2.890625 34.367188 2.8125 34.144531 2.746094 C 34.519531 2.691406 34.417969 2.484375 34.417969 2.367188 C 34.417969 2.367188 35.308594 2.382812 35.96875 2.398438 L 35.578125 3.695312 L 36.238281 3.714844 L 36.636719 2.441406 L 37.195312 2.464844 L 37.273438 2.1875 L 36.574219 2.164062 C 36.203125 1.550781 34.992188 1.40625 33.898438 1.410156 Z M 39.507812 2.332031 L 39.261719 2.609375 C 39.777344 2.601562 43.265625 3.019531 43.265625 3.019531 L 43.136719 3.144531 L 39.066406 2.980469 L 39.183594 3.28125 C 41.703125 3.5 42.011719 4.15625 42.078125 4.296875 L 42.335938 4.308594 L 43.824219 3.125 L 44.960938 3.320312 L 43.355469 4.496094 L 44.015625 4.605469 L 45.515625 3.433594 L 46.003906 3.507812 L 46.328125 3.25 C 43.214844 2.660156 39.894531 2.378906 39.507812 2.332031 Z M 27.921875 2.667969 C 27.0625 2.671875 26.167969 2.9375 25.953125 3.019531 L 26.679688 3.261719 C 26.75 3.183594 27.152344 2.996094 27.339844 2.9375 C 27.355469 2.933594 27.367188 2.929688 27.375 2.925781 C 27.390625 2.921875 27.40625 2.917969 27.417969 2.914062 C 27.433594 2.910156 27.445312 2.910156 27.460938 2.90625 C 28.316406 2.707031 28.707031 3 28.691406 3.054688 C 28.589844 3.375 27.710938 3.570312 27.542969 3.605469 C 26.007812 3.921875 24.261719 3.339844 23.902344 3.21875 L 23.589844 3.246094 C 25.082031 4.09375 27.25 3.957031 27.570312 3.921875 C 27.582031 3.921875 27.589844 3.917969 27.597656 3.917969 C 29.648438 3.636719 29.222656 3.003906 29.132812 2.945312 C 28.808594 2.738281 28.371094 2.664062 27.921875 2.667969 Z M 42.867188 3.335938 L 42.242188 3.761719 L 42.234375 3.765625 L 42.226562 3.761719 C 42.226562 3.761719 42.050781 3.675781 41.828125 3.582031 C 41.605469 3.488281 41.339844 3.382812 41.167969 3.347656 L 41.171875 3.34375 Z M 47.738281 3.492188 C 47.152344 3.496094 46.636719 3.632812 46.535156 3.6875 C 45.902344 4.027344 46.535156 4.269531 46.769531 4.328125 C 47.066406 4.40625 47.53125 4.4375 47.894531 4.433594 C 47.914062 4.433594 47.933594 4.433594 47.949219 4.433594 C 48.144531 4.433594 48.300781 4.421875 48.382812 4.40625 C 48.402344 4.402344 48.417969 4.398438 48.433594 4.394531 C 48.523438 4.378906 48.597656 4.359375 48.667969 4.339844 C 48.695312 4.332031 48.71875 4.324219 48.742188 4.316406 C 48.828125 4.285156 48.894531 4.257812 48.945312 4.226562 C 48.953125 4.222656 48.960938 4.21875 48.96875 4.214844 C 48.980469 4.203125 48.996094 4.195312 49.007812 4.1875 C 49.011719 4.183594 49.019531 4.175781 49.023438 4.171875 C 49.035156 4.164062 49.042969 4.15625 49.050781 4.144531 C 49.058594 4.140625 49.0625 4.136719 49.066406 4.132812 C 49.222656 3.945312 48.96875 3.757812 48.898438 3.726562 C 48.558594 3.550781 48.148438 3.492188 47.765625 3.492188 C 47.753906 3.492188 47.746094 3.492188 47.738281 3.492188 Z M 47.714844 3.742188 C 47.730469 3.742188 47.746094 3.742188 47.757812 3.742188 C 48.148438 3.742188 48.5625 3.773438 48.796875 3.875 C 48.898438 3.914062 49.132812 4.144531 48.203125 4.210938 C 47.890625 4.230469 47.464844 4.25 46.960938 4.164062 C 46.394531 4.070312 46.691406 3.875 46.832031 3.824219 C 46.859375 3.792969 47.265625 3.746094 47.714844 3.742188 Z M 50.21875 4.183594 L 49.75 4.375 C 49.75 4.375 53.796875 5.714844 54.003906 5.816406 L 53.097656 6.0625 C 52.738281 5.453125 51.613281 5.492188 51.339844 5.46875 C 50.953125 4.710938 49.789062 4.730469 49.519531 4.75 C 48.316406 4.84375 48.355469 5.214844 48.421875 5.304688 C 48.613281 5.59375 49.597656 5.699219 49.996094 5.699219 L 49.984375 5.421875 C 49.015625 5.414062 48.820312 5.261719 48.789062 5.195312 C 48.785156 5.1875 48.785156 5.183594 48.78125 5.179688 C 48.773438 5.136719 48.796875 5.101562 48.84375 5.074219 C 48.851562 5.066406 48.863281 5.0625 48.875 5.058594 C 49.164062 4.929688 50.046875 5 50.253906 5.042969 C 51.1875 5.230469 51.082031 5.695312 51.019531 5.863281 C 52.386719 5.648438 52.929688 6.03125 52.929688 6.136719 L 51.277344 6.640625 L 51.714844 6.855469 L 54.46875 6.015625 L 55.230469 6.394531 L 52.425781 7.136719 L 52.8125 7.363281 L 55.71875 6.617188 L 56.882812 7.28125 C 55.253906 7.082031 54.378906 7.382812 54.261719 7.4375 C 53.265625 7.914062 54.3125 8.285156 54.675781 8.382812 L 54.90625 8.125 C 54.808594 8.113281 54.722656 8.097656 54.652344 8.082031 C 54.613281 8.074219 54.578125 8.066406 54.546875 8.058594 C 54.144531 7.945312 54.203125 7.78125 54.222656 7.722656 C 54.378906 7.351562 55.734375 7.425781 55.980469 7.4375 C 56.792969 7.464844 57.789062 7.894531 58.046875 8 L 55.71875 8.398438 L 55.773438 8.777344 C 56.484375 8.898438 57.257812 9.238281 57.632812 9.375 C 56.457031 9.414062 55.992188 9.558594 55.695312 9.628906 L 55.851562 9.746094 C 56.0625 9.6875 56.265625 9.648438 56.457031 9.628906 C 56.488281 9.625 56.519531 9.621094 56.550781 9.617188 C 57.339844 9.546875 57.9375 9.726562 58.148438 9.78125 L 58.472656 9.332031 C 58.226562 9.132812 56.871094 8.679688 56.675781 8.601562 L 58.34375 8.289062 C 59.039062 8.714844 60.152344 10.046875 60.191406 10.125 C 60.644531 11.046875 59.3125 10.914062 59.132812 10.894531 C 58.601562 10.839844 58.769531 10.402344 58.808594 10.277344 L 57.902344 10.269531 C 57.8125 10.78125 58.433594 10.941406 59.039062 11.054688 C 58.097656 11.398438 58.640625 11.75 58.847656 11.832031 L 59.558594 11.644531 C 59.171875 11.492188 59.210938 11.378906 59.210938 11.316406 C 59.222656 11.035156 59.90625 11.183594 60.050781 11.207031 C 60.617188 11.320312 60.605469 11.636719 60.578125 11.695312 C 60.410156 12.070312 59.507812 12.066406 59.339844 12.066406 C 59.15625 12.066406 57.632812 12.074219 57.632812 12.074219 L 57.632812 12.375 L 61.054688 12.328125 L 61.054688 12.597656 L 61.832031 12.589844 L 61.753906 12.035156 L 60.550781 12.050781 C 61.921875 11.449219 60.332031 11.007812 60.113281 10.921875 C 61.144531 10.511719 60.902344 10.21875 60.875 10.160156 C 60.773438 9.878906 60.480469 9.523438 60.148438 9.1875 C 60.09375 9.132812 60.035156 9.074219 59.980469 9.019531 C 59.46875 8.527344 58.933594 8.109375 58.898438 8.074219 C 57.929688 7.199219 55.449219 6.074219 55.347656 6.015625 C 53.601562 5.132812 50.21875 4.183594 50.21875 4.183594 Z M 45.8125 4.355469 L 45.371094 4.59375 C 45.59375 4.648438 47.308594 5.078125 47.453125 5.554688 L 47.683594 5.414062 C 47.414062 5.023438 46.019531 4.445312 45.8125 4.355469 Z M 12.945312 5.820312 C 12.988281 5.820312 13.03125 5.820312 13.074219 5.824219 L 12.546875 6.492188 C 12.53125 6.523438 12.363281 6.628906 12.273438 6.542969 C 12.183594 6.460938 11.691406 6.453125 11.523438 6.5 C 11.421875 6.527344 11.265625 6.527344 11.316406 6.421875 C 11.378906 6.316406 11.632812 5.839844 12.824219 5.820312 C 12.863281 5.820312 12.902344 5.820312 12.945312 5.820312 Z M 8.796875 7.304688 L 8.035156 7.796875 L 8.707031 7.976562 C 6.640625 8.433594 6.796875 9.089844 6.886719 9.195312 C 7.332031 9.71875 8.015625 9.796875 8.429688 9.789062 C 8.449219 9.789062 8.464844 9.789062 8.484375 9.789062 C 8.535156 9.785156 8.578125 9.78125 8.621094 9.777344 C 8.632812 9.777344 8.644531 9.777344 8.65625 9.773438 C 8.667969 9.773438 8.679688 9.773438 8.6875 9.769531 C 8.699219 9.769531 8.710938 9.769531 8.71875 9.765625 C 8.734375 9.765625 8.75 9.761719 8.761719 9.761719 C 8.929688 9.730469 9.066406 9.6875 9.175781 9.636719 C 9.1875 9.632812 9.195312 9.628906 9.207031 9.625 C 9.710938 9.382812 9.65625 8.976562 9.675781 8.832031 L 8.796875 8.828125 C 8.824219 8.851562 8.84375 8.878906 8.863281 8.90625 C 8.867188 8.914062 8.875 8.921875 8.878906 8.933594 C 8.882812 8.941406 8.890625 8.949219 8.894531 8.960938 C 8.898438 8.96875 8.902344 8.980469 8.90625 8.988281 C 8.910156 8.996094 8.914062 9.007812 8.914062 9.015625 C 8.917969 9.027344 8.921875 9.035156 8.921875 9.042969 L 8.921875 9.046875 C 8.925781 9.054688 8.925781 9.0625 8.929688 9.074219 C 8.929688 9.082031 8.929688 9.09375 8.933594 9.101562 C 8.933594 9.113281 8.933594 9.121094 8.933594 9.128906 C 8.933594 9.128906 8.933594 9.132812 8.933594 9.132812 C 8.933594 9.140625 8.9375 9.152344 8.9375 9.160156 C 8.933594 9.171875 8.933594 9.179688 8.933594 9.1875 C 8.933594 9.1875 8.933594 9.1875 8.933594 9.191406 C 8.933594 9.199219 8.933594 9.207031 8.933594 9.214844 C 8.933594 9.214844 8.933594 9.21875 8.933594 9.21875 C 8.929688 9.226562 8.929688 9.234375 8.925781 9.246094 C 8.925781 9.253906 8.925781 9.265625 8.921875 9.273438 C 8.921875 9.28125 8.917969 9.289062 8.917969 9.296875 C 8.914062 9.300781 8.917969 9.300781 8.917969 9.300781 C 8.914062 9.308594 8.910156 9.316406 8.910156 9.324219 C 8.910156 9.324219 8.910156 9.324219 8.910156 9.328125 C 8.875 9.4375 8.8125 9.527344 8.757812 9.558594 C 8.753906 9.5625 8.75 9.5625 8.746094 9.5625 C 8.140625 9.820312 7.878906 9.597656 7.828125 9.523438 C 7.09375 8.640625 8.851562 8.242188 9.132812 8.183594 C 9.414062 8.121094 9.566406 8.171875 9.679688 8.179688 C 9.6875 8.183594 9.695312 8.183594 9.703125 8.183594 L 11.679688 8.605469 L 12.078125 8.339844 L 9.09375 7.699219 L 9.46875 7.441406 Z M 5.957031 9.722656 L 5.542969 10.289062 L 6.265625 10.332031 C 3.722656 11.394531 5.890625 12.074219 6.136719 12.132812 C 6.230469 12.15625 6.3125 12.164062 6.378906 12.160156 C 6.394531 12.160156 6.410156 12.160156 6.421875 12.15625 C 6.46875 12.152344 6.511719 12.140625 6.546875 12.125 C 6.550781 12.125 6.554688 12.121094 6.5625 12.121094 C 6.773438 12.011719 6.730469 11.730469 6.703125 11.65625 C 6.652344 11.550781 6.640625 11.386719 6.667969 11.324219 C 6.847656 10.992188 7.261719 11.117188 7.335938 11.160156 C 7.34375 11.164062 7.347656 11.167969 7.355469 11.171875 C 7.363281 11.175781 7.371094 11.179688 7.382812 11.183594 C 7.441406 11.210938 7.539062 11.253906 7.636719 11.320312 C 7.644531 11.324219 7.652344 11.332031 7.660156 11.335938 C 7.785156 11.425781 7.902344 11.554688 7.945312 11.734375 L 8.539062 11.574219 C 8.460938 11.320312 8.011719 11.007812 7.867188 10.960938 C 7.214844 10.722656 6.835938 10.878906 6.597656 11.078125 C 6.585938 11.089844 6.574219 11.101562 6.5625 11.113281 C 6.46875 11.199219 6.398438 11.289062 6.339844 11.359375 C 6.328125 11.375 6.316406 11.390625 6.300781 11.40625 C 6.289062 11.417969 6.277344 11.433594 6.265625 11.441406 C 6.222656 11.484375 6.171875 11.503906 6.125 11.507812 C 6.117188 11.507812 6.113281 11.511719 6.105469 11.511719 C 5.96875 11.515625 5.839844 11.414062 5.8125 11.382812 C 5.574219 11.039062 5.847656 10.789062 6.164062 10.621094 C 6.179688 10.613281 6.195312 10.605469 6.210938 10.597656 C 6.226562 10.589844 6.242188 10.582031 6.257812 10.574219 C 6.273438 10.566406 6.289062 10.558594 6.304688 10.550781 C 6.425781 10.496094 6.546875 10.449219 6.640625 10.417969 L 9.558594 10.675781 L 9.820312 10.367188 L 6.484375 10.03125 L 6.652344 9.824219 Z M 18.476562 20.21875 L 18.035156 20.390625 L 18.359375 20.539062 C 18.269531 20.585938 18.269531 20.707031 18.527344 20.734375 C 18.773438 20.765625 19.496094 21.046875 19.535156 21.128906 C 19.6875 21.457031 18.886719 21.5 18.679688 21.515625 C 18.53125 21.53125 18.097656 21.515625 17.957031 21.378906 C 17.949219 21.371094 17.945312 21.367188 17.9375 21.359375 C 17.898438 21.308594 17.894531 21.242188 17.957031 21.15625 L 17.503906 21.136719 C 17.449219 21.726562 18.144531 21.839844 18.996094 21.835938 C 19.046875 21.835938 19.101562 21.832031 19.15625 21.832031 C 19.320312 21.828125 19.484375 21.820312 19.652344 21.8125 C 19.871094 21.800781 20.09375 21.785156 20.308594 21.773438 C 20.734375 21.75 21.121094 21.742188 21.394531 21.785156 C 22.144531 21.917969 22.015625 22.191406 21.949219 22.25 L 21.253906 22.695312 L 22.078125 22.832031 L 23.460938 21.664062 C 25.8125 22.085938 28.550781 22.207031 28.980469 22.234375 L 28.925781 22.363281 L 24.496094 22.328125 L 24.457031 22.664062 C 27.015625 22.695312 28.449219 23.472656 28.550781 23.542969 L 29.183594 23.578125 L 29.703125 22.304688 C 32.234375 22.457031 35.101562 22.375 35.476562 22.355469 L 35.515625 22.453125 C 35.515625 22.453125 31.714844 22.871094 31.160156 22.9375 L 31.574219 23.191406 C 34.25 23.019531 35.566406 23.558594 35.773438 23.640625 L 36.546875 23.609375 L 36.378906 22.671875 C 37.050781 22.550781 38.097656 22.582031 38.214844 22.621094 C 38.332031 22.660156 38.9375 22.902344 37.363281 22.945312 L 37.660156 23.21875 C 39.261719 23.050781 38.835938 22.660156 38.707031 22.59375 C 38.148438 22.339844 36.769531 22.394531 36.421875 22.394531 L 36.421875 22.308594 C 38.085938 22.242188 39.132812 22.101562 39.625 22.058594 L 40.539062 23.320312 L 41.304688 23.234375 L 40.398438 22 C 42.59375 21.785156 45.21875 21.242188 45.722656 21.128906 L 45.839844 21.214844 L 42.246094 22.28125 L 42.96875 22.488281 C 44.171875 22.003906 47.386719 22.160156 47.789062 22.191406 L 48.085938 22.085938 L 46.378906 21 L 47.078125 20.824219 L 46.664062 20.613281 C 41.9375 21.914062 35.476562 22.082031 35.128906 22.101562 C 30.488281 22.320312 25.617188 21.679688 25.335938 21.636719 C 21.730469 21.203125 18.695312 20.3125 18.476562 20.21875 Z M 19.859375 20.972656 C 19.859375 20.972656 22.285156 21.480469 22.839844 21.542969 L 22.351562 21.9375 C 21.886719 21.839844 22.027344 21.285156 19.894531 21.402344 Z M 46.09375 21.460938 L 46.859375 21.921875 C 46.859375 21.921875 45.449219 21.867188 44.792969 21.914062 Z M 45.953125 22.296875 C 45.574219 22.304688 45.074219 22.394531 44.871094 22.433594 C 44.851562 22.4375 44.832031 22.441406 44.820312 22.445312 C 44.792969 22.449219 44.777344 22.453125 44.777344 22.453125 L 44.90625 22.636719 C 45.230469 22.527344 46.171875 22.480469 46.171875 22.480469 L 46.1875 22.308594 C 46.179688 22.308594 46.171875 22.308594 46.164062 22.308594 C 46.160156 22.308594 46.15625 22.308594 46.152344 22.304688 C 46.136719 22.304688 46.121094 22.304688 46.105469 22.300781 C 46.101562 22.300781 46.097656 22.300781 46.09375 22.300781 C 46.054688 22.300781 46.015625 22.296875 45.96875 22.296875 C 45.964844 22.300781 45.957031 22.296875 45.953125 22.296875 Z M 26.898438 22.683594 L 28.785156 22.683594 L 28.550781 23.199219 C 28.550781 23.199219 27.6875 22.796875 26.898438 22.683594 Z M 35.578125 22.734375 L 35.695312 23.375 C 35.410156 23.316406 34.46875 22.992188 33.746094 22.957031 Z M 25.65625 23.074219 L 25.566406 23.28125 C 25.96875 23.296875 26.535156 23.472656 26.730469 23.542969 L 26.9375 23.371094 C 26.886719 23.347656 26.832031 23.324219 26.78125 23.304688 C 26.773438 23.300781 26.765625 23.296875 26.757812 23.292969 C 26.75 23.289062 26.742188 23.289062 26.734375 23.285156 C 26.726562 23.28125 26.71875 23.277344 26.710938 23.277344 C 26.296875 23.128906 25.84375 23.09375 25.65625 23.074219 Z M 25.65625 23.074219 "/>
<path style=" stroke:none;fill-rule:evenodd;fill:rgb(92.54902%,13.333334%,15.294118%);fill-opacity:1;" d="M 7.546875 14.886719 L 6.832031 15.535156 L 4.992188 15.449219 L 6.386719 15.910156 L 5.625 16.527344 L 7.175781 16.183594 L 8.519531 16.660156 L 8.089844 15.96875 L 9.742188 15.628906 L 7.886719 15.582031 Z M 58.683594 14.886719 L 58.34375 15.582031 L 56.488281 15.628906 L 58.136719 15.96875 L 57.707031 16.660156 L 59.054688 16.183594 L 60.605469 16.527344 L 59.84375 15.910156 L 61.238281 15.449219 L 59.398438 15.535156 Z M 11.476562 18.046875 L 10.8125 18.6875 L 8.949219 18.621094 L 10.390625 19.074219 L 9.585938 19.714844 L 11.179688 19.335938 L 12.542969 19.796875 L 12.105469 19.117188 L 13.714844 18.777344 L 11.828125 18.730469 Z M 54.753906 18.046875 L 54.402344 18.730469 L 52.515625 18.777344 L 54.125 19.117188 L 53.6875 19.796875 L 55.046875 19.335938 L 56.644531 19.714844 L 55.839844 19.074219 L 57.28125 18.621094 L 55.414062 18.6875 Z M 54.753906 18.046875 "/>
<path style=" stroke:none;fill-rule:evenodd;fill:rgb(92.54902%,13.333334%,15.294118%);fill-opacity:1;" d="M 55.378906 12.769531 C 55.378906 17.398438 45.554688 21.152344 33.4375 21.152344 C 21.316406 21.152344 11.492188 17.398438 11.492188 12.769531 C 11.492188 8.140625 21.316406 4.386719 33.4375 4.386719 C 45.554688 4.386719 55.378906 8.140625 55.378906 12.769531 Z M 55.378906 12.769531 "/>
<path style=" stroke:none;fill-rule:evenodd;fill:rgb(98.823529%,93.333334%,13.725491%);fill-opacity:1;" d="M 24 7.003906 C 23.875 7.003906 23.730469 7.105469 23.679688 7.140625 C 23.589844 7.191406 23.453125 7.3125 23.578125 7.359375 C 23.703125 7.40625 23.945312 7.355469 24.082031 7.367188 C 24.195312 7.382812 24.460938 7.40625 24.4375 7.46875 C 24.375 7.472656 24.234375 7.457031 24.261719 7.496094 C 24.285156 7.527344 24.476562 7.546875 24.488281 7.574219 C 24.589844 7.71875 24.058594 7.609375 23.867188 7.632812 C 23.804688 7.640625 23.742188 7.6875 23.691406 7.703125 C 23.628906 7.730469 23.550781 7.75 23.515625 7.777344 C 23.5 7.792969 23.5 7.800781 23.476562 7.816406 C 23.4375 7.835938 23.4375 7.835938 23.425781 7.859375 C 23.425781 7.867188 23.464844 7.886719 23.4375 7.898438 C 23.398438 7.925781 23.25 7.898438 23.199219 7.898438 C 23.097656 7.898438 23.007812 7.9375 22.921875 7.953125 C 22.84375 7.964844 22.808594 7.964844 22.769531 7.988281 C 22.757812 8.007812 22.792969 8.023438 22.71875 8.039062 C 22.640625 8.050781 22.527344 8.042969 22.488281 8.066406 C 22.441406 8.117188 22.617188 8.132812 22.691406 8.144531 L 22.757812 8.148438 C 22.84375 8.164062 22.792969 8.183594 22.730469 8.207031 C 22.679688 8.226562 22.605469 8.234375 22.554688 8.25 C 22.515625 8.257812 22.402344 8.273438 22.363281 8.289062 C 22.351562 8.304688 22.339844 8.3125 22.328125 8.328125 C 22.300781 8.339844 22.25 8.34375 22.238281 8.359375 C 22.210938 8.410156 22.363281 8.398438 22.363281 8.433594 C 22.375 8.460938 22.1875 8.46875 22.210938 8.5 C 22.226562 8.539062 22.238281 8.570312 22.25 8.597656 C 22.261719 8.636719 22.277344 8.65625 22.351562 8.683594 C 22.414062 8.707031 22.542969 8.753906 22.628906 8.753906 C 22.65625 8.746094 22.691406 8.738281 22.742188 8.734375 C 22.78125 8.734375 22.808594 8.746094 22.871094 8.738281 C 22.945312 8.722656 22.933594 8.675781 23.046875 8.695312 C 23.136719 8.714844 23.171875 8.769531 23.234375 8.804688 C 23.300781 8.851562 23.363281 8.90625 23.488281 8.933594 C 23.601562 8.972656 23.765625 8.949219 23.84375 8.992188 C 23.894531 9.023438 23.996094 9.070312 23.96875 9.105469 C 23.867188 9.09375 23.867188 9.148438 23.929688 9.164062 C 24.019531 9.183594 24.148438 9.167969 24.199219 9.210938 C 24.234375 9.234375 24.183594 9.269531 24.296875 9.292969 C 24.398438 9.3125 24.539062 9.292969 24.652344 9.316406 C 24.753906 9.335938 24.816406 9.386719 24.917969 9.398438 C 25.070312 9.417969 25.144531 9.371094 25.246094 9.347656 C 25.308594 9.332031 25.296875 9.332031 25.359375 9.351562 C 25.398438 9.367188 25.421875 9.390625 25.484375 9.390625 C 25.636719 9.398438 25.472656 9.339844 25.523438 9.320312 C 25.585938 9.292969 25.6875 9.351562 25.726562 9.371094 C 25.777344 9.398438 25.800781 9.433594 25.863281 9.460938 C 26.003906 9.53125 25.601562 9.542969 25.777344 9.632812 C 25.816406 9.652344 25.878906 9.660156 25.929688 9.679688 C 25.964844 9.699219 25.992188 9.738281 26.054688 9.746094 C 26.144531 9.761719 26.230469 9.738281 26.332031 9.742188 C 26.382812 9.746094 26.445312 9.761719 26.484375 9.777344 C 26.558594 9.808594 26.511719 9.863281 26.433594 9.890625 C 26.359375 9.921875 26.332031 9.921875 26.332031 9.964844 C 26.332031 9.992188 26.257812 10.039062 26.167969 10.042969 C 26.117188 10.050781 26.054688 10.046875 26.015625 10.042969 C 25.914062 10.039062 25.863281 10.035156 25.863281 10.007812 C 25.851562 9.972656 25.828125 9.964844 25.6875 10.011719 C 25.585938 10.042969 25.574219 10.046875 25.460938 10.023438 C 25.371094 10.007812 25.246094 9.953125 25.132812 9.96875 C 25.09375 9.980469 25.082031 10.011719 25.019531 10.019531 C 24.992188 10.019531 24.957031 10.011719 24.929688 10.003906 C 24.855469 9.988281 24.867188 9.949219 24.753906 9.953125 C 24.664062 9.988281 24.5 10.097656 24.375 10.007812 C 24.296875 9.960938 24.296875 9.945312 24.121094 9.941406 C 24.046875 9.933594 23.957031 9.929688 23.882812 9.945312 C 23.667969 9.988281 23.855469 10.078125 23.882812 10.140625 C 23.894531 10.1875 23.855469 10.242188 23.804688 10.277344 C 23.742188 10.316406 23.667969 10.335938 23.679688 10.382812 C 23.691406 10.40625 23.730469 10.460938 23.601562 10.457031 C 23.566406 10.453125 23.414062 10.386719 23.335938 10.421875 C 23.3125 10.4375 23.414062 10.476562 23.324219 10.496094 C 23.261719 10.507812 23.160156 10.476562 23.109375 10.496094 C 23.160156 10.523438 23.324219 10.539062 23.363281 10.570312 C 23.398438 10.609375 23.335938 10.621094 23.25 10.617188 C 23.097656 10.597656 22.996094 10.558594 22.871094 10.519531 C 22.769531 10.488281 22.71875 10.4375 22.578125 10.4375 C 22.441406 10.433594 22.160156 10.472656 22.339844 10.523438 C 22.414062 10.554688 22.527344 10.566406 22.539062 10.609375 C 22.539062 10.667969 22.390625 10.648438 22.289062 10.667969 C 22.210938 10.6875 22.148438 10.707031 22.085938 10.734375 C 21.996094 10.773438 21.960938 10.816406 21.882812 10.863281 C 21.832031 10.894531 21.796875 10.917969 21.707031 10.9375 C 21.644531 10.957031 21.542969 10.957031 21.542969 10.996094 C 21.542969 11.027344 21.632812 11.050781 21.679688 11.0625 C 21.769531 11.089844 21.832031 11.109375 21.832031 11.152344 C 21.847656 11.179688 21.894531 11.214844 21.960938 11.238281 C 22.011719 11.261719 21.996094 11.28125 22.046875 11.300781 C 22.097656 11.320312 22.160156 11.339844 22.210938 11.363281 C 22.402344 11.464844 22.71875 11.507812 22.921875 11.585938 C 23.046875 11.640625 23.234375 11.664062 23.414062 11.6875 C 23.652344 11.714844 23.90625 11.683594 24.109375 11.730469 C 24.195312 11.753906 24.195312 11.765625 24.335938 11.769531 C 24.449219 11.769531 24.550781 11.777344 24.652344 11.773438 C 24.714844 11.769531 24.777344 11.769531 24.839844 11.773438 C 25.003906 11.785156 25.109375 11.851562 25.121094 11.914062 C 25.132812 11.976562 25.234375 12.140625 24.929688 12.148438 C 24.867188 12.15625 24.703125 12.136719 24.738281 12.175781 C 24.753906 12.1875 24.917969 12.207031 24.957031 12.222656 C 25.007812 12.242188 24.992188 12.242188 25.019531 12.265625 C 25.03125 12.289062 25.082031 12.324219 25.054688 12.359375 C 25.042969 12.371094 25.007812 12.378906 25.007812 12.398438 C 25.007812 12.410156 25.042969 12.433594 25.09375 12.445312 C 25.109375 12.46875 24.980469 12.515625 24.957031 12.546875 C 24.90625 12.589844 24.878906 12.632812 24.738281 12.648438 C 24.640625 12.65625 24.449219 12.660156 24.347656 12.652344 C 24.210938 12.632812 24.007812 12.609375 24.171875 12.679688 C 24.234375 12.710938 24.335938 12.734375 24.308594 12.777344 C 24.261719 12.835938 24.097656 12.78125 23.996094 12.820312 C 23.996094 12.863281 24.171875 12.84375 24.222656 12.878906 C 24.246094 12.898438 24.222656 12.925781 24.183594 12.945312 C 24.121094 12.964844 24.046875 12.976562 23.996094 12.996094 C 23.957031 13.015625 23.929688 13.039062 23.90625 13.0625 C 23.867188 13.089844 23.78125 13.199219 23.945312 13.207031 C 24.082031 13.210938 23.957031 13.058594 24.082031 13.082031 C 24.144531 13.101562 24.199219 13.128906 24.148438 13.160156 C 24.121094 13.171875 24.097656 13.199219 24.109375 13.210938 C 24.144531 13.226562 24.171875 13.191406 24.234375 13.1875 C 24.324219 13.183594 24.414062 13.210938 24.449219 13.230469 C 24.449219 13.257812 24.449219 13.28125 24.488281 13.292969 C 24.523438 13.3125 24.675781 13.320312 24.703125 13.34375 C 24.753906 13.390625 24.5 13.410156 24.753906 13.433594 C 24.816406 13.4375 24.90625 13.445312 24.96875 13.433594 C 25.058594 13.425781 25.042969 13.394531 25.09375 13.375 C 25.195312 13.34375 25.234375 13.40625 25.222656 13.433594 C 25.207031 13.472656 25.105469 13.515625 25.03125 13.539062 C 24.957031 13.554688 24.957031 13.550781 24.917969 13.578125 C 24.917969 13.597656 24.941406 13.597656 24.894531 13.617188 C 24.828125 13.640625 24.675781 13.636719 24.726562 13.683594 C 24.753906 13.703125 25.042969 13.773438 24.828125 13.78125 C 24.742188 13.789062 24.625 13.710938 24.539062 13.742188 C 24.5 13.757812 24.527344 13.820312 24.550781 13.835938 C 24.640625 13.867188 24.726562 13.878906 24.839844 13.898438 C 24.929688 13.90625 24.992188 13.933594 25.042969 13.960938 C 25.121094 14 25.183594 14.007812 25.183594 13.949219 C 25.183594 13.902344 25.183594 13.867188 25.324219 13.914062 C 25.386719 13.9375 25.410156 13.984375 25.523438 13.964844 C 25.601562 13.953125 25.585938 13.921875 25.675781 13.941406 C 25.75 13.960938 25.777344 14.007812 25.851562 14.027344 C 25.917969 14.042969 25.964844 14.023438 25.964844 14.050781 C 25.964844 14.125 25.816406 14.117188 25.726562 14.121094 C 25.613281 14.128906 25.5625 14.164062 25.511719 14.203125 C 25.449219 14.242188 25.460938 14.273438 25.449219 14.3125 C 25.449219 14.332031 25.449219 14.34375 25.421875 14.355469 C 25.398438 14.371094 25.371094 14.367188 25.359375 14.386719 C 25.335938 14.417969 25.421875 14.484375 25.449219 14.515625 C 25.5 14.554688 25.585938 14.582031 25.585938 14.617188 C 25.585938 14.636719 25.5625 14.644531 25.585938 14.664062 C 25.613281 14.679688 25.703125 14.691406 25.726562 14.703125 C 25.789062 14.730469 25.914062 14.765625 25.902344 14.800781 C 25.878906 14.835938 25.765625 14.863281 25.703125 14.882812 C 25.652344 14.898438 25.511719 14.917969 25.550781 14.949219 C 25.574219 14.96875 25.675781 14.980469 25.714844 14.996094 C 25.789062 15.019531 25.75 15.039062 25.738281 15.058594 C 25.714844 15.109375 25.636719 15.121094 25.703125 15.164062 C 25.738281 15.1875 25.738281 15.207031 25.765625 15.230469 C 25.789062 15.253906 25.8125 15.261719 25.765625 15.28125 C 25.75 15.296875 25.675781 15.296875 25.664062 15.324219 C 25.664062 15.347656 25.800781 15.382812 25.839844 15.398438 C 25.914062 15.449219 25.929688 15.492188 25.902344 15.539062 C 25.878906 15.578125 25.789062 15.617188 25.800781 15.65625 C 25.816406 15.699219 25.941406 15.71875 25.953125 15.757812 C 25.953125 15.800781 25.851562 15.800781 25.8125 15.839844 C 25.789062 15.867188 25.863281 15.90625 25.890625 15.929688 C 25.953125 15.972656 26.128906 15.992188 26.15625 16.042969 C 26.179688 16.070312 26.09375 16.101562 26.15625 16.132812 C 26.296875 16.183594 26.230469 16.175781 26.179688 16.21875 C 26.144531 16.246094 26.054688 16.265625 26.054688 16.292969 C 26.054688 16.320312 26.234375 16.347656 26.246094 16.375 C 26.257812 16.394531 26.195312 16.421875 26.15625 16.441406 C 26.082031 16.476562 25.914062 16.472656 26.015625 16.539062 C 26.078125 16.582031 26.144531 16.597656 26.179688 16.644531 C 26.246094 16.707031 26.167969 16.78125 26.257812 16.847656 C 26.320312 16.890625 26.296875 16.910156 26.28125 16.960938 C 26.28125 16.96875 26.230469 16.988281 26.292969 17 C 26.332031 17.003906 26.382812 16.988281 26.410156 16.980469 C 26.460938 16.949219 26.484375 16.914062 26.546875 16.886719 C 26.613281 16.851562 26.648438 16.820312 26.636719 16.78125 C 26.625 16.734375 26.5625 16.71875 26.472656 16.695312 C 26.371094 16.675781 26.371094 16.652344 26.410156 16.605469 C 26.433594 16.578125 26.460938 16.550781 26.460938 16.511719 C 26.472656 16.476562 26.421875 16.417969 26.496094 16.390625 C 26.625 16.417969 26.523438 16.472656 26.699219 16.5 C 26.777344 16.519531 26.863281 16.53125 26.902344 16.484375 C 26.941406 16.441406 26.738281 16.390625 26.789062 16.371094 C 26.851562 16.339844 27.054688 16.394531 27.066406 16.417969 C 27.089844 16.457031 27.003906 16.503906 27.015625 16.542969 C 27.015625 16.558594 27.015625 16.5625 27.027344 16.574219 C 27.027344 16.578125 27.179688 16.578125 27.179688 16.585938 C 27.167969 16.605469 27.039062 16.597656 27.015625 16.605469 C 26.953125 16.636719 26.953125 16.648438 27.015625 16.679688 C 27.117188 16.71875 27.230469 16.707031 27.257812 16.761719 C 27.269531 16.78125 27.203125 16.964844 27.34375 16.886719 C 27.394531 16.867188 27.394531 16.839844 27.433594 16.816406 C 27.457031 16.800781 27.519531 16.789062 27.546875 16.769531 C 27.582031 16.738281 27.457031 16.707031 27.417969 16.679688 C 27.382812 16.644531 27.355469 16.535156 27.507812 16.5625 C 27.558594 16.566406 27.570312 16.632812 27.570312 16.644531 C 27.597656 16.667969 27.597656 16.699219 27.648438 16.722656 C 27.6875 16.746094 27.710938 16.746094 27.722656 16.78125 C 27.738281 16.800781 27.75 16.832031 27.734375 16.847656 C 27.710938 16.890625 27.609375 16.921875 27.519531 16.941406 C 27.484375 16.953125 27.445312 16.941406 27.445312 16.96875 C 27.445312 17 27.519531 17.007812 27.558594 17.015625 C 27.519531 17.054688 27.621094 17.070312 27.636719 17.09375 C 27.671875 17.144531 27.636719 17.175781 27.835938 17.15625 C 27.886719 17.152344 27.914062 17.148438 27.953125 17.128906 C 27.988281 17.113281 28.027344 17.109375 28.078125 17.09375 C 28.179688 17.074219 28.140625 17.042969 28.113281 17.007812 C 28.101562 16.972656 28.128906 16.945312 28.128906 16.90625 C 28.128906 16.863281 28.078125 16.835938 28.027344 16.796875 C 28 16.765625 27.976562 16.675781 28.128906 16.714844 C 28.191406 16.726562 28.179688 16.820312 28.304688 16.789062 C 28.382812 16.777344 28.382812 16.699219 28.355469 16.671875 C 28.34375 16.636719 28.277344 16.605469 28.242188 16.570312 C 28.191406 16.511719 28.328125 16.511719 28.292969 16.457031 C 28.277344 16.417969 28.164062 16.398438 28.140625 16.367188 C 28.128906 16.332031 28.167969 16.328125 28.203125 16.308594 C 28.242188 16.289062 28.203125 16.269531 28.230469 16.25 C 28.28125 16.210938 28.394531 16.222656 28.445312 16.257812 C 28.507812 16.304688 28.445312 16.339844 28.507812 16.386719 C 28.558594 16.417969 28.558594 16.46875 28.542969 16.507812 C 28.542969 16.515625 28.429688 16.613281 28.46875 16.613281 C 28.632812 16.621094 28.65625 16.492188 28.722656 16.457031 C 28.835938 16.394531 28.921875 16.535156 28.796875 16.574219 C 28.746094 16.59375 28.722656 16.578125 28.695312 16.613281 L 28.695312 16.644531 C 28.683594 16.664062 28.632812 16.671875 28.632812 16.6875 C 28.632812 16.726562 28.808594 16.714844 28.886719 16.714844 C 28.9375 16.714844 28.988281 16.707031 29.039062 16.71875 C 29.089844 16.722656 29.113281 16.746094 29.164062 16.75 C 29.253906 16.757812 29.238281 16.707031 29.289062 16.683594 C 29.316406 16.664062 29.328125 16.648438 29.339844 16.679688 C 29.355469 16.722656 29.304688 16.777344 29.289062 16.808594 C 29.277344 16.828125 29.289062 16.859375 29.277344 16.878906 C 29.253906 16.882812 29.226562 16.890625 29.214844 16.902344 C 29.203125 16.917969 29.203125 16.9375 29.238281 16.949219 C 29.304688 16.980469 29.519531 16.96875 29.554688 16.925781 C 29.570312 16.90625 29.554688 16.886719 29.519531 16.871094 C 29.480469 16.855469 29.417969 16.863281 29.390625 16.835938 C 29.378906 16.824219 29.40625 16.796875 29.40625 16.785156 C 29.429688 16.757812 29.570312 16.675781 29.605469 16.738281 C 29.644531 16.765625 29.566406 16.785156 29.566406 16.808594 C 29.566406 16.824219 29.617188 16.855469 29.644531 16.867188 C 29.683594 16.886719 29.707031 16.886719 29.695312 16.917969 C 29.683594 16.9375 29.667969 16.949219 29.71875 16.960938 C 29.898438 16.984375 29.847656 16.988281 29.949219 16.960938 C 29.996094 16.949219 30 16.9375 30.035156 16.921875 C 30.0625 16.902344 30.035156 16.859375 30.097656 16.859375 C 30.125 16.863281 30.175781 16.910156 30.226562 16.910156 C 30.214844 16.871094 30.226562 16.828125 30.226562 16.792969 C 30.226562 16.722656 30.199219 16.683594 30.136719 16.625 C 30.097656 16.597656 30.085938 16.570312 30.035156 16.539062 C 30.011719 16.523438 29.949219 16.503906 29.921875 16.492188 C 29.882812 16.460938 29.910156 16.472656 29.960938 16.441406 C 30 16.421875 29.984375 16.40625 30.023438 16.390625 C 30.125 16.398438 30.097656 16.414062 30.085938 16.441406 C 30.085938 16.460938 30.050781 16.503906 30.136719 16.492188 C 30.199219 16.480469 30.214844 16.433594 30.226562 16.417969 C 30.230469 16.414062 30.242188 16.40625 30.253906 16.394531 C 30.257812 16.40625 30.265625 16.414062 30.277344 16.421875 C 30.292969 16.410156 30.304688 16.398438 30.3125 16.390625 L 30.289062 16.375 C 30.300781 16.375 30.308594 16.375 30.3125 16.386719 C 30.34375 16.351562 30.347656 16.324219 30.503906 16.332031 C 30.492188 16.433594 30.441406 16.519531 30.503906 16.621094 C 30.515625 16.640625 30.542969 16.683594 30.566406 16.699219 C 30.617188 16.71875 30.667969 16.707031 30.707031 16.71875 C 30.746094 16.726562 30.769531 16.746094 30.808594 16.757812 C 30.832031 16.734375 30.808594 16.664062 30.78125 16.644531 C 30.707031 16.605469 30.628906 16.621094 30.691406 16.5625 C 30.742188 16.515625 30.808594 16.472656 30.898438 16.449219 C 30.945312 16.4375 31.085938 16.386719 31.125 16.378906 C 31.261719 16.375 31.074219 16.449219 31.085938 16.46875 C 31.097656 16.496094 31.085938 16.511719 31.023438 16.515625 C 30.972656 16.523438 30.960938 16.53125 30.921875 16.535156 C 30.832031 16.558594 30.859375 16.578125 30.945312 16.613281 C 30.996094 16.632812 31.085938 16.660156 31.148438 16.660156 C 31.1875 16.59375 31.210938 16.550781 31.339844 16.5 C 31.515625 16.476562 31.324219 16.613281 31.300781 16.644531 C 31.277344 16.699219 31.1875 16.683594 31.097656 16.71875 C 31.023438 16.753906 30.960938 16.824219 31.007812 16.863281 C 31.097656 16.945312 31.339844 16.878906 31.386719 16.824219 C 31.4375 16.769531 31.488281 16.746094 31.566406 16.707031 C 31.628906 16.679688 31.667969 16.660156 31.730469 16.636719 C 31.78125 16.621094 31.832031 16.605469 31.867188 16.59375 C 31.917969 16.570312 32.058594 16.519531 32.058594 16.492188 C 32.058594 16.441406 31.84375 16.394531 31.933594 16.371094 C 32.070312 16.332031 32.136719 16.386719 32.097656 16.417969 C 32.085938 16.441406 32.210938 16.441406 32.285156 16.453125 C 32.363281 16.460938 32.363281 16.46875 32.425781 16.488281 C 32.515625 16.515625 32.703125 16.523438 32.765625 16.472656 C 32.804688 16.433594 32.753906 16.378906 32.742188 16.347656 C 32.84375 16.367188 32.878906 16.363281 32.980469 16.34375 C 33.019531 16.335938 33.121094 16.304688 33.160156 16.324219 C 33.195312 16.347656 33.03125 16.375 33.019531 16.386719 C 32.917969 16.457031 33.09375 16.5 33.257812 16.46875 C 33.421875 16.429688 33.410156 16.398438 33.476562 16.347656 C 33.527344 16.304688 33.574219 16.304688 33.636719 16.253906 C 33.675781 16.210938 33.839844 16.183594 33.917969 16.140625 C 34.003906 16.097656 34.015625 16.046875 34.09375 16.007812 C 34.15625 15.960938 34.308594 15.957031 34.269531 15.898438 C 34.246094 15.851562 34.105469 15.816406 34.042969 15.769531 C 33.980469 15.71875 33.941406 15.667969 33.96875 15.613281 C 34.03125 15.53125 33.929688 15.527344 33.738281 15.496094 C 33.5625 15.46875 33.5625 15.433594 33.714844 15.414062 C 33.851562 15.402344 33.816406 15.390625 33.878906 15.34375 C 33.992188 15.320312 33.851562 15.230469 33.839844 15.210938 C 33.929688 15.246094 34.066406 15.273438 34.066406 15.328125 C 34.066406 15.367188 33.878906 15.394531 33.90625 15.433594 C 33.929688 15.472656 34.082031 15.441406 34.144531 15.445312 C 34.308594 15.460938 34.382812 15.539062 34.433594 15.59375 C 34.484375 15.660156 34.496094 15.730469 34.496094 15.796875 C 34.511719 15.863281 34.347656 15.914062 34.394531 15.976562 C 34.445312 16.023438 34.648438 16.003906 34.574219 16.066406 C 34.535156 16.101562 34.359375 16.117188 34.332031 16.1875 C 34.332031 16.207031 34.371094 16.230469 34.347656 16.25 C 34.332031 16.261719 34.28125 16.261719 34.269531 16.269531 C 34.257812 16.273438 34.246094 16.300781 34.246094 16.308594 C 34.246094 16.324219 34.230469 16.335938 34.21875 16.351562 C 34.195312 16.367188 34.167969 16.386719 34.167969 16.402344 C 34.144531 16.410156 34.144531 16.429688 34.132812 16.433594 L 34.066406 16.5 C 34.015625 16.527344 33.992188 16.546875 34.054688 16.574219 C 34.09375 16.589844 34.167969 16.589844 34.195312 16.621094 C 34.21875 16.636719 34.21875 16.65625 34.246094 16.667969 C 34.296875 16.691406 34.269531 16.683594 34.332031 16.667969 C 34.332031 16.660156 34.332031 16.644531 34.359375 16.636719 C 34.382812 16.632812 34.421875 16.636719 34.433594 16.632812 C 34.535156 16.613281 34.550781 16.585938 34.625 16.554688 C 34.699219 16.519531 34.789062 16.515625 34.878906 16.492188 C 34.980469 16.464844 34.980469 16.425781 35.054688 16.394531 C 35.128906 16.367188 35.242188 16.355469 35.230469 16.300781 C 35.21875 16.265625 35.144531 16.238281 35.207031 16.203125 C 35.292969 16.160156 35.40625 16.167969 35.371094 16.101562 C 35.355469 16.082031 35.320312 16.074219 35.320312 16.046875 C 35.320312 16.027344 35.34375 16.003906 35.34375 15.984375 C 35.355469 15.933594 35.371094 15.878906 35.421875 15.832031 C 35.472656 15.777344 35.519531 15.738281 35.421875 15.699219 C 35.355469 15.660156 35.21875 15.652344 35.140625 15.617188 C 35.066406 15.585938 35.054688 15.535156 35.042969 15.492188 C 35.042969 15.464844 35.042969 15.386719 34.929688 15.375 C 34.839844 15.367188 34.777344 15.429688 34.6875 15.421875 C 34.585938 15.410156 34.636719 15.359375 34.636719 15.328125 C 34.664062 15.246094 34.699219 15.136719 34.535156 15.0625 C 34.421875 15.015625 34.269531 15.054688 34.144531 15.046875 C 33.777344 15.03125 34.246094 14.921875 34.347656 14.875 C 34.433594 14.832031 34.5 14.792969 34.636719 14.808594 C 34.738281 14.820312 34.800781 14.851562 34.839844 14.882812 C 34.914062 14.949219 34.902344 15.019531 34.992188 15.085938 C 35.09375 15.160156 35.308594 15.199219 35.484375 15.246094 C 35.648438 15.289062 35.636719 15.328125 35.75 15.386719 C 35.835938 15.433594 36.050781 15.484375 36.191406 15.457031 C 36.316406 15.433594 36.394531 15.367188 36.535156 15.433594 C 36.570312 15.453125 36.644531 15.46875 36.695312 15.484375 C 36.773438 15.507812 37.011719 15.535156 37.089844 15.535156 C 37.226562 15.527344 37.265625 15.476562 37.339844 15.445312 C 37.441406 15.410156 37.554688 15.390625 37.492188 15.332031 C 37.417969 15.285156 37.191406 15.285156 37.230469 15.226562 C 37.265625 15.15625 37.542969 15.242188 37.65625 15.25 C 37.808594 15.21875 37.683594 15.179688 37.746094 15.148438 C 37.847656 15.097656 37.886719 15.195312 38 15.203125 C 38.148438 15.210938 38.113281 15.167969 38.1875 15.144531 C 38.300781 15.109375 38.402344 15.179688 38.453125 15.113281 C 38.480469 15.09375 38.378906 15.082031 38.402344 15.0625 C 38.417969 15.039062 38.464844 15.027344 38.515625 15.015625 C 38.679688 14.976562 38.542969 14.941406 38.582031 14.902344 C 38.625 14.855469 38.765625 14.839844 38.875 14.804688 C 38.816406 14.828125 38.777344 14.867188 38.746094 14.878906 C 38.71875 14.898438 38.769531 14.9375 38.746094 14.960938 C 38.644531 15.035156 38.605469 15.101562 38.683594 15.179688 C 38.707031 15.210938 38.796875 15.238281 38.84375 15.261719 C 38.933594 15.285156 38.984375 15.308594 39.0625 15.332031 C 39.175781 15.367188 39.199219 15.410156 39.261719 15.445312 C 39.375 15.503906 39.515625 15.554688 39.640625 15.605469 C 39.84375 15.691406 40.070312 15.769531 40.109375 15.898438 C 40.121094 15.96875 40.160156 16.050781 40.160156 16.121094 C 40.171875 16.140625 40.1875 16.253906 40.335938 16.207031 C 40.402344 16.183594 40.273438 16.121094 40.285156 16.089844 C 40.324219 16.035156 40.464844 16.023438 40.566406 15.984375 C 40.640625 15.957031 40.679688 15.921875 40.753906 15.898438 C 40.882812 15.871094 40.917969 15.855469 41.09375 15.855469 L 41.460938 15.824219 C 41.460938 15.894531 41.019531 15.882812 40.894531 15.921875 C 40.753906 15.964844 40.664062 16.089844 40.449219 16.085938 C 40.363281 16.144531 40.628906 16.1875 40.449219 16.289062 C 40.300781 16.371094 40.402344 16.425781 40.566406 16.5 C 40.589844 16.515625 40.617188 16.527344 40.628906 16.535156 C 40.679688 16.5625 40.679688 16.613281 40.703125 16.644531 C 40.742188 16.675781 40.703125 16.695312 40.691406 16.71875 C 40.679688 16.742188 40.71875 16.761719 40.703125 16.785156 C 40.703125 16.800781 40.691406 16.816406 40.730469 16.835938 C 40.753906 16.863281 40.78125 16.875 40.765625 16.902344 C 40.765625 16.921875 40.753906 16.929688 40.753906 16.949219 C 40.78125 16.988281 40.832031 17.027344 40.78125 17.070312 C 40.78125 17.085938 40.753906 17.085938 40.742188 17.09375 C 40.730469 17.101562 40.742188 17.121094 40.730469 17.128906 C 40.730469 17.152344 40.714844 17.1875 40.742188 17.210938 L 40.90625 17.339844 C 40.96875 17.378906 41.042969 17.410156 41.121094 17.449219 C 41.160156 17.472656 41.160156 17.5 41.183594 17.53125 C 41.222656 17.570312 41.210938 17.617188 41.183594 17.660156 C 41.171875 17.667969 41.160156 17.6875 41.144531 17.707031 C 41.109375 17.738281 41.070312 17.765625 41.019531 17.789062 C 40.980469 17.808594 40.894531 17.832031 40.90625 17.863281 C 40.894531 17.882812 40.90625 17.902344 40.945312 17.910156 C 40.980469 17.921875 41.03125 17.925781 41.070312 17.941406 C 41.09375 17.945312 41.121094 17.957031 41.144531 17.960938 C 41.246094 18.003906 41.296875 18.054688 41.347656 18.109375 C 41.398438 18.167969 41.386719 18.21875 41.375 18.277344 C 41.375 18.355469 41.347656 18.4375 41.472656 18.5 C 41.5 18.511719 41.539062 18.527344 41.574219 18.539062 C 41.613281 18.546875 41.640625 18.5625 41.675781 18.578125 C 41.726562 18.597656 41.765625 18.613281 41.816406 18.628906 C 41.867188 18.648438 41.917969 18.664062 41.957031 18.683594 C 42.019531 18.710938 42.070312 18.738281 42.121094 18.765625 C 42.15625 18.804688 42.222656 18.839844 42.285156 18.871094 C 42.359375 18.910156 42.320312 18.960938 42.359375 19.003906 C 42.398438 19.03125 42.523438 19.015625 42.5625 19.046875 C 42.585938 19.066406 42.585938 19.085938 42.597656 19.105469 C 42.625 19.128906 42.726562 19.152344 42.777344 19.167969 C 42.800781 19.175781 42.878906 19.210938 42.914062 19.175781 C 42.914062 19.167969 42.902344 19.15625 42.878906 19.140625 C 42.867188 19.128906 42.863281 19.113281 42.851562 19.09375 C 42.828125 19.058594 42.839844 19.023438 42.789062 18.988281 C 42.738281 18.957031 42.699219 18.929688 42.648438 18.902344 C 42.613281 18.875 42.5625 18.867188 42.535156 18.828125 C 42.535156 18.808594 42.523438 18.785156 42.511719 18.761719 C 42.511719 18.746094 42.472656 18.730469 42.460938 18.722656 C 42.410156 18.683594 42.421875 18.640625 42.386719 18.601562 C 42.386719 18.59375 42.347656 18.574219 42.320312 18.5625 C 42.285156 18.535156 42.222656 18.511719 42.183594 18.480469 C 42.132812 18.441406 42.070312 18.394531 42.132812 18.347656 C 42.183594 18.3125 42.296875 18.292969 42.359375 18.261719 C 42.421875 18.230469 42.320312 18.195312 42.269531 18.171875 C 42.167969 18.136719 42.207031 18.089844 42.269531 18.050781 C 42.320312 18.011719 42.421875 18.027344 42.484375 18.003906 C 42.535156 17.972656 42.5 17.945312 42.546875 17.921875 C 42.585938 17.894531 42.636719 17.875 42.726562 17.875 C 42.777344 17.875 42.839844 17.890625 42.878906 17.886719 C 42.929688 17.875 42.914062 17.839844 42.914062 17.824219 C 42.914062 17.78125 42.953125 17.757812 43.105469 17.761719 C 43.257812 17.769531 43.246094 17.828125 43.269531 17.863281 C 43.320312 17.902344 43.371094 17.945312 43.472656 17.976562 C 43.585938 18.015625 43.699219 17.96875 43.824219 17.972656 C 43.875 17.972656 43.964844 17.972656 44.003906 17.992188 C 44.039062 18.007812 44.078125 18.03125 44.089844 18.046875 C 44.140625 18.105469 44.066406 18.171875 44.15625 18.21875 C 44.191406 18.238281 44.269531 18.261719 44.34375 18.253906 C 44.394531 18.253906 44.40625 18.238281 44.433594 18.21875 C 44.457031 18.195312 44.484375 18.199219 44.535156 18.191406 C 44.597656 18.191406 44.621094 18.179688 44.636719 18.160156 C 44.660156 18.121094 44.445312 17.992188 44.507812 18.019531 C 44.519531 18.027344 44.433594 17.957031 44.433594 17.90625 C 44.445312 17.839844 44.394531 17.765625 44.34375 17.703125 C 44.292969 17.625 44.34375 17.546875 44.367188 17.472656 C 44.367188 17.417969 44.304688 17.371094 44.34375 17.320312 C 44.382812 17.261719 44.394531 17.199219 44.394531 17.136719 C 44.382812 17.105469 44.34375 17.054688 44.355469 17.015625 C 44.371094 16.996094 44.394531 16.984375 44.417969 16.964844 C 44.496094 16.910156 44.519531 16.835938 44.457031 16.785156 C 44.421875 16.761719 44.34375 16.746094 44.304688 16.71875 C 44.269531 16.6875 44.242188 16.65625 44.191406 16.625 C 44.128906 16.582031 44.167969 16.539062 44.21875 16.492188 C 44.269531 16.453125 44.332031 16.417969 44.320312 16.378906 C 44.304688 16.300781 44.242188 16.234375 44.191406 16.164062 C 44.179688 16.144531 44.15625 16.125 44.140625 16.105469 C 44.105469 16.0625 44.089844 16.011719 44.089844 15.972656 C 44.066406 15.925781 44.066406 15.886719 44.078125 15.84375 C 44.078125 15.804688 44.078125 15.777344 44.066406 15.734375 C 44.039062 15.699219 43.976562 15.660156 43.964844 15.621094 C 43.953125 15.578125 43.964844 15.535156 44.015625 15.496094 C 44.039062 15.460938 44.066406 15.429688 44.078125 15.394531 C 44.078125 15.371094 44.089844 15.335938 44.078125 15.308594 C 44.078125 15.292969 44.054688 15.277344 44.027344 15.269531 C 43.992188 15.246094 43.964844 15.246094 43.902344 15.242188 C 43.863281 15.242188 43.824219 15.234375 43.800781 15.226562 C 43.671875 15.210938 43.636719 15.167969 43.636719 15.125 C 43.636719 15.082031 43.636719 15.027344 43.660156 14.988281 C 43.675781 14.976562 43.699219 14.96875 43.710938 14.960938 C 43.75 14.945312 43.761719 14.925781 43.710938 14.917969 C 43.625 14.910156 43.507812 14.960938 43.445312 14.921875 C 43.421875 14.902344 43.433594 14.882812 43.421875 14.867188 C 43.410156 14.839844 43.371094 14.8125 43.292969 14.808594 C 43.230469 14.800781 43.21875 14.789062 43.230469 14.765625 C 43.230469 14.75 43.28125 14.726562 43.308594 14.714844 C 43.359375 14.6875 43.359375 14.660156 43.320312 14.632812 C 43.292969 14.617188 43.230469 14.597656 43.246094 14.582031 C 43.257812 14.566406 43.332031 14.550781 43.332031 14.53125 C 43.320312 14.492188 43.167969 14.472656 43.15625 14.429688 C 43.15625 14.40625 43.179688 14.386719 43.179688 14.359375 C 43.179688 14.328125 43.15625 14.292969 43.167969 14.257812 C 43.195312 14.234375 43.242188 14.210938 43.292969 14.1875 C 43.332031 14.175781 43.359375 14.164062 43.359375 14.144531 C 43.347656 14.109375 43.308594 14.085938 43.308594 14.054688 C 43.296875 14.03125 43.320312 14.007812 43.308594 13.984375 C 43.308594 13.96875 43.28125 13.960938 43.292969 13.941406 C 43.292969 13.910156 43.28125 13.886719 43.257812 13.855469 C 43.246094 13.828125 43.207031 13.820312 43.195312 13.800781 C 43.167969 13.765625 43.167969 13.738281 43.144531 13.710938 C 43.117188 13.679688 43.09375 13.65625 43.042969 13.632812 C 43.003906 13.613281 42.964844 13.601562 42.953125 13.578125 C 42.953125 13.546875 43.054688 13.519531 43.003906 13.492188 C 42.980469 13.46875 42.914062 13.46875 42.863281 13.460938 C 42.699219 13.433594 42.902344 13.355469 42.890625 13.316406 C 42.890625 13.296875 42.851562 13.28125 42.828125 13.261719 C 42.816406 13.234375 42.851562 13.210938 42.800781 13.195312 C 42.753906 13.183594 42.726562 13.203125 42.703125 13.214844 C 42.652344 13.242188 42.636719 13.242188 42.652344 13.269531 C 42.664062 13.285156 42.664062 13.304688 42.652344 13.324219 C 42.636719 13.34375 42.601562 13.335938 42.5625 13.316406 C 42.5 13.285156 42.5 13.234375 42.347656 13.222656 C 42.246094 13.21875 42.121094 13.222656 42.03125 13.238281 C 41.957031 13.246094 41.917969 13.273438 41.867188 13.289062 C 41.816406 13.316406 41.777344 13.347656 41.675781 13.351562 C 41.589844 13.355469 41.488281 13.347656 41.421875 13.324219 C 41.375 13.296875 41.410156 13.265625 41.398438 13.234375 C 41.398438 13.214844 41.359375 13.191406 41.3125 13.1875 C 41.195312 13.171875 41.144531 13.230469 41.132812 13.265625 C 41.121094 13.308594 41.121094 13.363281 41.195312 13.40625 C 41.222656 13.429688 41.222656 13.433594 41.234375 13.460938 C 41.246094 13.480469 41.296875 13.492188 41.3125 13.511719 C 41.324219 13.535156 41.273438 13.5625 41.285156 13.589844 C 41.285156 13.628906 41.335938 13.671875 41.285156 13.699219 L 41.246094 13.71875 C 41.195312 13.757812 41.09375 13.746094 41.019531 13.765625 C 40.917969 13.792969 40.832031 13.847656 40.703125 13.859375 C 40.652344 13.863281 40.539062 13.863281 40.476562 13.855469 C 40.425781 13.851562 40.402344 13.820312 40.335938 13.820312 C 40.285156 13.816406 40.300781 13.835938 40.300781 13.851562 C 40.300781 13.875 40.324219 13.902344 40.273438 13.917969 C 40.222656 13.933594 40.171875 13.941406 40.121094 13.945312 C 40.070312 13.949219 39.984375 13.945312 40.046875 13.972656 C 40.070312 13.988281 40.121094 13.988281 40.160156 14 C 40.1875 14.003906 40.210938 14.015625 40.222656 14.023438 C 40.273438 14.046875 40.210938 14.101562 40.210938 14.128906 C 40.210938 14.160156 40.210938 14.199219 40.25 14.226562 C 40.289062 14.242188 40.324219 14.253906 40.363281 14.269531 C 40.449219 14.300781 40.539062 14.328125 40.550781 14.375 C 40.550781 14.402344 40.550781 14.421875 40.515625 14.4375 C 40.488281 14.457031 40.449219 14.464844 40.4375 14.488281 C 40.425781 14.507812 40.402344 14.519531 40.363281 14.535156 C 40.25 14.59375 40.121094 14.636719 39.96875 14.667969 C 39.90625 14.671875 39.808594 14.6875 39.730469 14.6875 C 39.679688 14.6875 39.578125 14.675781 39.554688 14.691406 C 39.527344 14.699219 39.554688 14.710938 39.539062 14.71875 C 39.539062 14.730469 39.527344 14.734375 39.515625 14.738281 C 39.503906 14.757812 39.515625 14.761719 39.464844 14.75 C 39.414062 14.738281 39.402344 14.699219 39.339844 14.703125 C 39.300781 14.710938 39.226562 14.738281 39.210938 14.75 C 39.160156 14.761719 39.113281 14.800781 39.046875 14.796875 C 38.949219 14.796875 38.984375 14.742188 38.984375 14.71875 C 38.984375 14.699219 38.996094 14.679688 38.996094 14.660156 C 38.996094 14.628906 39.011719 14.59375 38.984375 14.566406 C 38.972656 14.554688 38.960938 14.550781 38.933594 14.539062 C 38.910156 14.527344 38.972656 14.511719 38.945312 14.492188 C 38.894531 14.449219 38.695312 14.394531 38.769531 14.34375 C 38.796875 14.328125 38.859375 14.308594 38.871094 14.292969 C 38.882812 14.273438 38.796875 14.273438 38.746094 14.261719 C 38.679688 14.242188 38.644531 14.210938 38.605469 14.191406 C 38.542969 14.167969 38.480469 14.144531 38.429688 14.117188 C 38.402344 14.101562 38.378906 14.039062 38.304688 14.039062 C 38.1875 14.046875 38.1875 14.128906 38.1875 14.160156 C 38.1875 14.191406 38.1875 14.226562 38.175781 14.265625 C 38.164062 14.28125 38.1875 14.316406 38.214844 14.335938 C 38.238281 14.355469 38.289062 14.363281 38.339844 14.375 C 38.351562 14.386719 38.378906 14.394531 38.390625 14.40625 C 38.402344 14.421875 38.417969 14.433594 38.402344 14.449219 C 38.390625 14.492188 38.316406 14.527344 38.203125 14.511719 C 38.152344 14.503906 38.101562 14.503906 38.0625 14.476562 C 38 14.445312 38 14.390625 37.988281 14.347656 C 37.988281 14.3125 37.988281 14.289062 37.960938 14.25 C 37.9375 14.167969 38.011719 14.101562 37.847656 14.039062 C 37.796875 14.023438 37.796875 13.996094 37.769531 13.980469 C 37.757812 13.972656 37.757812 13.964844 37.757812 13.953125 C 37.734375 13.914062 37.796875 13.921875 37.824219 13.894531 C 37.835938 13.878906 37.796875 13.871094 37.773438 13.859375 C 37.734375 13.851562 37.71875 13.851562 37.71875 13.832031 C 37.707031 13.8125 37.734375 13.789062 37.707031 13.773438 C 37.683594 13.757812 37.644531 13.753906 37.632812 13.738281 C 37.59375 13.707031 37.542969 13.679688 37.480469 13.65625 C 37.417969 13.628906 37.355469 13.609375 37.367188 13.570312 C 37.367188 13.546875 37.378906 13.523438 37.378906 13.5 C 37.378906 13.46875 37.378906 13.464844 37.316406 13.453125 C 37.253906 13.445312 37.214844 13.441406 37.164062 13.429688 C 37.101562 13.417969 37.0625 13.398438 37.050781 13.371094 C 37.039062 13.332031 37.125 13.3125 37.214844 13.308594 C 37.328125 13.296875 37.390625 13.265625 37.367188 13.222656 C 37.339844 13.199219 37.304688 13.183594 37.265625 13.164062 C 37.253906 13.152344 37.226562 13.125 37.242188 13.105469 C 37.277344 13.058594 37.367188 13.082031 37.46875 13.070312 C 37.542969 13.054688 37.492188 13.015625 37.507812 12.992188 C 37.519531 12.96875 37.582031 12.953125 37.582031 12.929688 C 37.59375 12.894531 37.542969 12.871094 37.507812 12.847656 C 37.46875 12.828125 37.429688 12.8125 37.46875 12.789062 C 37.480469 12.753906 37.542969 12.742188 37.632812 12.742188 C 37.707031 12.734375 37.769531 12.75 37.796875 12.722656 C 37.835938 12.695312 37.820312 12.683594 37.757812 12.65625 C 37.722656 12.636719 37.769531 12.613281 37.808594 12.59375 C 37.859375 12.570312 37.898438 12.5625 37.984375 12.566406 C 38.035156 12.566406 38.085938 12.59375 38.136719 12.585938 C 38.175781 12.574219 38.214844 12.546875 38.253906 12.53125 C 38.277344 12.519531 38.367188 12.507812 38.351562 12.484375 C 38.328125 12.464844 38.277344 12.453125 38.253906 12.429688 C 38.238281 12.425781 38.199219 12.386719 38.238281 12.359375 C 38.289062 12.332031 38.429688 12.34375 38.492188 12.355469 C 38.554688 12.359375 38.617188 12.359375 38.667969 12.375 C 38.707031 12.378906 38.757812 12.394531 38.808594 12.398438 C 38.871094 12.402344 38.960938 12.394531 39.011719 12.398438 C 39.109375 12.402344 39.175781 12.417969 39.289062 12.417969 C 39.3125 12.414062 39.351562 12.40625 39.378906 12.402344 C 39.527344 12.359375 39.539062 12.28125 39.566406 12.214844 C 39.578125 12.191406 39.566406 12.160156 39.628906 12.152344 C 39.730469 12.136719 39.78125 12.179688 39.792969 12.210938 C 39.820312 12.234375 39.84375 12.273438 39.917969 12.285156 C 39.984375 12.296875 40.058594 12.292969 40.085938 12.265625 C 40.121094 12.214844 39.984375 12.152344 40.058594 12.101562 C 40.121094 12.066406 40.210938 12.074219 40.261719 12.097656 C 40.300781 12.117188 40.289062 12.15625 40.402344 12.152344 C 40.4375 12.148438 40.476562 12.140625 40.503906 12.128906 C 40.550781 12.109375 40.550781 12.09375 40.640625 12.09375 C 40.742188 12.089844 40.777344 12.105469 40.816406 12.144531 C 40.828125 12.160156 40.828125 12.1875 40.816406 12.207031 C 40.792969 12.210938 40.78125 12.214844 40.78125 12.222656 C 40.78125 12.234375 40.816406 12.269531 40.855469 12.269531 C 40.957031 12.273438 41.007812 12.1875 41.042969 12.15625 C 41.109375 12.09375 41.03125 12.03125 41.03125 11.964844 C 41.03125 11.929688 41.03125 11.902344 41.160156 11.902344 C 41.222656 11.90625 41.285156 11.910156 41.335938 11.910156 C 41.398438 11.921875 41.476562 11.925781 41.4375 11.898438 C 41.398438 11.882812 41.234375 11.820312 41.308594 11.785156 C 41.359375 11.769531 41.472656 11.789062 41.511719 11.796875 C 41.539062 11.800781 41.675781 11.820312 41.714844 11.824219 C 41.855469 11.839844 42.03125 11.84375 42.15625 11.824219 C 42.335938 11.796875 42.285156 11.714844 42.234375 11.664062 C 42.207031 11.632812 42.082031 11.535156 42.246094 11.53125 C 42.296875 11.53125 42.371094 11.554688 42.398438 11.574219 C 42.433594 11.59375 42.472656 11.621094 42.511719 11.636719 C 42.550781 11.652344 42.601562 11.65625 42.601562 11.636719 C 42.613281 11.621094 42.585938 11.597656 42.5625 11.578125 C 42.523438 11.535156 42.511719 11.480469 42.511719 11.4375 C 42.511719 11.414062 42.511719 11.390625 42.523438 11.367188 C 42.546875 11.328125 42.585938 11.289062 42.652344 11.253906 C 42.714844 11.226562 42.789062 11.195312 42.828125 11.164062 C 42.839844 11.125 42.867188 11.085938 42.851562 11.046875 C 42.839844 11.019531 42.714844 10.964844 42.765625 10.929688 C 42.777344 10.921875 42.828125 10.921875 42.839844 10.90625 C 42.863281 10.882812 42.878906 10.847656 42.878906 10.820312 C 42.890625 10.800781 42.941406 10.773438 43.003906 10.777344 C 43.066406 10.78125 43.117188 10.816406 43.167969 10.828125 C 43.21875 10.839844 43.257812 10.855469 43.28125 10.867188 C 43.320312 10.882812 43.371094 10.886719 43.394531 10.898438 C 43.433594 10.90625 43.457031 10.914062 43.472656 10.917969 C 43.507812 10.925781 43.574219 10.925781 43.621094 10.941406 C 43.699219 10.957031 43.8125 10.949219 43.890625 10.925781 C 43.976562 10.890625 44.015625 10.859375 44.003906 10.808594 C 43.976562 10.792969 44.003906 10.761719 43.976562 10.742188 C 43.964844 10.726562 43.914062 10.703125 43.902344 10.695312 C 43.839844 10.679688 43.738281 10.726562 43.671875 10.703125 C 43.636719 10.691406 43.636719 10.65625 43.597656 10.636719 C 43.570312 10.617188 43.574219 10.597656 43.558594 10.582031 C 43.523438 10.554688 43.472656 10.53125 43.433594 10.511719 C 43.34375 10.476562 43.230469 10.457031 43.105469 10.457031 C 43.03125 10.457031 42.992188 10.472656 42.929688 10.480469 C 42.878906 10.492188 42.839844 10.488281 42.777344 10.480469 C 42.6875 10.476562 42.636719 10.4375 42.5625 10.417969 C 42.535156 10.410156 42.5 10.394531 42.472656 10.378906 C 42.460938 10.371094 42.460938 10.359375 42.449219 10.355469 C 42.410156 10.335938 42.359375 10.324219 42.320312 10.316406 C 42.246094 10.308594 42.15625 10.324219 42.082031 10.308594 C 42.054688 10.304688 42.019531 10.292969 41.992188 10.28125 C 41.890625 10.242188 41.765625 10.207031 41.640625 10.226562 C 41.613281 10.230469 41.589844 10.238281 41.5625 10.242188 C 41.523438 10.246094 41.460938 10.246094 41.421875 10.246094 C 41.359375 10.25 41.296875 10.246094 41.234375 10.25 C 41.097656 10.257812 40.957031 10.253906 40.816406 10.25 C 40.691406 10.246094 40.488281 10.230469 40.375 10.253906 C 40.3125 10.269531 40.25 10.289062 40.171875 10.296875 C 40.082031 10.304688 39.996094 10.296875 39.933594 10.308594 C 39.855469 10.320312 39.605469 10.339844 39.617188 10.296875 C 39.617188 10.277344 39.617188 10.277344 39.628906 10.253906 C 39.628906 10.234375 39.59375 10.214844 39.527344 10.21875 C 39.503906 10.21875 39.476562 10.234375 39.441406 10.25 C 39.414062 10.265625 39.363281 10.269531 39.3125 10.285156 C 39.238281 10.296875 39.148438 10.292969 39.074219 10.289062 C 38.933594 10.289062 38.796875 10.289062 38.667969 10.257812 C 38.515625 10.230469 38.339844 10.25 38.1875 10.246094 C 38.085938 10.238281 38.035156 10.21875 37.972656 10.191406 C 37.949219 10.179688 37.921875 10.167969 37.886719 10.152344 C 37.847656 10.144531 37.808594 10.136719 37.769531 10.132812 C 37.746094 10.132812 37.734375 10.128906 37.707031 10.128906 C 37.632812 10.117188 37.582031 10.136719 37.507812 10.152344 C 37.441406 10.171875 37.355469 10.183594 37.265625 10.167969 C 37.039062 10.117188 36.683594 10.121094 36.484375 10.191406 C 36.269531 10.265625 35.734375 10.273438 35.546875 10.175781 C 35.519531 10.15625 35.445312 10.136719 35.371094 10.148438 C 35.28125 10.152344 35.292969 10.179688 35.242188 10.199219 C 35.167969 10.234375 35.042969 10.210938 34.980469 10.183594 C 34.929688 10.167969 34.863281 10.164062 34.800781 10.164062 C 34.738281 10.167969 34.6875 10.171875 34.613281 10.175781 C 34.523438 10.179688 34.445312 10.175781 34.347656 10.175781 C 34.28125 10.171875 34.195312 10.171875 34.117188 10.175781 C 34.054688 10.179688 34.019531 10.1875 33.929688 10.191406 C 33.816406 10.195312 33.738281 10.183594 33.613281 10.1875 C 33.539062 10.195312 33.410156 10.195312 33.335938 10.183594 C 33.273438 10.167969 33.234375 10.148438 33.160156 10.140625 C 33.058594 10.125 32.980469 10.101562 32.878906 10.089844 C 32.777344 10.082031 32.664062 10.074219 32.5625 10.066406 C 32.488281 10.058594 32.386719 10.050781 32.3125 10.046875 C 32.222656 10.042969 32.121094 10.042969 32.046875 10.023438 C 32.019531 10.007812 31.96875 10 31.933594 9.988281 C 31.90625 9.976562 31.894531 9.960938 31.867188 9.949219 C 31.832031 9.9375 31.753906 9.933594 31.703125 9.921875 C 31.578125 9.898438 31.464844 9.882812 31.351562 9.871094 C 31.261719 9.859375 31.1875 9.839844 31.109375 9.832031 C 31.035156 9.816406 30.996094 9.832031 30.921875 9.839844 C 30.882812 9.84375 30.84375 9.851562 30.808594 9.859375 C 30.792969 9.871094 30.742188 9.882812 30.71875 9.882812 C 30.65625 9.878906 30.746094 9.816406 30.757812 9.800781 C 30.792969 9.765625 30.71875 9.71875 30.71875 9.679688 C 30.730469 9.667969 30.71875 9.652344 30.742188 9.640625 C 30.78125 9.628906 30.820312 9.617188 30.84375 9.605469 C 30.882812 9.59375 30.910156 9.574219 30.921875 9.554688 C 30.960938 9.511719 30.984375 9.472656 30.996094 9.429688 C 31.023438 9.359375 31.011719 9.285156 30.996094 9.210938 C 30.984375 9.183594 30.984375 9.15625 30.945312 9.128906 C 30.933594 9.117188 30.921875 9.101562 30.871094 9.097656 C 30.820312 9.082031 30.757812 9.0625 30.769531 9.035156 C 30.769531 9.003906 30.820312 8.976562 30.859375 8.945312 C 30.894531 8.917969 30.894531 8.898438 30.871094 8.863281 C 30.859375 8.835938 30.792969 8.808594 30.78125 8.777344 C 30.757812 8.753906 30.792969 8.726562 30.820312 8.699219 C 30.855469 8.671875 30.894531 8.644531 30.921875 8.613281 C 30.945312 8.578125 30.855469 8.554688 30.945312 8.527344 C 31.007812 8.507812 31.046875 8.492188 31.046875 8.457031 C 31.046875 8.433594 30.972656 8.414062 30.921875 8.402344 C 30.84375 8.367188 30.78125 8.402344 30.691406 8.402344 C 30.667969 8.402344 30.644531 8.410156 30.628906 8.402344 C 30.617188 8.390625 30.605469 8.363281 30.617188 8.355469 C 30.65625 8.3125 30.742188 8.285156 30.71875 8.238281 C 30.71875 8.203125 30.667969 8.167969 30.65625 8.136719 C 30.644531 8.121094 30.617188 8.097656 30.578125 8.085938 C 30.53125 8.074219 30.492188 8.0625 30.453125 8.042969 C 30.414062 8.023438 30.378906 8.011719 30.351562 7.992188 C 30.300781 7.976562 30.289062 7.957031 30.238281 7.945312 C 30.214844 7.9375 30.199219 7.941406 30.175781 7.945312 C 30.136719 7.953125 30.101562 7.953125 30.074219 7.953125 C 29.972656 7.960938 30.035156 8.003906 30.011719 8.035156 C 30.011719 8.054688 29.933594 8.046875 29.882812 8.054688 C 29.835938 8.0625 29.796875 8.070312 29.757812 8.082031 C 29.582031 8.148438 30 8.179688 30.0625 8.210938 C 30.125 8.25 30.0625 8.296875 29.933594 8.292969 C 29.847656 8.289062 29.632812 8.273438 29.65625 8.335938 C 29.667969 8.351562 29.707031 8.363281 29.707031 8.382812 C 29.71875 8.398438 29.695312 8.417969 29.667969 8.433594 C 29.617188 8.484375 29.566406 8.429688 29.519531 8.414062 C 29.46875 8.402344 29.339844 8.390625 29.304688 8.40625 C 29.242188 8.429688 29.265625 8.4375 29.164062 8.4375 C 29.0625 8.433594 29.101562 8.386719 29.039062 8.367188 C 28.988281 8.347656 28.910156 8.351562 28.847656 8.351562 C 28.746094 8.351562 28.632812 8.355469 28.558594 8.347656 C 28.46875 8.34375 28.417969 8.328125 28.34375 8.3125 C 28.292969 8.304688 28.265625 8.285156 28.230469 8.265625 C 28.203125 8.25 28.164062 8.246094 28.140625 8.238281 C 28.089844 8.210938 28.0625 8.1875 28.015625 8.167969 C 27.976562 8.160156 27.953125 8.144531 27.902344 8.140625 C 27.824219 8.136719 27.738281 8.132812 27.671875 8.125 C 27.597656 8.117188 27.597656 8.09375 27.535156 8.074219 C 27.457031 8.039062 27.546875 7.984375 27.546875 7.945312 C 27.546875 7.933594 27.558594 7.910156 27.535156 7.894531 C 27.519531 7.875 27.46875 7.875 27.433594 7.863281 C 27.355469 7.855469 27.242188 7.816406 27.304688 7.789062 C 27.355469 7.765625 27.445312 7.757812 27.382812 7.726562 C 27.304688 7.695312 27.269531 7.675781 27.304688 7.636719 C 27.394531 7.542969 27.292969 7.566406 27.066406 7.570312 C 26.953125 7.570312 26.851562 7.550781 26.777344 7.507812 C 26.6875 7.46875 26.699219 7.445312 26.597656 7.492188 C 26.371094 7.585938 26.5625 7.628906 26.777344 7.679688 C 26.890625 7.707031 27.269531 7.78125 27.128906 7.828125 C 26.953125 7.878906 26.6875 7.734375 26.574219 7.773438 C 26.535156 7.820312 26.761719 7.835938 26.710938 7.878906 C 26.660156 7.914062 26.496094 7.898438 26.433594 7.882812 C 26.371094 7.863281 26.371094 7.773438 26.269531 7.820312 C 26.246094 7.839844 26.128906 7.914062 26.015625 7.894531 C 25.953125 7.84375 25.890625 7.804688 25.765625 7.78125 C 25.714844 7.773438 25.714844 7.78125 25.664062 7.761719 C 25.625 7.753906 25.585938 7.734375 25.585938 7.71875 C 25.5625 7.625 25.054688 7.503906 25.15625 7.488281 C 25.207031 7.484375 25.273438 7.382812 24.675781 7.390625 C 24.589844 7.390625 24.5625 7.347656 24.527344 7.324219 C 24.460938 7.273438 24.4375 7.265625 24.296875 7.242188 C 24.171875 7.210938 24.097656 7.191406 24.097656 7.140625 C 24.097656 7.105469 24.144531 7.058594 24.082031 7.023438 C 24.058594 7.011719 24.03125 7.003906 24 7.003906 Z M 38.097656 15.679688 C 38.085938 15.699219 38.113281 15.722656 38.085938 15.738281 C 38.074219 15.75 38.011719 15.761719 38 15.773438 L 37.960938 15.769531 C 37.910156 15.796875 37.898438 15.804688 37.910156 15.832031 C 37.921875 15.867188 37.910156 15.867188 37.859375 15.894531 C 37.835938 15.921875 37.847656 15.945312 37.910156 15.96875 C 37.984375 15.988281 38.113281 15.976562 38.113281 16.027344 L 38.113281 16.066406 C 38.136719 16.078125 38.164062 16.089844 38.175781 16.109375 C 38.1875 16.125 38.175781 16.199219 38.238281 16.195312 C 38.277344 16.195312 38.277344 16.175781 38.277344 16.160156 C 38.3125 16.136719 38.378906 16.144531 38.453125 16.148438 C 38.515625 16.152344 38.53125 16.15625 38.554688 16.136719 C 38.582031 16.117188 38.578125 16.089844 38.566406 16.070312 C 38.554688 16.054688 38.527344 16.039062 38.527344 16.023438 C 38.527344 16.011719 38.554688 15.996094 38.554688 15.976562 C 38.554688 15.933594 38.492188 15.902344 38.390625 15.882812 C 38.25 15.863281 38.265625 15.804688 38.214844 15.761719 C 38.199219 15.730469 38.164062 15.691406 38.097656 15.679688 Z M 36.242188 15.917969 C 36.109375 15.925781 36.035156 16.007812 36.027344 16.050781 C 36 16.117188 36.027344 16.179688 36.015625 16.25 L 36.015625 16.28125 C 36 16.3125 36 16.34375 35.988281 16.375 C 35.964844 16.414062 35.925781 16.441406 35.875 16.46875 C 35.835938 16.503906 35.75 16.527344 35.710938 16.5625 C 35.671875 16.585938 35.6875 16.632812 35.6875 16.664062 C 35.671875 16.679688 35.671875 16.691406 35.6875 16.707031 C 35.75 16.710938 35.773438 16.707031 35.824219 16.691406 C 35.886719 16.671875 35.976562 16.632812 36.050781 16.625 C 36.101562 16.621094 36.140625 16.621094 36.191406 16.605469 C 36.214844 16.589844 36.265625 16.578125 36.304688 16.558594 C 36.433594 16.507812 36.496094 16.441406 36.53125 16.375 C 36.546875 16.304688 36.59375 16.234375 36.496094 16.175781 C 36.445312 16.148438 36.367188 16.117188 36.367188 16.085938 C 36.355469 16.058594 36.367188 16.03125 36.355469 16.011719 C 36.355469 15.984375 36.316406 15.953125 36.332031 15.925781 C 36.300781 15.917969 36.273438 15.917969 36.246094 15.917969 C 36.246094 15.917969 36.242188 15.917969 36.242188 15.917969 Z M 36.242188 15.917969 "/>
</g>
</svg>
