<?xml version="1.0" encoding="UTF-8" standalone="no"?>
<!-- Created with Inkscape (http://www.inkscape.org/) -->

<svg
   width="250"
   height="136"
   viewBox="0 0 66.145832 35.983334"
   version="1.1"
   id="svg5"
   xml:space="preserve"
   xmlns="http://www.w3.org/2000/svg"
   xmlns:svg="http://www.w3.org/2000/svg"
   xmlns:rdf="http://www.w3.org/1999/02/22-rdf-syntax-ns#"
   xmlns:cc="http://creativecommons.org/ns#"
   xmlns:dc="http://purl.org/dc/elements/1.1/"><title
     id="title8351">Information and Communication Technology Division - তথ্য ও যোগাযোগ প্রযুক্তি বিভাগ</title><defs
     id="defs2"><rect
   id="SVGID_1_"
   x="0"
   y="0"
   width="96.669998"
   height="99.720001" />																																																																																																																																																																											
	
	
	

		
		
	
		
		
	
		
		
	
			
			
		
				
				
				
				
				
				
				
				
				
				
			
				
				
			
					
					
					
					
					
					
					
					
					
					
				
					
					
				
						
						
						
						
					
						
						
						
						
						
					
			
			
		
			
			
			
		</defs><g
     id="layer1"
     transform="translate(60.269439,-138.67607)"><g
       id="g11380"><path
         id="path7177"
         style="font-variation-settings:normal;fill:#ed1c24;fill-opacity:1;fill-rule:evenodd;stroke-width:0.4699;stroke-linecap:butt;stroke-linejoin:miter;stroke-miterlimit:4;stroke-dasharray:none;stroke-dashoffset:0;stroke-opacity:1;stop-color:#000000"
         d="m -19.715991,171.3427 c -0.126878,0 -0.25767,0.0185 -0.384547,0.0513 -0.126878,0.0329 -0.244573,0.0845 -0.343248,0.15504 -0.103381,0.0705 -0.183052,0.15984 -0.244129,0.268 -0.06109,0.10798 -0.09454,0.23433 -0.09454,0.37996 0,0.0751 0.01421,0.15061 0.03303,0.22577 0.01881,0.0705 0.05671,0.14083 0.103701,0.20651 0.04697,0.0659 0.112723,0.12734 0.197321,0.17895 0.07988,0.0517 0.183329,0.0938 0.310207,0.12663 0.202057,0.0517 0.371257,0.0993 0.507529,0.13213 0.136273,0.033 0.258222,0.0698 0.361603,0.10745 0.06108,0.0234 0.112598,0.0613 0.16428,0.11295 0.05166,0.0517 0.07525,0.13232 0.07525,0.24504 0,0.0517 -0.0096,0.10798 -0.03303,0.15966 -0.0235,0.0517 -0.06131,0.0982 -0.1083,0.14048 -0.0517,0.0376 -0.112847,0.0757 -0.192733,0.0991 -0.07989,0.0234 -0.173569,0.0377 -0.286345,0.0377 -0.103381,0 -0.197067,-0.009 -0.286346,-0.033 -0.08928,-0.0234 -0.169164,-0.0558 -0.234949,-0.10745 -0.07049,-0.0471 -0.1221,-0.11277 -0.159698,-0.19273 -0.03655,-0.0776 -0.05589,-0.16943 -0.0569,-0.27808 h -0.507528 c 0.0048,0.17855 0.03792,0.33371 0.103701,0.46531 0.06109,0.1316 0.150747,0.23942 0.258813,0.32396 0.112776,0.0845 0.238879,0.14581 0.384546,0.18815 0.145668,0.0423 0.305442,0.0615 0.4699,0.0615 0.140961,0 0.286822,-0.0195 0.423095,-0.0522 0.140961,-0.033 0.263628,-0.0845 0.371697,-0.15966 0.10807,-0.0705 0.196701,-0.16446 0.262484,-0.28176 0.06578,-0.11757 0.09912,-0.25404 0.09912,-0.4185 0,-0.0797 -0.0096,-0.15522 -0.03303,-0.23036 -0.0235,-0.0799 -0.06131,-0.1499 -0.1083,-0.21568 -0.04699,-0.0659 -0.107555,-0.12734 -0.17805,-0.17897 -0.07049,-0.0517 -0.155648,-0.0938 -0.249634,-0.12201 -0.03758,-0.009 -0.09795,-0.0279 -0.187226,-0.0513 -0.08928,-0.0234 -0.178593,-0.0472 -0.272579,-0.0707 -0.08928,-0.0234 -0.174457,-0.0464 -0.249633,-0.0652 -0.0752,-0.0188 -0.117234,-0.0277 -0.126647,-0.033 -0.103381,-0.0282 -0.182933,-0.0757 -0.248716,-0.13214 -0.06109,-0.0611 -0.09454,-0.14084 -0.09454,-0.24413 0,-0.0751 0.01943,-0.13657 0.05232,-0.18357 0.03289,-0.0517 0.07497,-0.0883 0.126647,-0.1165 0.05168,-0.0282 0.107786,-0.0472 0.168862,-0.0615 0.06109,-0.0142 0.122455,-0.0194 0.183555,-0.0194 0.178563,0 0.324085,0.0377 0.436861,0.11757 0.117482,0.0751 0.178701,0.20666 0.192731,0.39463 h 0.50753 c 0,-0.15043 -0.02794,-0.28183 -0.08903,-0.39923 -0.06109,-0.11739 -0.141672,-0.211 -0.245046,-0.29092 -0.09867,-0.0799 -0.216153,-0.14137 -0.352426,-0.17897 -0.131566,-0.0423 -0.277308,-0.0606 -0.427682,-0.0606 z m -18.311423,0.0652 -0.0046,0.002 h 0.0046 v 2.91301 h 0.50753 v -1.19862 h 0.751657 c 0.117482,0 0.211166,0.0142 0.286344,0.0423 0.07518,0.0282 0.136681,0.0757 0.178966,0.14137 0.04229,0.0611 0.075,0.14083 0.08903,0.23954 0.01403,0.094 0.02387,0.21165 0.02387,0.34325 0,0.0703 -2.34e-4,0.1451 0.0092,0.22026 0.0046,0.0751 0.02849,0.14634 0.06609,0.20742 h 0.545157 c -0.05639,-0.0611 -0.09949,-0.16002 -0.122988,-0.30103 -0.0236,-0.14102 -0.03763,-0.29624 -0.03763,-0.46531 0,-0.11757 -0.01403,-0.21122 -0.04222,-0.28635 -0.02819,-0.0753 -0.06509,-0.13657 -0.107377,-0.18355 -0.04229,-0.0471 -0.08965,-0.0803 -0.141334,-0.10372 -0.0517,-0.0234 -0.09905,-0.0369 -0.141334,-0.0423 v -0.009 c 0.0235,-0.005 0.0658,-0.0243 0.117482,-0.0478 0.0517,-0.0282 0.10331,-0.0657 0.159698,-0.12201 0.05168,-0.0563 0.09905,-0.13089 0.141334,-0.22028 0.04231,-0.0893 0.06149,-0.20703 0.06149,-0.34325 0,-0.24435 -0.07978,-0.43718 -0.239538,-0.57819 -0.159769,-0.1364 -0.400006,-0.2065 -0.719536,-0.2065 h -1.385839 z m 36.2052571,0 -0.00462,0.002 h 0.00462 v 2.91301 h 0.5075294 v -1.19862 h 0.75165673 c 0.11748244,0 0.21208466,0.0142 0.28726277,0.0423 0.0751781,0.0282 0.13575748,0.0757 0.17804761,0.14137 0.04228657,0.0611 0.07590626,0.14083 0.08993667,0.23954 0.0140304,0.094 0.02294593,0.21165 0.02294593,0.34325 0,0.0703 -2.3444e-4,0.1451 0.0092352,0.22026 0.0046176,0.0751 0.02848705,0.14634 0.06608498,0.20742 h 0.54515759 c -0.056388,-0.0611 -0.098568,-0.16002 -0.12206452,-0.30103 -0.0236031,-0.14102 -0.0376335,-0.29624 -0.0376335,-0.46531 0,-0.11757 -0.0140304,-0.21122 -0.0422155,-0.28635 -0.0281851,-0.0753 -0.0660139,-0.13657 -0.10830051,-0.18355 -0.0423043,-0.0471 -0.0887467,-0.0803 -0.14041061,-0.10372 -0.0516816,-0.0234 -0.09904755,-0.0369 -0.14133413,-0.0423 v -0.009 c 0.02349649,-0.005 0.06580083,-0.0243 0.11748244,-0.0478 0.0516994,-0.0282 0.10330996,-0.0657 0.15969798,-0.12201 0.0516994,-0.0563 0.0990476,-0.13089 0.14133412,-0.22028 0.0423043,-0.0893 0.0605794,-0.20703 0.0605794,-0.34325 0,-0.24435 -0.0797779,-0.43718 -0.23953985,-0.57819 -0.15976902,-0.1364 -0.39908332,-0.2065 -0.71861602,-0.2065 H -1.822077 Z m -56.5431221,9.3e-4 v 2.90843 h 0.507528 v -1.29224 h 1.316089 v -0.41391 h -1.316089 v -0.76084 h 1.499642 v -0.44144 z m 4.778848,0 v 1.86032 c 0,0.18797 0.02804,0.34817 0.08443,0.48918 0.06109,0.13622 0.141672,0.25388 0.245046,0.34783 0.103381,0.0941 0.229702,0.1641 0.37537,0.2111 0.145667,0.0471 0.310612,0.0707 0.489173,0.0707 0.178562,0 0.342588,-0.0236 0.488256,-0.0707 0.145667,-0.0471 0.272905,-0.11722 0.376286,-0.2111 0.10807,-0.094 0.18774,-0.21161 0.244128,-0.34783 0.05639,-0.13622 0.08443,-0.30121 0.08443,-0.48918 v -1.86032 h -0.50753 v 1.69604 c 0,0.0988 -0.0044,0.19769 -0.01385,0.29643 -0.0094,0.10354 -0.03286,0.19266 -0.07985,0.27258 -0.04229,0.0799 -0.112634,0.14564 -0.20191,0.19734 -0.08928,0.0517 -0.221008,0.0799 -0.385465,0.0799 -0.164458,0 -0.296186,-0.0282 -0.385465,-0.0799 -0.08928,-0.0517 -0.154921,-0.1174 -0.20191,-0.19734 -0.04229,-0.0799 -0.07044,-0.17387 -0.07985,-0.27258 -0.0094,-0.0987 -0.01385,-0.19768 -0.01385,-0.29643 v -1.69604 h -0.50753 z m 5.112918,0 v 0.44144 h 0.921444 v 2.46699 h 0.506611 v -2.46699 h 0.926033 v -0.44144 z m 5.051425,0 v 1.86032 c 0,0.18797 0.02804,0.34817 0.08443,0.48918 0.06109,0.13622 0.140748,0.25388 0.244127,0.34783 0.103381,0.0941 0.230621,0.1641 0.376287,0.2111 0.145667,0.0471 0.309693,0.0707 0.488256,0.0707 0.178561,0 0.343507,-0.0236 0.489173,-0.0707 0.145667,-0.0471 0.271989,-0.11722 0.37537,-0.2111 0.108087,-0.094 0.188657,-0.21161 0.245045,-0.34783 0.05637,-0.13622 0.08443,-0.30121 0.08443,-0.48918 v -1.86032 h -0.507527 v 1.69604 c 0,0.0988 -0.0044,0.19769 -0.01385,0.29643 -0.0094,0.10354 -0.03286,0.19266 -0.07985,0.27258 -0.04229,0.0799 -0.113557,0.14564 -0.202828,0.19734 -0.08928,0.0517 -0.220089,0.0799 -0.384547,0.0799 -0.164475,0 -0.296185,-0.0282 -0.385465,-0.0799 -0.08928,-0.0517 -0.15492,-0.1174 -0.20191,-0.19734 -0.04229,-0.0799 -0.07136,-0.17387 -0.08077,-0.27258 -0.0094,-0.0987 -0.01385,-0.19768 -0.01385,-0.29643 v -1.69604 h -0.50753 z m 10.65719,0 v 2.90843 h 2.123727 v -0.44146 h -1.61161 v -0.85078 h 1.466603 v -0.41391 h -1.466603 v -0.76084 h 1.584079 v -0.44144 z m 8.509598,0 v 2.90843 h 0.507528 v -2.90843 z m 12.099928,0 v 2.90843 h 0.507529 v -1.31058 h 1.325266 v 1.31058 h 0.5075276 v -2.90843 h -0.5075276 v 1.15548 h -1.325266 v -1.15548 z m 5.3570461,0 v 2.90843 h 2.1246455 V 173.8758 H -6.286209 v -0.85078 h 1.4666035 v -0.41391 H -6.286209 v -0.76084 h 1.584077 v -0.44144 z m 10.2441899,0 v 2.90843 H 5.5695931 V 173.8758 H 3.9579826 v -0.85078 h 1.4656836 v -0.41391 H 3.9579826 v -0.76084 h 1.5831589 v -0.44144 z m -40.970337,0.41759 h 0.826915 c 0.0658,0 0.127055,0.005 0.188142,0.0142 0.06108,0.009 0.117287,0.0323 0.16428,0.0652 0.04699,0.0329 0.08468,0.0805 0.112883,0.13676 0.02819,0.0565 0.04222,0.13178 0.04222,0.22578 0,0.15504 -0.043,0.27178 -0.12757,0.34691 -0.08459,0.0799 -0.206323,0.11845 -0.370781,0.11845 h -0.836091 z m 36.2052563,0 h 0.82691299 c 0.0658008,0 0.12707284,0.005 0.18814418,0.0142 0.0610944,0.009 0.11728708,0.0323 0.16428005,0.0652 0.04699298,0.0329 0.08469747,0.0805 0.1128826,0.13676 0.02818513,0.0565 0.04221553,0.13178 0.04221553,0.22578 0,0.15504 -0.04205569,0.27178 -0.1266466,0.34691 -0.0845909,0.0799 -0.20632332,0.11845 -0.37078097,0.11845 H -1.3192184 Z" /><path
         id="path7149"
         style="font-variation-settings:normal;fill:#00a750;fill-opacity:1;fill-rule:evenodd;stroke-width:0.406676;stroke-linecap:butt;stroke-linejoin:miter;stroke-miterlimit:4;stroke-dasharray:none;stroke-dashoffset:0;stroke-opacity:1;stop-color:#000000"
         d="m -25.810009,139.8594 v 16.38042 h 3.641727 V 139.8594 Z m 14.063964,0 c -4.219676,0 -8.947375,2.38714 -8.947375,8.49583 0,3.62756 2.119651,7.88459 8.717014,7.88459 1.973572,0 3.4912116,-0.46989 3.4912116,-0.46989 v -3.0305 c 0,0 -1.1743928,0.50753 -2.9130136,0.50753 -3.190605,0 -5.394675,-1.64021 -5.394675,-5.19736 0,-3.55704 2.373343,-5.25792 5.155135,-5.25792 1.8983864,0 3.1525536,0.60574 3.1525536,0.60574 v -3.20396 c 0,0 -0.991241,-0.33406 -3.2608506,-0.33406 z m 4.8118888,0 v 3.12501 h 4.4025598 v 13.25541 h 3.6417266 v -13.25541 h 4.5016802 v -3.12501 z m -2.1338239,18.79142 c -1.3063209,0 -2.0952769,0.724 -2.0952769,1.66851 0,0.80352 0.601581,1.31501 1.522586,1.63455 0.6672487,0.23494 0.9297043,0.43238 0.9297043,0.7801 0,0.36183 -0.3003341,0.60207 -0.8783104,0.60207 -0.5356769,0 -1.0530149,-0.17387 -1.3913429,-0.34783 l -0.262484,1.04258 c 0.310134,0.17387 0.935027,0.33867 1.5693923,0.33867 1.5224676,0 2.2366152,-0.78952 2.2366152,-1.71992 0,-0.78003 -0.4607603,-1.29202 -1.438152,-1.65383 -0.7142488,-0.26785 -1.0288247,-0.42769 -1.0288247,-0.7801 0,-0.28665 0.2634768,-0.53598 0.8085598,-0.53598 0.5450759,0 0.939213,0.15522 1.1600658,0.26339 l 0.2817554,-1.01045 c -0.3289207,-0.15061 -0.7893293,-0.28176 -1.4142879,-0.28176 z m 6.8465907,0 c -1.6352419,0 -2.6973365,1.24037 -2.6973365,2.90383 0,1.57886 0.9636722,2.8194 2.6083126,2.8194 1.62114402,0 2.72487156,-1.10458 2.72487156,-2.9231 0,-1.53187 -0.93011993,-2.80546 -2.63584766,-2.80013 z m -21.8925746,0.0423 c -0.634353,0 -1.235542,0.0426 -1.696045,0.11739 h 0.0046 v 5.44605 c 0.314823,0.0376 0.775004,0.0799 1.423466,0.0799 1.085458,0 1.974243,-0.23003 2.556919,-0.71402 0.535675,-0.45111 0.920526,-1.18381 0.920526,-2.24579 0,-0.98209 -0.361825,-1.66401 -0.939801,-2.09161 -0.535676,-0.40411 -1.217077,-0.59196 -2.269654,-0.59196 z m 28.5748851,0.0377 v 3.73073 L 2.4867899,158.73532 H 1.0211064 v 5.53968 h 1.1508874 v -4.04463 l 2.1246473,4.04556 h 1.3151693 v -5.54519 z m -24.7587821,0.005 v 5.54519 h 1.259187 v -5.54519 z m 1.663007,0 1.775892,5.54519 h 1.471191 l 1.865834,-5.54519 h -1.335361 l -0.709439,2.36878 c -0.187951,0.63437 -0.361061,1.29218 -0.502022,1.95944 h -0.02387 c -0.131566,-0.69075 -0.305802,-1.32544 -0.493762,-1.98331 l -0.676398,-2.34491 z m 5.483698,0 v 5.54519 h 1.259186 v -5.54519 z m 6.3574193,0 v 5.54519 h 1.2601026 v -5.54519 z m 4.5438975,0.90218 c 0.8599075,0 1.3399498,0.85495 1.3399498,1.85114 0,1.07606 -0.4886239,1.8851 -1.3344442,1.8851 -0.836411,0 -1.3491264,-0.76659 -1.3491264,-1.85207 0,-1.07607 0.493103,-1.88417 1.3436208,-1.88417 z m -21.7328818,0.0192 c 1.076061,0 1.753183,0.61087 1.74377,1.76213 0,1.32513 -0.737854,1.94905 -1.875013,1.94017 -0.155062,0 -0.328791,5e-4 -0.43686,-0.0229 v -3.63256 c 0.108069,-0.0236 0.286163,-0.0469 0.568103,-0.0469 z" /><path
         id="circle145"
         style="clip-rule:evenodd;fill:#04984a;fill-rule:evenodd;stroke:none;stroke-width:0;stroke-dasharray:none"
         class="st0"
         d="m -31.810844,153.03544 a 14.097005,14.097005 0 0 1 -14.097005,14.09701 14.097005,14.097005 0 0 1 -14.097005,-14.09701 14.097005,14.097005 0 0 1 14.097005,-14.097 14.097005,14.097005 0 0 1 14.097005,14.097 z" /><path
         id="circle147"
         style="fill:#ffffff;fill-opacity:1;stroke:none;stroke-width:0;stroke-dasharray:none"
         class="st1"
         d="m -32.106844,153.03544 a 13.801005,13.801005 0 0 1 -13.801005,13.80101 13.801005,13.801005 0 0 1 -13.801006,-13.80101 13.801005,13.801005 0 0 1 13.801006,-13.801 13.801005,13.801005 0 0 1 13.801005,13.801 z" /><path
         id="path9742"
         style="font-variation-settings:normal;opacity:1;fill:#04984a;fill-opacity:1;fill-rule:evenodd;stroke-width:0.264583;stroke-linecap:butt;stroke-linejoin:miter;stroke-miterlimit:4;stroke-dasharray:none;stroke-dashoffset:0;stroke-opacity:1;stop-color:#000000;stop-opacity:1"
         d="m -45.70857,140.25995 v 0.002 c -0.364582,0.002 -0.697789,0.10553 -0.804602,0.13953 l 0.07751,0.32711 c 1.625858,-0.57155 1.64821,0.23849 1.63711,0.35502 -0.04995,-0.005 -0.0998,-0.009 -0.149345,-0.0134 -3.121341,-0.26925 -5.445748,0.76899 -5.549532,0.80719 -2.491501,0.93224 -4.017549,2.58572 -4.217314,2.79104 l 0.327629,0.34417 c -1.476036,-0.11653 -1.359721,1.24846 -1.343071,1.43712 0.05098,0.0333 0.09455,0.0433 0.131775,0.0393 0.0053,0 0.0104,-0.001 0.0155,-0.003 0.121473,-0.0276 0.170393,-0.21565 0.191203,-0.26975 0.02775,-0.0721 0.427539,-0.20555 0.349849,0.24392 l 0.294039,-0.006 0.466122,-1.32653 0.571541,0.58291 c -0.948882,0.16093 -0.616311,0.71025 -0.904854,1.09864 -0.22751,0.37731 -0.57703,0.089 -0.63252,-0.0331 l -0.02739,0.17725 c 0.301375,0.23083 0.518655,0.27143 0.680578,0.20463 0.01472,-0.006 0.02907,-0.0132 0.04289,-0.0212 0.08294,-0.0467 0.150139,-0.12331 0.206189,-0.21601 0.0093,-0.0154 0.01817,-0.0307 0.02687,-0.047 0.113662,-0.21189 0.178726,-0.48972 0.241846,-0.69711 0.08878,-0.28856 0.394189,-0.40506 0.643888,-0.31626 l 0.138493,-0.14418 -1.009757,-1.07694 1.120861,-0.95343 c -0.06659,0.44947 0.166419,0.59404 0.294039,0.60514 0.05723,0.005 0.10971,0.006 0.15813,0.004 0.03228,-0.001 0.06276,-0.005 0.09147,-0.009 0.387561,-0.0559 0.462369,-0.34122 0.560689,-0.47232 0.238593,-0.006 0.04422,0.42734 -0.0057,0.48834 -0.488308,0.58265 -1.420487,0.22764 -1.564762,0.15554 l -0.0832,0.1385 c 1.592558,0.5771 1.980779,-0.1608 2.002979,-0.2496 0.216405,-0.82128 -0.449598,-0.79898 -0.577226,-0.78238 -0.11653,0.66588 -0.566043,0.58289 -0.615983,0.47749 -0.03432,-0.0666 -0.04211,-0.13411 -0.03152,-0.20051 0.0018,-0.0111 0.004,-0.0221 0.0067,-0.0331 0.06901,-0.2747 0.438357,-0.52308 0.546737,-0.58808 0.183111,0.0832 0.793652,0.039 0.937927,0.0279 -0.183118,0.39949 0.11621,0.96565 0.17725,1.04335 l 0.194303,-0.0667 c -0.32739,-0.46612 -0.0224,-1.10459 0.05529,-1.19889 l -0.160713,-0.14418 c -0.349589,0.35514 -0.721441,0.25612 -0.871265,0.25012 -0.14982,-0.006 -0.133253,-0.0669 -0.06666,-0.11679 l 1.259872,-0.67128 0.54932,1.39268 0.288355,-0.13849 -0.521416,-1.36529 c 1.914409,-0.87123 4.51128,-0.95453 4.677751,-0.93793 0.17202,0.0111 0.105389,0.35533 0.0832,0.41083 -0.0111,-0.002 -0.0218,-0.004 -0.03256,-0.006 -0.161309,-0.0215 -0.284633,0.0619 -0.378271,0.0775 -0.218667,-0.26376 -0.418859,-0.32656 -0.586011,-0.30076 -0.01286,0.002 -0.02527,0.004 -0.03772,0.007 -0.224248,0.0537 -0.382572,0.26161 -0.435632,0.32711 l 0.254764,0.20516 c 0.355138,-0.59375 0.710738,-0.26097 0.760678,-0.17777 l -0.250114,0.21652 0.255281,0.18862 c 0.277451,-0.41066 0.483,-0.35506 0.56069,-0.31626 0.155364,0.0832 0.04972,0.48829 0.03307,0.63252 -0.416344,-0.37355 -1.138069,0.12411 -1.316715,0.007 -0.0036,-0.002 -0.0071,-0.005 -0.01034,-0.008 -0.0446,-0.0408 -0.04351,-0.13437 0.02325,-0.31523 l -0.166398,0.0558 c -0.0437,0.43495 0.127121,0.53975 0.371553,0.52865 0.04074,-0.002 0.08347,-0.007 0.127641,-0.0145 0.397555,-0.0656 0.907503,-0.31147 1.054199,-0.015 l 0.149862,-0.006 c 0.238608,-0.86565 -0.08862,-0.95472 -0.182934,-1.02682 0.16091,-0.061 0.116272,-0.29419 0.116272,-0.42736 0,0 0.383108,0.0169 0.666109,0.0336 l -0.166398,1.45934 0.28267,0.0222 0.172082,-1.43195 0.238745,0.0279 0.03359,-0.31057 -0.299723,-0.0279 c -0.159188,-0.68978 -0.680026,-0.85256 -1.148767,-0.84956 z m 2.408121,1.04025 -0.10542,0.31058 c 0.221961,-0.0111 1.720309,0.46095 1.720309,0.46095 l -0.05581,0.13849 -1.747697,-0.18293 0.05013,0.33848 c 1.082043,0.24415 1.215068,0.98216 1.242818,1.14308 l 0.111104,0.0109 0.638204,-1.3317 0.488342,0.22221 -0.68833,1.32033 0.283187,0.12248 0.643372,-1.31517 0.210839,0.0832 0.13901,-0.28887 c -1.337308,-0.66588 -2.763583,-0.98208 -2.930054,-1.03198 z m -4.97644,0.37517 v 5.2e-4 c -0.368401,0.004 -0.753353,0.30484 -0.844393,0.39584 l 0.310575,0.27182 c 0.03121,-0.0884 0.203838,-0.29877 0.284738,-0.36587 0.0054,-0.004 0.01049,-0.008 0.01499,-0.0114 0.0062,-0.004 0.0125,-0.009 0.0186,-0.0124 0.0061,-0.004 0.01167,-0.007 0.01757,-0.0109 0.368597,-0.2216 0.535084,0.10823 0.529684,0.16743 -0.04439,0.36069 -0.42137,0.58235 -0.49351,0.62115 -0.660335,0.35514 -1.40939,-0.29949 -1.564763,-0.43822 l -0.133325,0.0336 c 0.639699,0.95149 1.571156,0.79879 1.709457,0.75809 0.0044,-10e-4 0.0082,-0.003 0.01085,-0.004 0.88229,-0.31629 0.698748,-1.02636 0.659908,-1.09296 -0.139246,-0.23464 -0.32741,-0.31464 -0.520382,-0.31264 z m 6.419763,0.75344 -0.269234,0.47698 -0.0026,0.005 -0.0036,-0.004 c 0,0 -0.07611,-0.0969 -0.171049,-0.2036 -0.09494,-0.10672 -0.20905,-0.22329 -0.28267,-0.26149 l 0.0016,-0.007 z m 2.091345,0.17364 c -0.25136,0.004 -0.472457,0.15812 -0.51573,0.21807 -0.271897,0.38288 -1.55e-4,0.6548 0.09974,0.7214 0.128321,0.0902 0.327979,0.12193 0.484208,0.12093 0.0078,-6e-5 0.01565,-3e-4 0.02325,-5.2e-4 0.08337,-0.002 0.151705,-0.0144 0.186035,-0.0315 0.0078,-0.004 0.01534,-0.008 0.02274,-0.0119 0.03725,-0.02 0.0703,-0.0414 0.09922,-0.0636 0.01157,-0.009 0.02274,-0.0179 0.03307,-0.0269 0.03617,-0.0319 0.06473,-0.0658 0.08733,-0.10025 0.0032,-0.005 0.0063,-0.009 0.0093,-0.0145 0.006,-0.01 0.01154,-0.02 0.01654,-0.03 0.0025,-0.005 0.005,-0.01 0.0072,-0.015 0.0046,-0.01 0.0087,-0.0199 0.0124,-0.03 0.0018,-0.005 0.0035,-0.0105 0.0052,-0.0155 0.0687,-0.21124 -0.04166,-0.42197 -0.0708,-0.45837 -0.147389,-0.19721 -0.323535,-0.2623 -0.487825,-0.26251 -0.004,-1e-5 -0.0079,-7e-5 -0.01189,0 z m -0.0088,0.28112 c 0.0063,-1.4e-4 0.01232,3e-5 0.0186,0 0.166728,-0.001 0.344874,0.0346 0.445451,0.14779 0.04439,0.0444 0.144249,0.30566 -0.255282,0.37776 -0.133176,0.0222 -0.316372,0.0442 -0.532784,-0.0501 -0.244153,-0.10543 -0.116334,-0.32742 -0.05529,-0.38292 0.01176,-0.0353 0.185528,-0.0883 0.379305,-0.0925 z m 1.074353,0.49764 -0.199987,0.21652 c 0,0 1.736938,1.50353 1.825728,1.62006 l -0.38809,0.2775 c -0.155372,-0.68807 -0.638463,-0.64357 -0.754993,-0.67127 -0.166471,-0.84901 -0.665852,-0.82681 -0.782381,-0.80461 -0.516055,0.10543 -0.499556,0.52136 -0.471806,0.62115 0.08324,0.32739 0.504942,0.44391 0.676962,0.44391 l -0.0052,-0.31058 c -0.416181,-0.0104 -0.500671,-0.18157 -0.514181,-0.25787 -9e-4,-0.005 -0.0017,-0.01 -0.0021,-0.0139 -0.0043,-0.0503 0.0054,-0.0902 0.02532,-0.12144 0.004,-0.006 0.0087,-0.0116 0.01344,-0.0176 0.124284,-0.14475 0.503592,-0.0661 0.593762,-0.0165 0.399527,0.21086 0.355378,0.73272 0.327628,0.92139 0.588198,-0.23861 0.821139,0.18849 0.821139,0.31057 l -0.710034,0.56586 0.188619,0.23874 1.18184,-0.94309 0.327112,0.42685 -1.204061,0.8325 0.166398,0.25529 1.248502,-0.83768 0.499711,0.74879 c -0.699173,-0.22751 -1.076606,0.11108 -1.126546,0.17208 -0.42727,0.53826 0.0224,0.95459 0.177767,1.06557 l 0.09974,-0.28887 c -0.04231,-0.0146 -0.07861,-0.0313 -0.110071,-0.0496 -0.01574,-0.009 -0.03062,-0.0184 -0.04393,-0.0284 -0.173003,-0.12807 -0.149043,-0.30912 -0.140043,-0.37672 0.06659,-0.41615 0.649044,-0.33305 0.754476,-0.32195 0.349584,0.0333 0.77682,0.51599 0.887801,0.63252 l -0.998906,0.44959 0.02222,0.42736 c 0.305197,0.13318 0.638513,0.51591 0.799435,0.67128 -0.504962,0.0444 -0.70488,0.20549 -0.832508,0.28319 l 0.06666,0.13281 c 0.09052,-0.0656 0.177729,-0.10781 0.260449,-0.13281 0.01379,-0.004 0.02729,-0.008 0.04083,-0.0109 0.338275,-0.0808 0.595223,0.12234 0.686263,0.18294 l 0.139009,-0.5054 c -0.105432,-0.22196 -0.688289,-0.73233 -0.771529,-0.82113 l 0.715719,-0.34934 c 0.299643,0.47722 0.7771,1.97516 0.79375,2.06396 0.194211,1.03767 -0.37758,0.88778 -0.45527,0.86558 -0.227513,-0.061 -0.155143,-0.55477 -0.138493,-0.6935 l -0.388606,-0.0108 c -0.03884,0.5771 0.227538,0.75449 0.488342,0.88212 -0.40508,0.38843 -0.171989,0.78265 -0.0832,0.87695 l 0.305408,-0.21084 c -0.166472,-0.17202 -0.149862,-0.29997 -0.149862,-0.37207 0.0055,-0.31629 0.299661,-0.14966 0.360701,-0.12196 0.244157,0.12763 0.238477,0.48272 0.227377,0.54932 -0.07214,0.42199 -0.460644,0.41599 -0.532784,0.41599 -0.07769,0 -0.732255,0.0114 -0.732255,0.0114 v 0.33848 l 1.470194,-0.0558 v 0.30541 l 0.332796,-0.0109 -0.03307,-0.62167 -0.516247,0.0165 c 0.588192,-0.67698 -0.09428,-1.17083 -0.188619,-1.27073 0.443917,-0.46052 0.338729,-0.78812 0.327629,-0.85472 -0.0437,-0.3163 -0.170232,-0.71498 -0.312643,-1.09399 -0.02374,-0.0632 -0.04803,-0.12599 -0.07235,-0.18759 -0.218834,-0.55424 -0.448444,-1.02497 -0.464054,-1.06557 -0.416178,-0.98218 -1.481615,-2.24695 -1.526005,-2.31355 -0.749119,-0.99328 -2.202967,-2.05879 -2.202967,-2.05879 z m -1.892391,0.1943 -0.188619,0.26614 c 0.09433,0.061 0.832446,0.54384 0.893486,1.0821 l 0.09974,-0.16071 c -0.116524,-0.43837 -0.715812,-1.08763 -0.804602,-1.18753 z m -14.116451,1.64435 c 0.01801,0 0.03639,0.002 0.05529,0.004 l -0.227376,0.75448 c -0.0055,0.0333 -0.07795,0.15011 -0.116789,0.0558 -0.03884,-0.0943 -0.249287,-0.10013 -0.321427,-0.0501 -0.04439,0.0333 -0.111084,0.0332 -0.08888,-0.0889 0.02602,-0.11445 0.134589,-0.65318 0.646472,-0.67438 0.01706,-7e-4 0.0347,-0.001 0.05271,-5.2e-4 z m -1.781286,1.66811 -0.327629,0.55552 0.288871,0.19999 c -0.88784,0.51606 -0.821221,1.25393 -0.782381,1.37046 0.191441,0.59023 0.485632,0.67873 0.663009,0.66973 0.0077,0 0.01544,-0.001 0.02274,-0.002 0.02175,-0.002 0.04145,-0.006 0.05839,-0.0103 0.0056,-0.001 0.01102,-0.003 0.01602,-0.004 0.005,-0.001 0.0097,-0.003 0.01395,-0.004 0.0044,-10e-4 0.0087,-0.003 0.0124,-0.004 0.0074,-0.003 0.01359,-0.005 0.01809,-0.007 0.07248,-0.0343 0.130931,-0.0819 0.178801,-0.13798 0.0044,-0.005 0.0087,-0.0105 0.01292,-0.0155 0.216905,-0.27221 0.193055,-0.72756 0.202055,-0.88987 l -0.377238,-0.006 c 0.01092,0.0276 0.01979,0.0567 0.02739,0.0868 v 5.2e-4 c 0.0025,0.01 0.0051,0.0199 0.0072,0.03 v 5.2e-4 c 0.0022,0.0101 0.0044,0.0202 0.0062,0.0305 v 5.1e-4 c 0.0018,0.0103 0.0036,0.0206 0.0052,0.031 v 5.1e-4 c 0.0015,0.0104 0.0029,0.021 0.0041,0.0315 v 5.1e-4 c 0.0012,0.0105 0.0022,0.0209 0.0031,0.0315 v 5.1e-4 c 9e-4,0.0104 0.0019,0.0211 0.0026,0.0315 v 5.1e-4 c 7.12e-4,0.0105 0.0011,0.0211 0.0016,0.0315 1.4e-5,3.1e-4 -1.4e-5,7.1e-4 0,0.001 3.79e-4,0.0105 8.83e-4,0.0206 0.001,0.031 10e-6,0 -9e-6,10e-4 0,0.002 1.7e-4,0.0103 5.56e-4,0.0208 5.17e-4,0.031 v 5.1e-4 0.001 c -4.9e-5,0.0102 -2.72e-4,0.0204 -5.17e-4,0.0305 -1.2e-5,0 1.3e-5,10e-4 0,0.002 -2.21e-4,0.0101 -6.29e-4,0.02 -0.001,0.03 -2.2e-5,0 2.2e-5,0.001 0,0.002 -5e-4,0.01 -0.0015,0.0195 -0.0021,0.0295 -4.2e-5,0.001 4.2e-5,0.001 0,0.002 -7e-4,0.01 -0.0013,0.0199 -0.0021,0.0289 -5.4e-5,0.001 5.4e-5,0.001 0,0.002 -8e-4,0.009 -0.0017,0.0184 -0.0026,0.0274 -8.3e-5,0.001 8.4e-5,0.002 0,0.003 -9e-4,0.009 -0.0021,0.0184 -0.0031,0.0274 -7.9e-5,0.001 8e-5,5.5e-4 0,0.002 -0.01476,0.12367 -0.04158,0.22314 -0.06459,0.25994 -0.0017,0.003 -0.0035,0.005 -0.0052,0.007 -0.260805,0.28856 -0.372091,0.0393 -0.394291,-0.0439 -0.316295,-0.99327 0.43861,-1.44287 0.560689,-1.50947 0.11965,-0.0675 0.185681,-0.0141 0.234611,-0.002 0.0033,0.001 0.0062,0.002 0.0093,0.002 l 0.849044,0.47697 0.172082,-0.29972 -1.281575,-0.72141 0.160713,-0.28783 z m -1.221114,2.71922 -0.17725,0.63768 0.310575,0.0496 c -1.09315,1.19305 -0.16073,1.95912 -0.05529,2.02572 0.04058,0.0245 0.07489,0.0325 0.10387,0.0305 0.0064,0 0.0127,-5.9e-4 0.0186,-0.003 0.02073,-0.006 0.03829,-0.0183 0.05323,-0.0356 0.0021,-0.002 0.0042,-0.005 0.0062,-0.008 0.09113,-0.12043 0.07372,-0.43665 0.06201,-0.52245 -0.02224,-0.11653 -0.02764,-0.29945 -0.01654,-0.37155 0.07769,-0.37179 0.255065,-0.23335 0.288355,-0.18345 0.0021,0.003 0.005,0.007 0.0083,0.0109 0.0032,0.004 0.0067,0.008 0.01085,0.0134 0.02526,0.0301 0.06742,0.0786 0.109554,0.154 0.0035,0.006 0.0068,0.0126 0.01034,0.0196 0.0526,0.1 0.103746,0.24307 0.121956,0.44596 l 0.255281,-0.17776 c -0.03329,-0.28855 -0.227314,-0.638 -0.288354,-0.6935 -0.280052,-0.26358 -0.442969,-0.089 -0.545186,0.13591 -0.0054,0.0118 -0.0105,0.0237 -0.0155,0.0357 -0.04043,0.0965 -0.07079,0.19836 -0.09509,0.27646 -0.0061,0.0195 -0.01165,0.0376 -0.01705,0.0537 -0.0054,0.0161 -0.0106,0.0301 -0.0155,0.0419 -0.01942,0.0458 -0.03991,0.0679 -0.06046,0.0739 -0.0026,0.001 -0.0052,0.002 -0.0078,0.002 -0.05882,0.007 -0.11413,-0.10621 -0.12609,-0.14211 -0.101964,-0.38601 0.01396,-0.66696 0.150895,-0.85835 0.0065,-0.009 0.01304,-0.0179 0.01964,-0.0269 0.0066,-0.009 0.01304,-0.0173 0.01964,-0.0253 0.0066,-0.008 0.01355,-0.0168 0.02015,-0.0248 0.05297,-0.0634 0.10498,-0.11365 0.14521,-0.15245 l 1.253671,0.29404 0.111104,-0.34985 -1.431437,-0.37724 0.07183,-0.23306 z m 5.377449,11.80289 -0.189135,0.19431 0.139009,0.1664 c -0.03884,0.0555 -0.03863,0.18839 0.07235,0.22169 0.105431,0.0333 0.415882,0.3496 0.432532,0.4439 0.06659,0.36625 -0.277606,0.41645 -0.366386,0.43305 -0.06381,0.016 -0.250569,2.6e-4 -0.311609,-0.154 -0.0027,-0.007 -0.0051,-0.0137 -0.0072,-0.0207 -0.01722,-0.0579 -0.01812,-0.13338 0.0083,-0.23048 l -0.194304,-0.0222 c -0.02497,0.66311 0.274912,0.79452 0.639754,0.78652 0.0228,0 0.046,-0.002 0.06925,-0.003 0.06975,-0.005 0.14091,-0.0131 0.21239,-0.0233 0.09531,-0.0135 0.190853,-0.0297 0.282153,-0.0424 0.182598,-0.0253 0.348722,-0.0369 0.466639,0.0145 0.321832,0.14982 0.266485,0.45533 0.238745,0.52193 l -0.299724,0.49919 0.355534,0.15555 0.593246,-1.31517 c 1.009917,0.47722 2.186763,0.61059 2.369881,0.64389 l -0.02222,0.14418 -1.903243,-0.0388 -0.01705,0.37724 c 1.098702,0.0333 1.714678,0.90984 1.759065,0.98754 l 0.271818,0.0387 0.222209,-1.43143 c 1.087604,0.17203 2.319547,0.0775 2.480469,0.0553 l 0.01654,0.11111 c 0,0 -1.631562,0.47153 -1.87017,0.54363 l 0.177767,0.28887 c 1.148643,-0.19421 1.714728,0.41058 1.803508,0.50488 l 0.332796,-0.0388 -0.07235,-1.05419 c 0.28855,-0.1332 0.738126,-0.10022 0.788066,-0.0558 0.04994,0.0444 0.311112,0.31649 -0.36587,0.36639 l 0.127641,0.30489 c 0.688073,-0.18867 0.504558,-0.62708 0.449068,-0.69918 -0.238602,-0.28858 -0.832028,-0.22738 -0.981852,-0.22738 v -0.094 c 0.715818,-0.0777 1.165281,-0.23318 1.376144,-0.28318 l 0.393774,1.42058 0.327629,-0.0997 -0.388607,-1.38751 c 0.943328,-0.23861 2.069753,-0.84906 2.286165,-0.97668 l 0.05013,0.0946 -1.542541,1.19837 0.310575,0.23306 c 0.51606,-0.54381 1.897621,-0.36609 2.069641,-0.33279 l 0.127641,-0.11679 -0.732255,-1.2206 0.299723,-0.19999 -0.177767,-0.23823 c -2.030931,1.46494 -4.805429,1.65367 -4.955253,1.67587 -1.992089,0.24415 -4.084383,-0.47753 -4.206461,-0.52193 -1.548173,-0.48832 -2.851744,-1.49241 -2.946074,-1.59784 z m 0.593762,0.84905 c 0,0 1.042968,0.57127 1.281576,0.64337 l -0.21084,0.4439 c -0.199765,-0.11098 -0.138616,-0.73778 -1.054199,-0.60461 z m 11.269597,0.5488 0.327628,0.51677 c 0,0 -0.604801,-0.0614 -0.887801,-0.006 z m -0.0615,0.94258 c -0.162244,0.007 -0.377823,0.10815 -0.465088,0.15245 -0.0082,0.004 -0.01539,0.008 -0.02119,0.0109 -0.01159,0.006 -0.01809,0.01 -0.01809,0.01 l 0.05581,0.20515 c 0.138726,-0.12208 0.543636,-0.17208 0.543636,-0.17208 l 0.0057,-0.19379 c -0.003,-0.001 -0.0062,-0.002 -0.0093,-0.003 -0.0016,0 -0.0036,-5.5e-4 -0.0052,-0.002 -0.0064,-0.002 -0.01294,-0.003 -0.01964,-0.004 -0.0017,-2.8e-4 -0.0035,-2.7e-4 -0.0052,-5.2e-4 -0.01709,-0.002 -0.03478,-0.004 -0.05374,-0.003 -0.0025,6e-5 -0.0052,-1.1e-4 -0.0078,0 z m -8.183997,0.43408 h 0.810287 l -0.100253,0.57671 c 0,0 -0.371544,-0.44908 -0.710034,-0.57671 z m 3.728972,0.0553 0.04961,0.7214 c -0.122078,-0.0666 -0.526929,-0.43301 -0.837675,-0.47181 z m -4.261756,0.3824 v 0.001 l -0.03876,0.23307 c 0.17202,0.0166 0.415954,0.21633 0.499194,0.29403 l 0.08888,-0.1943 c -0.02185,-0.0279 -0.04429,-0.0532 -0.06718,-0.0765 -0.0033,-0.003 -0.0065,-0.007 -0.0098,-0.0103 -0.0033,-0.003 -0.0065,-0.007 -0.0098,-0.0103 -0.0033,-0.003 -0.0065,-0.006 -0.0098,-0.009 -0.178726,-0.16499 -0.373096,-0.20449 -0.452686,-0.22789 z" /><path
         id="path10490"
         style="font-variation-settings:normal;opacity:1;fill:#ec2227;fill-opacity:1;fill-rule:evenodd;stroke-width:0.264583;stroke-linecap:butt;stroke-linejoin:miter;stroke-miterlimit:4;stroke-dasharray:none;stroke-dashoffset:0;stroke-opacity:1;stop-color:#000000;stop-opacity:1"
         d="m -57.028293,155.4151 -0.306441,0.72864 -0.791166,-0.0946 0.599446,0.51677 -0.327111,0.69608 0.666109,-0.38603 0.577742,0.53279 -0.184485,-0.77412 0.708484,-0.3824 -0.796334,-0.0558 z m 21.964551,0 -0.146761,0.78135 -0.796334,0.0558 0.708484,0.3824 -0.184485,0.77412 0.578259,-0.53279 0.66611,0.38603 -0.327629,-0.69608 0.599963,-0.51677 -0.791166,0.0946 z m -20.276282,3.55327 -0.285254,0.71986 -0.800468,-0.0744 0.618567,0.50953 -0.345715,0.72244 0.685746,-0.42737 0.585494,0.52038 -0.188619,-0.76481 0.690914,-0.3824 -0.810286,-0.0548 z m 18.588013,0 -0.150895,0.76843 -0.80977,0.0548 0.690397,0.3824 -0.188102,0.76481 0.584977,-0.52038 0.686263,0.42737 -0.345715,-0.72244 0.61805,-0.50953 -0.800468,0.0744 z" /><path
         id="circle255"
         style="clip-rule:evenodd;display:inline;fill:#ec2227;fill-rule:evenodd;stroke-width:0.0564377"
         class="st3"
         d="m -36.482749,153.03546 a 9.4251041,9.4251041 0 0 1 -9.425104,9.4251 9.4251041,9.4251041 0 0 1 -9.425104,-9.4251 9.4251041,9.4251041 0 0 1 9.425104,-9.42511 9.4251041,9.4251041 0 0 1 9.425104,9.42511 z" /><path
         id="path10574"
         style="font-variation-settings:normal;opacity:1;fill:#fcee23;fill-opacity:1;fill-rule:evenodd;stroke-width:0.281654;stroke-linecap:butt;stroke-linejoin:miter;stroke-miterlimit:4;stroke-dasharray:none;stroke-dashoffset:0;stroke-opacity:1;stop-color:#000000;stop-opacity:1"
         d="m -49.961024,146.55208 c -0.05431,-0.002 -0.115926,0.11326 -0.137976,0.15296 -0.03801,0.0597 -0.0977,0.19553 -0.04341,0.24443 0.05429,0.0544 0.157321,-1.5e-4 0.217041,0.0109 0.04886,0.0163 0.162788,0.0431 0.151928,0.11369 -0.02713,0.006 -0.08682,-0.0108 -0.07596,0.0326 0.01086,0.0326 0.09227,0.0547 0.09767,0.0873 0.04343,0.1629 -0.184187,0.0379 -0.265617,0.0651 -0.02714,0.0108 -0.05476,0.0594 -0.07648,0.0811 -0.02714,0.0271 -0.05967,0.0491 -0.07597,0.0816 -0.0054,0.0163 -0.0052,0.0271 -0.01602,0.0434 -0.0163,0.0218 -0.0163,0.0215 -0.0217,0.0486 0,0.0108 0.016,0.0325 0.0052,0.0434 -0.01629,0.0326 -0.08112,0 -0.102836,0 -0.04343,0 -0.08137,0.0437 -0.119373,0.06 -0.03258,0.0162 -0.04882,0.0162 -0.06511,0.0434 -0.0054,0.0217 0.01035,0.038 -0.02222,0.0543 -0.03257,0.0163 -0.08138,0.005 -0.09767,0.0326 -0.02172,0.0543 0.05425,0.0759 0.08682,0.0868 l 0.02739,0.005 c 0.038,0.0163 0.01629,0.0379 -0.01085,0.0651 -0.02171,0.0217 -0.05424,0.0323 -0.07596,0.0486 -0.01628,0.0108 -0.06536,0.0271 -0.08165,0.0434 -0.0054,0.0162 -0.01062,0.0271 -0.01602,0.0434 -0.01086,0.0163 -0.03284,0.0165 -0.03824,0.0382 -0.01086,0.0543 0.05426,0.0431 0.05426,0.0811 0.0054,0.0326 -0.07597,0.0385 -0.06511,0.0765 0.0054,0.0434 0.01114,0.0759 0.01654,0.10852 0.0054,0.0434 0.01084,0.0651 0.04341,0.0977 0.02714,0.0271 0.08137,0.076 0.119372,0.076 0.01086,-0.005 0.02686,-0.0167 0.04858,-0.0217 0.01629,0 0.02764,0.0152 0.05478,0.005 0.03257,-0.0163 0.0271,-0.0703 0.07597,-0.0486 0.038,0.0217 0.05399,0.0865 0.08113,0.12454 0.02715,0.0543 0.05423,0.11416 0.10852,0.14676 0.04886,0.0434 0.119359,0.0162 0.151929,0.0651 0.02172,0.0326 0.06564,0.0871 0.05478,0.12506 -0.04343,-0.0109 -0.04368,0.0488 -0.01654,0.0651 0.03799,0.0217 0.09248,0.005 0.114205,0.0543 0.01628,0.0272 -0.0055,0.0653 0.04341,0.0925 0.04343,0.0224 0.103068,2.9e-4 0.151928,0.0274 0.04343,0.0217 0.07026,0.0762 0.113688,0.0925 0.06515,0.0217 0.09816,-0.0322 0.141594,-0.0594 0.02714,-0.0163 0.02144,-0.0169 0.04858,0.005 0.01629,0.0163 0.02712,0.0434 0.05426,0.0434 0.06515,0.0109 -0.0052,-0.0543 0.01654,-0.076 0.02714,-0.0326 0.07053,0.0326 0.08682,0.0543 0.02172,0.0325 0.03229,0.0702 0.05943,0.10283 0.05972,0.076 -0.113724,0.0925 -0.03772,0.19017 0.01628,0.0217 0.04339,0.0326 0.06511,0.0543 0.01629,0.0217 0.02712,0.0651 0.05426,0.076 0.038,0.0164 0.07594,-0.01 0.119373,-0.005 0.02172,0.005 0.04882,0.0219 0.06511,0.0382 0.03257,0.038 0.01087,0.0976 -0.0217,0.13022 -0.03257,0.0325 -0.04341,0.0327 -0.04341,0.0816 0,0.0326 -0.0328,0.0818 -0.0708,0.0868 -0.02172,0.0109 -0.04882,0.005 -0.06511,0 -0.04343,-0.005 -0.06511,-0.006 -0.06511,-0.0382 -0.0054,-0.0381 -0.01625,-0.0495 -0.07597,0.005 -0.04343,0.0325 -0.04881,0.0379 -0.09767,0.0109 -0.038,-0.0163 -0.09222,-0.0762 -0.141077,-0.0599 -0.01629,0.0109 -0.02195,0.0498 -0.04909,0.0548 -0.01086,0 -0.02686,-0.005 -0.03772,-0.016 -0.03257,-0.0163 -0.0271,-0.0598 -0.07596,-0.0548 -0.038,0.038 -0.10849,0.1626 -0.16278,0.0594 -0.03258,-0.0543 -0.03252,-0.071 -0.108521,-0.076 -0.03258,-0.006 -0.07078,-0.0109 -0.103353,0.005 -0.09229,0.0489 -0.01086,0.15212 0,0.22272 0.0054,0.0489 -0.01084,0.11393 -0.03256,0.15193 -0.02715,0.0434 -0.05966,0.0651 -0.05426,0.11937 0.0054,0.0271 0.02173,0.0861 -0.03256,0.0811 -0.01627,-0.005 -0.08162,-0.0757 -0.114205,-0.0377 -0.0108,0.0163 0.03286,0.0594 -0.0052,0.0811 -0.02714,0.0163 -0.07078,-0.0217 -0.0925,0 0.02172,0.0326 0.09223,0.0493 0.108521,0.0873 0.01629,0.0436 -0.01058,0.0536 -0.04858,0.0486 -0.06514,-0.0217 -0.108491,-0.0651 -0.162781,-0.10852 -0.04343,-0.0326 -0.06534,-0.092 -0.125057,-0.092 -0.05972,-0.005 -0.179352,0.038 -0.103352,0.0977 0.03257,0.0326 0.08142,0.0488 0.08682,0.0977 0,0.0651 -0.06509,0.0434 -0.108521,0.0651 -0.03257,0.0217 -0.05968,0.0434 -0.08682,0.076 -0.038,0.0435 -0.05425,0.0922 -0.08682,0.14108 -0.02171,0.038 -0.03796,0.0651 -0.07596,0.0868 -0.02714,0.0217 -0.07028,0.0217 -0.07028,0.0651 0,0.0326 0.03771,0.0597 0.05943,0.076 0.03801,0.0271 0.06511,0.0488 0.06511,0.0977 0.0054,0.0325 0.02712,0.0705 0.05426,0.0977 0.02171,0.0272 0.01652,0.0491 0.03824,0.0708 0.02171,0.0217 0.04856,0.0432 0.07028,0.0703 0.08143,0.114 0.217515,0.16321 0.304374,0.25011 0.05429,0.0597 0.135357,0.0866 0.211357,0.11369 0.103147,0.0326 0.21183,-0.005 0.29869,0.0491 0.038,0.0271 0.03795,0.0384 0.09767,0.0434 0.04886,0 0.09248,0.0102 0.135909,0.005 0.02714,-0.005 0.05399,-0.005 0.08113,0 0.07057,0.0109 0.11449,0.0865 0.11989,0.15709 0.0054,0.0706 0.04864,0.25524 -0.08165,0.26614 -0.02714,0.005 -0.09794,-0.016 -0.08165,0.0274 0.0054,0.0163 0.07621,0.038 0.0925,0.0543 0.02179,0.0217 0.01653,0.0214 0.02739,0.0486 0.0054,0.0271 0.02688,0.0653 0.01602,0.10335 -0.0054,0.0163 -0.0217,0.0217 -0.0217,0.0434 0,0.0163 0.01652,0.0434 0.03824,0.0543 0.0054,0.0271 -0.04908,0.0816 -0.05994,0.11421 -0.02172,0.0489 -0.03278,0.0974 -0.0925,0.11369 -0.04343,0.01 -0.124518,0.0163 -0.167948,0.005 -0.0597,-0.0217 -0.146535,-0.0488 -0.07596,0.0326 0.02715,0.0326 0.07029,0.0596 0.05943,0.10852 -0.02172,0.0652 -0.09196,0.006 -0.135392,0.0491 0,0.0489 0.07595,0.0271 0.09767,0.0651 0.01085,0.0217 -2.46e-4,0.0543 -0.01654,0.076 -0.02714,0.0217 -0.05941,0.0326 -0.08113,0.0543 -0.01628,0.0217 -0.02738,0.0489 -0.03824,0.076 -0.01628,0.0326 -0.05403,0.15188 0.01654,0.16278 0.05972,0.005 0.0051,-0.16817 0.05943,-0.14107 0.02714,0.0218 0.04911,0.0542 0.02739,0.0868 -0.01094,0.0163 -0.02194,0.0437 -0.01654,0.06 0.01629,0.0163 0.02712,-0.0224 0.05426,-0.0274 0.038,-0.005 0.07621,0.0274 0.0925,0.0491 0,0.0272 -2.7e-4,0.0545 0.01602,0.0708 0.01629,0.0217 0.08164,0.0272 0.0925,0.0543 0.02172,0.0543 -0.08686,0.0756 0.0217,0.10284 0.02714,0.005 0.06536,0.0109 0.0925,0 0.038,-0.0109 0.03254,-0.0434 0.05426,-0.0651 0.04343,-0.0379 0.05966,0.0325 0.05426,0.0651 -0.0054,0.0434 -0.04908,0.0923 -0.08165,0.11937 -0.03257,0.0163 -0.03229,0.0108 -0.04858,0.0434 0,0.0217 0.01087,0.0217 -0.01085,0.0434 -0.02714,0.0271 -0.09252,0.0217 -0.0708,0.076 0.01086,0.0217 0.135699,0.0982 0.04341,0.10904 -0.038,0.006 -0.08706,-0.0814 -0.125057,-0.0434 -0.0163,0.0162 -0.0052,0.0865 0.0057,0.10283 0.038,0.038 0.07568,0.0491 0.12454,0.0708 0.038,0.0109 0.06561,0.0377 0.08733,0.0703 0.03258,0.0433 0.05943,0.0543 0.05943,-0.0109 0,-0.0543 2.15e-4,-0.0923 0.05995,-0.0434 0.02714,0.0271 0.03796,0.0816 0.08682,0.06 0.03258,-0.0162 0.02711,-0.0491 0.06511,-0.0274 0.03257,0.0217 0.04339,0.076 0.07596,0.0977 0.02714,0.0163 0.04858,-0.005 0.04858,0.0274 0,0.081 -0.06484,0.071 -0.102836,0.076 -0.04886,0.0109 -0.07078,0.0491 -0.0925,0.0925 -0.02714,0.0435 -0.02147,0.0811 -0.02687,0.12454 0,0.0218 8e-6,0.0328 -0.01085,0.0491 -0.01085,0.0163 -0.02199,0.0109 -0.02739,0.0326 -0.01086,0.038 0.02738,0.10876 0.03824,0.14676 0.02172,0.0434 0.05943,0.0757 0.05943,0.11369 0,0.0217 -0.01086,0.0326 0,0.0543 0.01086,0.0162 0.04908,0.0271 0.05994,0.0434 0.02714,0.0272 0.08136,0.071 0.07596,0.10903 -0.01086,0.038 -0.05968,0.0703 -0.08682,0.092 -0.02172,0.0163 -0.0814,0.038 -0.06511,0.076 0.01085,0.0218 0.05399,0.0328 0.07028,0.0491 0.03258,0.0272 0.01625,0.0486 0.01085,0.0703 -0.01092,0.0597 -0.04316,0.071 -0.01602,0.11989 0.01628,0.0271 0.01601,0.0488 0.02687,0.076 0.01086,0.0272 0.02172,0.0326 0,0.0543 -0.0054,0.0218 -0.03801,0.0215 -0.04341,0.0486 0,0.0272 0.05967,0.0656 0.07597,0.0873 0.03259,0.0543 0.03825,0.10279 0.02739,0.15709 -0.01086,0.0434 -0.04881,0.0868 -0.04341,0.13023 0.0054,0.0489 0.05971,0.0708 0.06511,0.1142 0,0.0489 -0.04365,0.0491 -0.05994,0.0925 -0.01086,0.0325 0.0217,0.0757 0.03256,0.10284 0.02714,0.0489 0.103345,0.0708 0.114205,0.12506 0.01086,0.0325 -0.02714,0.0648 0,0.10283 0.05972,0.0543 0.03257,0.0488 0.01085,0.0977 -0.01629,0.027 -0.05426,0.049 -0.05426,0.0816 0,0.0326 0.07625,0.0599 0.08165,0.0925 0.0054,0.0217 -0.02195,0.0543 -0.03824,0.076 -0.03258,0.038 -0.103385,0.0325 -0.05994,0.10852 0.02714,0.0488 0.05451,0.0651 0.0708,0.11937 0.02716,0.0706 -0.0054,0.15189 0.03256,0.22789 0.02715,0.0489 0.01625,0.0708 0.01085,0.12506 0,0.0108 -0.022,0.0325 0.0052,0.0434 0.01629,0.005 0.03823,-0.0108 0.04909,-0.0217 0.02172,-0.0325 0.03281,-0.0708 0.05994,-0.10335 0.02714,-0.038 0.04312,-0.076 0.03772,-0.11937 -0.0054,-0.0543 -0.03228,-0.0706 -0.07028,-0.0977 -0.04343,-0.0217 -0.04368,-0.0488 -0.02739,-0.0977 0.01086,-0.0326 0.0217,-0.0651 0.0217,-0.10852 0.0054,-0.038 -0.01603,-0.10331 0.01654,-0.13591 0.05429,0.0326 0.01082,0.0925 0.08682,0.12506 0.03257,0.0217 0.07053,0.0324 0.08682,-0.0165 0.01629,-0.0489 -0.07081,-0.10852 -0.04909,-0.13022 0.02714,-0.0326 0.113973,0.0272 0.119373,0.0543 0.01086,0.0435 -0.0271,0.0977 -0.0217,0.14107 0,0.0163 2.85e-4,0.0217 0.0057,0.0326 0,0.005 0.06511,0.006 0.06511,0.0165 -0.0054,0.0217 -0.05994,0.0108 -0.0708,0.0217 -0.02714,0.0325 -0.02714,0.0485 0,0.0811 0.04343,0.0434 0.09249,0.0328 0.103353,0.0925 0.0054,0.0217 -0.022,0.22798 0.03772,0.14108 0.02171,-0.0217 0.02195,-0.054 0.03824,-0.0811 0.01086,-0.0163 0.03773,-0.0274 0.04857,-0.0491 0.01628,-0.038 -0.03797,-0.0708 -0.05426,-0.10335 -0.01629,-0.038 -0.02691,-0.16282 0.03824,-0.13022 0.02177,0.005 0.02687,0.0762 0.02687,0.0925 0.01085,0.0272 0.01135,0.0597 0.03307,0.0868 0.01628,0.0272 0.02716,0.0271 0.03256,0.0651 0.0054,0.0217 0.01057,0.0597 0.0052,0.076 -0.01086,0.0489 -0.0545,0.0816 -0.0925,0.10335 -0.01628,0.0163 -0.03256,-1.4e-4 -0.03256,0.0326 0,0.0326 0.0328,0.0434 0.04909,0.0543 -0.01629,0.0435 0.02716,0.0596 0.03256,0.0868 0.01629,0.0543 -4.3e-5,0.0925 0.08682,0.0708 0.02172,-0.005 0.0328,-0.0109 0.04909,-0.0326 0.01629,-0.0163 0.03254,-0.0219 0.05426,-0.0382 0.04343,-0.0217 0.02688,-0.0597 0.01602,-0.0977 -0.0055,-0.038 0.0057,-0.0703 0.0057,-0.11369 0,-0.0489 -0.02169,-0.0816 -0.04341,-0.12506 -0.01086,-0.0326 -0.02174,-0.1359 0.04341,-0.0925 0.02714,0.0163 0.02168,0.11942 0.07597,0.0868 0.03258,-0.0163 0.03256,-0.10279 0.0217,-0.13539 -0.0054,-0.038 -0.0328,-0.0708 -0.04909,-0.11421 -0.02171,-0.0652 0.03799,-0.0648 0.0217,-0.12454 -0.0054,-0.0434 -0.05425,-0.0653 -0.06511,-0.10335 -0.0054,-0.038 0.0111,-0.0434 0.02739,-0.0651 0.01625,-0.0217 -8e-6,-0.0434 0.01085,-0.0651 0.02172,-0.0433 0.07026,-0.0325 0.09198,0.0109 0.02714,0.0489 2.48e-4,0.0922 0.02739,0.14107 0.02172,0.038 0.02142,0.0925 0.01602,0.13591 0,0.0109 -0.04885,0.11937 -0.03256,0.11937 0.07058,0.0109 0.08138,-0.13563 0.10852,-0.17363 0.04886,-0.0706 0.08685,0.0868 0.03256,0.13023 -0.02171,0.0217 -0.03255,0.005 -0.04341,0.0434 v 0.0377 c -0.0054,0.0217 -0.02687,0.0274 -0.02687,0.0491 0,0.0434 0.07595,0.0269 0.108521,0.0269 0.02172,0 0.04339,-0.006 0.06511,0.005 0.02172,0.005 0.03254,0.0332 0.05426,0.0382 0.038,0.005 0.03254,-0.0489 0.05426,-0.076 0.01086,-0.0211 0.0163,-0.038 0.0217,-0.005 0.0054,0.0489 -0.0163,0.10876 -0.0217,0.14676 -0.0054,0.0217 2.32e-4,0.0543 -0.0052,0.076 -0.01085,0.006 -0.02199,0.016 -0.02739,0.0269 -0.0054,0.0163 -0.0054,0.0385 0.01085,0.0548 0.02714,0.0326 0.119619,0.0215 0.135909,-0.0274 0.0054,-0.0217 -2.47e-4,-0.0436 -0.01654,-0.0599 -0.01629,-0.0217 -0.0434,-0.0108 -0.05426,-0.0434 -0.0055,-0.0109 0.0057,-0.0434 0.0057,-0.0543 0.01086,-0.0326 0.07053,-0.12486 0.08682,-0.0543 0.01628,0.0325 -0.01654,0.0546 -0.01654,0.0817 0,0.0162 0.0217,0.0488 0.03256,0.0651 0.01631,0.0217 0.02711,0.0217 0.02171,0.0543 -0.0054,0.0218 -0.01087,0.0377 0.01085,0.0486 0.076,0.0272 0.05424,0.0326 0.09767,0 0.02171,-0.0108 0.02195,-0.0271 0.03824,-0.0434 0.01085,-0.0217 -2.69e-4,-0.0703 0.02687,-0.0703 0.01086,0.005 0.03306,0.0594 0.05478,0.0594 -0.0054,-0.0434 0,-0.092 0,-0.13539 0,-0.076 -0.0111,-0.11991 -0.03824,-0.18501 -0.01629,-0.0325 -0.02169,-0.0651 -0.04341,-0.0977 -0.01086,-0.0163 -0.03823,-0.038 -0.04909,-0.0543 -0.01628,-0.0326 -0.0052,-0.0217 0.01654,-0.0543 0.01628,-0.0217 0.01058,-0.0431 0.02687,-0.0594 0.04343,0.0108 0.03279,0.0268 0.02739,0.0594 0,0.0217 -0.0163,0.0706 0.0217,0.0543 0.02714,-0.0108 0.03284,-0.0648 0.03824,-0.0811 0.0018,-0.006 0.0062,-0.0164 0.01137,-0.0269 0.002,0.0117 0.0048,0.023 0.01034,0.032 0.0073,-0.0135 0.0118,-0.0266 0.0155,-0.0388 l -0.0098,-0.0155 c 0.0045,-0.002 0.008,9.7e-4 0.0098,0.0145 0.01244,-0.0415 0.01539,-0.0711 0.08217,-0.0631 -0.0054,0.114 -0.02714,0.21157 0,0.32557 0.0054,0.0218 0.01601,0.0705 0.02687,0.0868 0.02172,0.0217 0.04365,0.0108 0.05994,0.0217 0.01629,0.0108 0.02712,0.0325 0.04341,0.0434 0.01086,-0.0272 8e-6,-0.10336 -0.01085,-0.12506 -0.03264,-0.0434 -0.06538,-0.0269 -0.03824,-0.092 0.02171,-0.0543 0.04933,-0.10312 0.08733,-0.13022 0.02172,-0.0109 0.08138,-0.071 0.09767,-0.076 0.05971,-0.005 -0.02194,0.076 -0.01654,0.0977 0.0054,0.0326 2.68e-4,0.0493 -0.02687,0.0543 -0.02171,0.0108 -0.02712,0.0167 -0.04341,0.0217 -0.038,0.0272 -0.02715,0.0488 0.01085,0.0868 0.02171,0.0217 0.05968,0.0543 0.08682,0.0543 0.01628,-0.076 0.02684,-0.12501 0.08113,-0.17931 0.076,-0.0271 -0.0052,0.12478 -0.01602,0.16278 -0.01086,0.0597 -0.04882,0.0436 -0.08682,0.0816 -0.03264,0.038 -0.05996,0.11938 -0.03824,0.16278 0.038,0.0923 0.141061,0.0163 0.162781,-0.0434 0.02171,-0.0597 0.04339,-0.0868 0.07596,-0.13023 0.02715,-0.0325 0.04366,-0.0546 0.0708,-0.0816 0.02172,-0.0163 0.04314,-0.0323 0.05943,-0.0486 0.02171,-0.0271 0.08165,-0.0816 0.08165,-0.1142 0,-0.0543 -0.09226,-0.1083 -0.05426,-0.1354 0.05971,-0.0434 0.08709,0.0163 0.0708,0.0543 -0.0054,0.0271 0.04856,0.0268 0.08113,0.0377 0.03258,0.0108 0.03281,0.0165 0.05994,0.0382 0.038,0.0326 0.119104,0.0432 0.146244,-0.0165 0.01628,-0.0435 -0.0056,-0.10308 -0.01085,-0.14108 0.04343,0.0219 0.05992,0.0169 0.103353,-0.005 0.01628,-0.005 0.05967,-0.0434 0.07596,-0.0217 0.01629,0.0272 -0.05454,0.0599 -0.05994,0.0708 -0.04343,0.0814 0.03278,0.1305 0.103353,0.0925 0.07057,-0.0434 0.06536,-0.0762 0.0925,-0.13591 0.02171,-0.0488 0.04314,-0.049 0.07028,-0.10335 0.01629,-0.0489 0.0868,-0.0813 0.119373,-0.13023 0.038,-0.0489 0.04339,-0.10284 0.07596,-0.14624 0.02714,-0.0543 0.09225,-0.06 0.07596,-0.12506 -0.01086,-0.0543 -0.07053,-0.0925 -0.09767,-0.14676 -0.02716,-0.0543 -0.04342,-0.11393 -0.03256,-0.17363 0.02714,-0.0923 -0.01624,-0.0976 -0.09767,-0.13023 -0.07601,-0.0326 -0.076,-0.0708 -0.01085,-0.0925 0.05971,-0.0163 0.04366,-0.0268 0.0708,-0.0811 0.04886,-0.0271 -0.01114,-0.12506 -0.01654,-0.14676 0.038,0.038 0.09767,0.0705 0.09767,0.13022 0,0.0434 -0.08114,0.0765 -0.07028,0.11989 0.01086,0.0435 0.0757,0.006 0.102836,0.0109 0.07057,0.0163 0.103337,0.10825 0.125057,0.16795 0.02177,0.076 0.02687,0.15241 0.02687,0.22841 0.0054,0.076 -0.06513,0.12991 -0.04341,0.20051 0.02171,0.0542 0.109051,0.0327 0.07648,0.10335 -0.01629,0.038 -0.09249,0.054 -0.103353,0.13539 0,0.0217 0.016,0.0491 0.0052,0.0708 -0.0054,0.0108 -0.02716,0.0108 -0.03256,0.0217 -0.0055,0.005 -0.01085,0.0325 -0.01085,0.0434 0,0.0163 -0.0056,0.0328 -0.01085,0.0491 -0.01086,0.0163 -0.0217,0.038 -0.0217,0.0543 -0.01092,0.0109 -0.01062,0.0327 -0.01602,0.0377 l -0.02739,0.076 c -0.02172,0.027 -0.03228,0.049 -0.0052,0.0816 0.01629,0.0163 0.04857,0.0163 0.05943,0.0543 0.01086,0.0163 0.01084,0.0382 0.0217,0.0491 0.02171,0.0272 0.0111,0.0217 0.03824,0 0,-0.006 -8e-6,-0.0222 0.01085,-0.0331 0.01085,-0.005 0.02716,-1.7e-4 0.03256,-0.005 0.04343,-0.0217 0.04908,-0.0542 0.08165,-0.0868 0.03258,-0.038 0.07052,-0.0437 0.10852,-0.0708 0.04343,-0.0326 0.0434,-0.0759 0.07597,-0.10852 0.03257,-0.0326 0.08136,-0.0434 0.07596,-0.10852 -0.0055,-0.038 -0.03799,-0.0705 -0.01085,-0.10852 0.038,-0.0488 0.08657,-0.0382 0.07028,-0.11421 -0.0054,-0.0217 -0.0217,-0.0323 -0.0217,-0.0594 0,-0.0217 0.01085,-0.0491 0.01085,-0.0708 0.0054,-0.0597 0.01084,-0.11934 0.03256,-0.17364 0.02172,-0.0597 0.04343,-0.10336 0,-0.14676 -0.02714,-0.0434 -0.0868,-0.0545 -0.119373,-0.0925 -0.03257,-0.038 -0.03801,-0.0922 -0.04341,-0.14107 0,-0.0326 2.84e-4,-0.11933 -0.04858,-0.13023 -0.038,-0.0108 -0.06535,0.06 -0.103352,0.0491 -0.04343,-0.0109 -0.0217,-0.0708 -0.0217,-0.10335 0.01086,-0.0923 0.02717,-0.21729 -0.04341,-0.29869 -0.04886,-0.0543 -0.114175,-0.011 -0.168465,-0.016 -0.157432,-0.0217 0.04339,-0.14103 0.08682,-0.19533 0.038,-0.0488 0.06534,-0.0923 0.125057,-0.076 0.04343,0.0163 0.07053,0.0488 0.08682,0.0868 0.03258,0.0706 0.02711,0.15189 0.06511,0.22789 0.04343,0.0814 0.135874,0.12502 0.211873,0.17932 0.07057,0.0489 0.06483,0.092 0.113689,0.15709 0.038,0.0542 0.130449,0.10875 0.190169,0.0816 0.05429,-0.0271 0.08704,-0.10339 0.146761,-0.0274 0.01628,0.0217 0.04856,0.0385 0.07028,0.0548 0.03257,0.0271 0.135895,0.0594 0.168465,0.0594 0.05972,-0.0108 0.07595,-0.0653 0.108521,-0.10335 0.04343,-0.038 0.09225,-0.0593 0.06511,-0.12454 -0.03258,-0.0543 -0.129978,-0.0543 -0.113688,-0.11938 0.01629,-0.0815 0.135625,0.016 0.184485,0.0269 0.06514,-0.038 0.01058,-0.0811 0.03772,-0.11369 0.04343,-0.0597 0.05966,0.0486 0.108521,0.0594 0.06514,0.0109 0.04908,-0.038 0.08165,-0.0651 0.04885,-0.038 0.09248,0.0383 0.114205,-0.0377 0.01085,-0.0217 -0.03256,-0.0331 -0.0217,-0.0548 0.0054,-0.0272 0.02685,-0.038 0.04857,-0.0543 0.07057,-0.0435 0.0111,-0.0811 0.02739,-0.12454 0.01958,-0.0539 0.0788,-0.0726 0.12609,-0.11162 -0.0245,0.0267 -0.04215,0.0706 -0.05581,0.0842 -0.01086,0.0217 0.01086,0.0654 0,0.0925 -0.04343,0.0814 -0.05944,0.15753 -0.02687,0.24443 0.01085,0.038 0.04856,0.0649 0.07028,0.092 0.038,0.027 0.05993,0.0547 0.0925,0.0816 0.04886,0.038 0.05968,0.0865 0.08682,0.12454 0.04886,0.0652 0.108491,0.12501 0.162781,0.17931 0.08686,0.0977 0.184731,0.18467 0.201021,0.33125 0.0054,0.0814 0.0217,0.1736 0.0217,0.2496 0.0054,0.0217 0.01082,0.15196 0.07597,0.0977 0.02714,-0.0272 -0.0271,-0.0976 -0.0217,-0.13022 0.01629,-0.0651 0.07594,-0.076 0.119372,-0.11937 0.03257,-0.0326 0.04908,-0.0705 0.08165,-0.0977 0.05429,-0.0326 0.07024,-0.0491 0.146244,-0.0491 l 0.157613,-0.0326 c 0,0.076 -0.190139,0.0651 -0.244429,0.10852 -0.05972,0.0489 -0.09788,0.18949 -0.190169,0.18449 -0.038,0.0651 0.076,0.1144 0,0.22841 -0.06515,0.0923 -0.02148,0.15184 0.04909,0.23874 0.01085,0.0163 0.02199,0.0268 0.02739,0.0377 0.02171,0.0325 0.0217,0.0871 0.03256,0.12506 0.01631,0.0325 -2.85e-4,0.0547 -0.0057,0.0816 -0.0055,0.0271 0.01109,0.0489 0.0057,0.076 0,0.0163 -0.0054,0.0326 0.01085,0.0543 0.01092,0.0326 0.02142,0.0434 0.01602,0.076 0,0.0217 -0.0052,0.0326 -0.0052,0.0543 0.01086,0.0434 0.03257,0.0865 0.01085,0.13539 0,0.0163 -0.01114,0.0165 -0.01654,0.0274 -0.0054,0.005 2.32e-4,0.0273 -0.0052,0.0382 0,0.0271 -0.0057,0.0649 0.0052,0.092 l 0.0708,0.14677 c 0.02714,0.0434 0.05941,0.076 0.09198,0.11937 0.01628,0.0272 0.01653,0.0599 0.02739,0.0925 0.01629,0.0434 0.01086,0.0973 0,0.14624 -0.0054,0.0109 -0.01114,0.0326 -0.01654,0.0543 -0.01629,0.0326 -0.03254,0.0653 -0.05426,0.0925 -0.01629,0.0217 -0.05398,0.0485 -0.04858,0.0811 -0.0054,0.0217 -2.7e-4,0.0439 0.01602,0.0548 0.01629,0.0109 0.03797,0.0163 0.05426,0.0326 0.01085,0.005 0.0217,0.0167 0.03256,0.0217 0.04343,0.0488 0.0651,0.10825 0.08682,0.16795 0.02172,0.0651 0.01625,0.12497 0.01085,0.19017 0,0.0869 -0.01088,0.179 0.04341,0.2496 0.01086,0.0108 0.02712,0.0325 0.04341,0.0434 0.0163,0.0108 0.02764,0.0271 0.04393,0.0434 0.02172,0.0217 0.03771,0.0382 0.05943,0.0599 0.02171,0.0217 0.04365,0.0377 0.05994,0.0594 0.02714,0.0326 0.04856,0.0599 0.07028,0.0925 0.01628,0.0434 0.04366,0.0814 0.0708,0.11937 0.03257,0.0434 0.01627,0.0979 0.03256,0.14676 0.01629,0.0326 0.07053,0.016 0.08682,0.0486 0.01092,0.0217 0.01062,0.0434 0.01602,0.0651 0.01085,0.0272 0.05424,0.0545 0.07596,0.0708 0.01086,0.0109 0.04366,0.0488 0.05994,0.0109 0,-0.0108 -0.0052,-0.0219 -0.01602,-0.0382 -0.0055,-0.0163 -0.006,-0.0326 -0.01137,-0.0543 -0.01085,-0.038 -0.0052,-0.0814 -0.02687,-0.11937 -0.02172,-0.0326 -0.03822,-0.0651 -0.05994,-0.0977 -0.01629,-0.0271 -0.03772,-0.0377 -0.04858,-0.0811 0,-0.0217 -0.0056,-0.0494 -0.01085,-0.0765 0,-0.0163 -0.0163,-0.032 -0.0217,-0.0429 -0.02171,-0.0434 -0.01627,-0.0925 -0.03256,-0.13591 0,-0.0108 -0.01653,-0.0326 -0.02739,-0.0434 -0.01629,-0.0326 -0.04314,-0.0599 -0.05943,-0.0925 -0.02172,-0.0434 -0.04884,-0.0976 -0.0217,-0.15192 0.02172,-0.038 0.07053,-0.0599 0.09767,-0.0925 0.02715,-0.038 -0.01652,-0.0763 -0.03824,-0.10336 -0.04343,-0.038 -0.02714,-0.0925 0,-0.13591 0.02172,-0.0434 0.06536,-0.0277 0.0925,-0.0548 0.02177,-0.0326 0.0052,-0.0648 0.02687,-0.092 0.01628,-0.0271 0.03796,-0.0491 0.07596,-0.0491 0.02172,0 0.04882,0.0159 0.06511,0.0108 0.02174,-0.0109 0.01654,-0.054 0.01654,-0.0703 0,-0.0489 0.0165,-0.0758 0.08165,-0.0708 0.06518,0.0109 0.05942,0.0762 0.07028,0.1142 0.02171,0.0434 0.04339,0.0922 0.08682,0.13022 0.04886,0.0436 0.09764,-0.01 0.151929,-0.005 0.02171,0 0.05967,1e-5 0.07596,0.0217 0.01628,0.0163 0.03284,0.0431 0.03824,0.0594 0.02179,0.0652 -0.01061,0.14103 0.02739,0.19533 0.01629,0.0217 0.04856,0.0486 0.08113,0.0377 0.02171,0 0.02738,-0.016 0.03824,-0.0377 0.01086,-0.0276 0.02169,-0.0216 0.04341,-0.0325 0.02714,0 0.03801,-0.011 0.04341,-0.0326 0.01086,-0.0434 -0.0814,-0.19021 -0.05426,-0.15761 0.0054,0.005 -0.03256,-0.0705 -0.03256,-0.13023 0.0054,-0.076 -0.01652,-0.15729 -0.03824,-0.22789 -0.02171,-0.0869 -8e-6,-0.17407 0.01085,-0.26097 0,-0.0597 -0.02714,-0.11364 -0.01085,-0.16794 0.0163,-0.0651 0.0217,-0.13559 0.0217,-0.20619 -0.0054,-0.038 -0.02142,-0.0925 -0.01602,-0.13591 0.0054,-0.0217 0.01601,-0.0377 0.02687,-0.0594 0.03258,-0.0597 0.04368,-0.14621 0.01654,-0.20051 -0.01629,-0.0271 -0.04882,-0.0439 -0.06511,-0.0765 -0.01629,-0.0325 -0.02738,-0.0708 -0.04909,-0.10335 -0.02714,-0.0489 -0.01087,-0.0976 0.01085,-0.15193 0.02171,-0.0435 0.04881,-0.0816 0.04341,-0.12505 -0.0054,-0.0869 -0.03255,-0.16303 -0.05426,-0.24443 -0.0054,-0.0217 -0.0163,-0.0429 -0.0217,-0.0646 -0.01631,-0.0489 -0.02171,-0.10336 -0.02171,-0.14676 -0.0108,-0.0543 -0.01108,-0.098 -0.0057,-0.14676 0,-0.0435 2.32e-4,-0.0756 -0.0052,-0.12454 -0.01086,-0.038 -0.03801,-0.0817 -0.04341,-0.12506 -0.0054,-0.0489 -1.6e-5,-0.0977 0.0217,-0.14108 0.01085,-0.038 0.02199,-0.0762 0.02739,-0.1142 0,-0.0271 0.0054,-0.0651 0,-0.0977 0,-0.0163 -0.01084,-0.0326 -0.0217,-0.0434 -0.01629,-0.0276 -0.02764,-0.0275 -0.05478,-0.0326 -0.01629,0 -0.03255,-0.005 -0.04341,-0.016 -0.05428,-0.0163 -0.07028,-0.0653 -0.07028,-0.11421 0,-0.0489 -8e-6,-0.10853 0.01085,-0.15193 0.0054,-0.0163 0.0163,-0.0217 0.0217,-0.0326 0.01629,-0.0163 0.02172,-0.0387 0,-0.0496 -0.038,-0.006 -0.08707,0.0488 -0.114205,0.005 -0.01086,-0.0217 -0.0056,-0.0437 -0.01085,-0.0599 -0.0054,-0.0326 -0.02169,-0.0601 -0.05426,-0.0651 -0.02714,-0.0109 -0.03227,-0.022 -0.02687,-0.0491 0,-0.0163 0.0217,-0.0431 0.03256,-0.0594 0.02172,-0.0272 0.02143,-0.0599 0.0052,-0.0925 -0.01085,-0.0163 -0.03796,-0.038 -0.03256,-0.0543 0.0054,-0.0163 0.03824,-0.0377 0.03824,-0.0594 -0.0054,-0.0434 -0.07056,-0.0653 -0.07596,-0.11421 0,-0.0271 0.01085,-0.0489 0.01085,-0.076 0,-0.038 -0.01108,-0.0762 -0.0057,-0.11421 0.01086,-0.0271 0.03254,-0.054 0.05426,-0.0811 0.01628,-0.0109 0.02739,-0.0274 0.02739,-0.0491 -0.0054,-0.038 -0.0217,-0.0651 -0.0217,-0.0977 -0.0054,-0.0271 0.0054,-0.0539 0,-0.0811 0,-0.0163 -0.01108,-0.0274 -0.0057,-0.0491 0,-0.0326 -0.0052,-0.0597 -0.01602,-0.0977 -0.0054,-0.0271 -0.02199,-0.0383 -0.02739,-0.0599 -0.01086,-0.038 -0.01084,-0.0702 -0.0217,-0.10283 -0.01086,-0.0326 -0.02169,-0.0597 -0.04341,-0.0868 -0.01628,-0.0217 -0.03232,-0.0327 -0.03772,-0.0599 0,-0.038 0.04342,-0.0651 0.0217,-0.0977 -0.01086,-0.0275 -0.03822,-0.0276 -0.05994,-0.0326 -0.07057,-0.0326 0.01625,-0.11938 0.01085,-0.16278 0,-0.0218 -0.01601,-0.0434 -0.02687,-0.0651 -0.0055,-0.0272 0.01087,-0.0545 -0.01085,-0.0708 -0.02171,-0.0163 -0.03255,0.005 -0.04341,0.0217 -0.02172,0.0272 -0.0271,0.0273 -0.0217,0.0599 0.0054,0.0163 0.0054,0.0377 0,0.0594 -0.0054,0.0223 -0.02195,0.0169 -0.03824,-0.005 -0.02714,-0.038 -0.02735,-0.0922 -0.0925,-0.10852 -0.04343,-0.005 -0.09739,2.3e-4 -0.135392,0.0165 -0.03257,0.0108 -0.04908,0.0431 -0.0708,0.0594 -0.02171,0.0326 -0.0377,0.0658 -0.08113,0.0708 -0.03801,0.005 -0.0819,-0.005 -0.109037,-0.0331 -0.02172,-0.0271 -0.0056,-0.0651 -0.01085,-0.0977 0,-0.0217 -0.01601,-0.0493 -0.03772,-0.0543 -0.04886,-0.0162 -0.07056,0.0488 -0.07596,0.0868 -0.0054,0.0489 -0.0057,0.10872 0.02687,0.15762 0.01094,0.0271 0.01114,0.0325 0.01654,0.0651 0.0054,0.0217 0.02716,0.0326 0.03256,0.0543 0.0054,0.0272 -0.01625,0.0597 -0.01085,0.0868 0,0.0435 0.02172,0.0919 0,0.12454 l -0.01654,0.0217 c -0.02172,0.0434 -0.0651,0.0331 -0.09767,0.0548 -0.04343,0.0271 -0.0811,0.0919 -0.135392,0.10283 -0.02172,0.006 -0.07053,0.006 -0.09767,-0.005 -0.02172,-0.005 -0.0328,-0.0372 -0.05994,-0.0372 -0.02174,-0.005 -0.01654,0.0163 -0.01654,0.0326 0,0.0271 0.01087,0.0597 -0.01085,0.076 -0.02172,0.0163 -0.04339,0.0276 -0.06511,0.0326 -0.02171,0.005 -0.0597,1.9e-4 -0.03256,0.0274 0.01086,0.0217 0.0328,0.0217 0.04909,0.0326 0.01085,0.005 0.02147,0.016 0.02687,0.0269 0.02171,0.0271 -0.0052,0.0868 -0.0052,0.11937 0,0.0326 2.46e-4,0.0764 0.01654,0.10904 0.01629,0.0163 0.03229,0.0323 0.04858,0.0486 0.038,0.0325 0.07625,0.0651 0.08165,0.11938 0,0.0272 -2.47e-4,0.0491 -0.01654,0.0708 -0.01085,0.0217 -0.02716,0.0272 -0.03256,0.0543 -0.0054,0.0217 -0.01627,0.038 -0.03256,0.0543 -0.04886,0.0652 -0.103315,0.11416 -0.168465,0.14676 -0.02715,0.005 -0.07027,0.0217 -0.102836,0.0217 -0.02171,0 -0.06511,-0.0115 -0.07597,0.005 -0.0108,0.0109 -2.84e-4,0.0216 -0.0057,0.0325 0,0.0108 -0.0056,0.0167 -0.01085,0.0217 -0.0054,0.0218 1.6e-5,0.0277 -0.0217,0.0114 -0.02172,-0.0109 -0.02712,-0.0541 -0.05426,-0.0491 -0.01629,0.006 -0.04886,0.0382 -0.05426,0.0491 -0.02171,0.0163 -0.04314,0.0593 -0.07028,0.0543 -0.04343,0 -0.02739,-0.0601 -0.02739,-0.0873 0,-0.0217 0.0052,-0.0434 0.0052,-0.0651 0,-0.038 0.0057,-0.0759 -0.0052,-0.10852 -0.0054,-0.0108 -0.01084,-0.0161 -0.0217,-0.0269 -0.01086,-0.0163 0.016,-0.0326 0.0052,-0.0543 -0.02171,-0.0489 -0.108534,-0.10877 -0.07596,-0.16847 0.01086,-0.0163 0.03801,-0.038 0.04341,-0.0543 0.0054,-0.0217 -0.03254,-0.0214 -0.05426,-0.0377 -0.02715,-0.0217 -0.04314,-0.0543 -0.05943,-0.076 -0.02714,-0.0272 -0.05424,-0.0547 -0.07596,-0.0873 -0.01086,-0.0163 -0.02169,-0.0868 -0.05426,-0.0868 -0.04886,0.0109 -0.04909,0.10331 -0.04909,0.13591 0,0.038 2.32e-4,0.076 -0.0052,0.11938 -0.0054,0.0163 0.0052,0.0594 0.01602,0.0811 0.01086,0.0217 0.03254,0.0271 0.05426,0.0434 0.0054,0.0109 0.0163,0.0222 0.0217,0.0331 0.0054,0.0163 0.01108,0.0323 0.0057,0.0486 -0.0054,0.0489 -0.03796,0.0871 -0.08682,0.0708 -0.02172,-0.0108 -0.04366,-0.011 -0.05995,-0.0382 -0.02716,-0.038 -0.02716,-0.0973 -0.03256,-0.14624 0,-0.038 8e-6,-0.0656 -0.01085,-0.10904 -0.01086,-0.0923 0.02148,-0.16815 -0.04909,-0.23875 -0.02171,-0.0162 -0.0217,-0.0488 -0.03256,-0.0651 -0.0054,-0.011 -0.0052,-0.0163 -0.0052,-0.0326 -0.01086,-0.0434 0.01653,-0.0325 0.02739,-0.0651 0.0054,-0.0163 -0.01084,-0.0268 -0.0217,-0.0377 -0.01632,-0.0109 -0.02222,-0.0109 -0.02222,-0.0326 -0.0054,-0.0217 0.0057,-0.0488 -0.0052,-0.0651 -0.01085,-0.0163 -0.02716,-0.0219 -0.03256,-0.0382 -0.01629,-0.038 -0.03796,-0.0653 -0.06511,-0.0925 -0.02715,-0.0326 -0.05449,-0.0543 -0.04909,-0.0977 0,-0.0271 0.0057,-0.0539 0.0057,-0.0811 0,-0.0326 -2.48e-4,-0.0382 -0.02739,-0.0491 -0.02715,-0.0108 -0.04339,-0.016 -0.06511,-0.0269 -0.02714,-0.0162 -0.04318,-0.0379 -0.04858,-0.0651 -0.0054,-0.0435 0.03228,-0.0658 0.07028,-0.0708 0.04886,-0.0163 0.07597,-0.0488 0.06511,-0.0977 -0.01086,-0.0271 -0.02712,-0.0434 -0.04341,-0.0651 -0.0054,-0.0162 -0.01625,-0.0434 -0.01085,-0.0651 0.01629,-0.0543 0.05424,-0.0271 0.09767,-0.0434 0.03258,-0.0163 0.01114,-0.0597 0.01654,-0.0868 0.0054,-0.0272 0.03256,-0.0437 0.03256,-0.0708 0.0054,-0.038 -0.01627,-0.0648 -0.03256,-0.092 -0.01629,-0.0217 -0.03283,-0.038 -0.01654,-0.0651 0.0054,-0.038 0.0328,-0.0543 0.0708,-0.0543 0.03257,-0.005 0.05942,0.0109 0.07028,-0.0217 0.01628,-0.0272 0.01112,-0.0437 -0.01602,-0.0708 -0.01628,-0.0218 0.0054,-0.0486 0.0217,-0.0703 0.02171,-0.0281 0.03796,-0.0381 0.07596,-0.0331 0.02172,0 0.04339,0.0326 0.06511,0.0217 0.01629,-0.0108 0.0328,-0.0431 0.04909,-0.0594 0.01086,-0.0163 0.04881,-0.0272 0.04341,-0.0543 -0.01086,-0.0217 -0.03255,-0.0328 -0.04341,-0.06 -0.0054,-0.005 -0.02195,-0.0485 -0.0057,-0.0811 0.02172,-0.0319 0.08138,-0.0163 0.10852,-0.005 0.02714,0.005 0.05425,0.005 0.07597,0.0217 0.01629,0.005 0.03822,0.0224 0.05994,0.0274 0.02714,0.005 0.0651,-0.005 0.08682,0 0.04343,0.005 0.07051,0.0217 0.119372,0.0217 0.01086,-0.005 0.02738,-0.0115 0.03824,-0.0165 0.06514,-0.0489 0.07027,-0.13587 0.08113,-0.21187 0.0054,-0.0272 2.48e-4,-0.0594 0.02739,-0.0703 0.04343,-0.0163 0.06488,0.0325 0.07028,0.0651 0.01086,0.0272 0.02169,0.0705 0.05426,0.0868 0.02715,0.0109 0.05994,0.005 0.0708,-0.0217 0.01628,-0.0597 -0.04342,-0.13018 -0.01085,-0.18448 0.02714,-0.0434 0.0651,-0.0326 0.08682,-0.005 0.01629,0.0217 0.01108,0.0644 0.05994,0.0594 0.01629,-0.005 0.03255,-0.0106 0.04341,-0.0269 0.02172,-0.0217 0.02143,-0.0377 0.05943,-0.0377 0.04343,-0.005 0.05967,0.0109 0.07596,0.0543 0.0054,0.0217 0.0054,0.0486 0,0.0703 -0.01092,0.005 -0.01602,0.0108 -0.01602,0.0217 0,0.0109 0.01627,0.0496 0.03256,0.0496 0.04343,0.005 0.06484,-0.0931 0.08113,-0.12558 0.02714,-0.0706 -0.0052,-0.14104 -0.0052,-0.21704 0,-0.038 -3e-5,-0.0708 0.05426,-0.0708 0.02714,0.006 0.05424,0.0114 0.07596,0.0114 0.02714,0.0108 0.0597,0.0166 0.04341,-0.016 -0.01629,-0.0163 -0.08683,-0.0872 -0.05426,-0.12506 0.02171,-0.0162 0.07053,0.006 0.08682,0.0109 0.01086,0.005 0.07053,0.0276 0.08682,0.0326 0.05972,0.0163 0.135879,0.0217 0.190169,0 0.076,-0.0326 0.05428,-0.1245 0.03256,-0.1788 -0.01086,-0.038 -0.06543,-0.14745 0.0052,-0.15245 0.02172,0 0.05425,0.0274 0.06511,0.0491 0.01629,0.0217 0.0328,0.0545 0.04909,0.0708 0.01628,0.0163 0.03824,0.0217 0.03824,0 0.0054,-0.0162 -0.0057,-0.0434 -0.01654,-0.0651 -0.0163,-0.0489 -0.0217,-0.10871 -0.0217,-0.15761 0,-0.0271 -2.32e-4,-0.054 0.0052,-0.0811 0.01086,-0.0436 0.02764,-0.0871 0.05478,-0.12505 0.02714,-0.0325 0.05967,-0.0654 0.07596,-0.10336 0.0054,-0.0434 0.01625,-0.0868 0.01085,-0.13022 -0.0054,-0.0326 -0.05996,-0.0922 -0.03824,-0.13023 0.0054,-0.0109 0.02716,-0.0111 0.03256,-0.0274 0.01094,-0.0271 0.01654,-0.0651 0.01654,-0.0977 0.0054,-0.0217 0.02712,-0.0536 0.05426,-0.0486 0.02715,0.005 0.04856,0.0431 0.07028,0.0594 0.02172,0.0108 0.03823,0.0271 0.04909,0.0434 0.01629,0.0163 0.03772,0.0217 0.04858,0.0326 0.01628,0.0108 0.02716,0.0167 0.03256,0.0217 0.01629,0.0108 0.04339,0.0111 0.06511,0.0274 0.03258,0.0163 0.08163,0.0106 0.114205,-0.0165 0.038,-0.038 0.05449,-0.0759 0.04909,-0.13022 -0.01086,-0.0217 8e-6,-0.0543 -0.01085,-0.076 -0.0054,-0.0163 -0.02716,-0.0434 -0.03256,-0.0543 -0.02715,-0.0162 -0.07104,0.0378 -0.09819,0.0109 -0.01628,-0.0163 -0.01627,-0.0543 -0.03256,-0.076 -0.01092,-0.0217 -0.01062,-0.0437 -0.01602,-0.06 -0.01629,-0.0325 -0.03797,-0.0594 -0.05426,-0.0811 -0.038,-0.038 -0.08679,-0.0599 -0.141077,-0.0599 -0.03257,0 -0.04882,0.0165 -0.07596,0.0274 -0.02172,0.0108 -0.03797,0.005 -0.06511,0 -0.038,-0.006 -0.05993,-0.0491 -0.0925,-0.0708 -0.01086,-0.0108 -0.02738,-0.0271 -0.03824,-0.0434 -0.0054,-0.0108 -0.0056,-0.0219 -0.01085,-0.0269 -0.01629,-0.0217 -0.03797,-0.0384 -0.05426,-0.0434 -0.03258,-0.0108 -0.07027,0.005 -0.102836,-0.0108 -0.01086,-0.005 -0.02738,-0.0163 -0.03824,-0.0326 -0.04343,-0.0434 -0.09764,-0.0815 -0.151928,-0.0599 -0.01085,0.005 -0.0217,0.0115 -0.03256,0.0165 -0.01628,0.005 -0.04366,0.005 -0.05994,0.005 -0.02714,0.005 -0.05399,1.7e-4 -0.08113,0.005 -0.05972,0.0109 -0.119597,0.005 -0.179317,0 -0.05429,-0.006 -0.140793,-0.0217 -0.189653,0.005 -0.02714,0.0163 -0.05476,0.0377 -0.08733,0.0486 -0.038,0.006 -0.0757,4.6e-4 -0.102836,0.0114 -0.03257,0.0162 -0.141309,0.0375 -0.135909,-0.0114 0,-0.0217 2.84e-4,-0.0214 0.0057,-0.0486 0,-0.0217 -0.01627,-0.0432 -0.04341,-0.0382 -0.01086,0 -0.02195,0.0163 -0.03824,0.0326 -0.01086,0.0163 -0.03254,0.0219 -0.05426,0.0382 -0.03258,0.0157 -0.07078,0.0102 -0.103353,0.005 -0.05972,0 -0.119342,5e-5 -0.173632,-0.0325 -0.06515,-0.0326 -0.141039,-0.0115 -0.206189,-0.0165 -0.04343,-0.005 -0.06536,-0.0274 -0.0925,-0.0599 -0.01086,-0.0108 -0.02143,-0.0271 -0.03772,-0.0434 -0.01629,-0.0108 -0.0328,-0.0167 -0.04909,-0.0217 -0.01085,0 -0.01601,-0.005 -0.02687,-0.005 -0.03257,-0.0108 -0.05425,0.0106 -0.08682,0.0269 -0.02715,0.0215 -0.06535,0.0328 -0.103353,0.0165 -0.09772,-0.0542 -0.249553,-0.054 -0.336413,0.0274 -0.09229,0.0814 -0.320613,0.092 -0.402043,-0.0165 -0.01085,-0.0217 -0.04339,-0.0435 -0.07596,-0.0326 -0.038,0.005 -0.03254,0.0377 -0.05426,0.0594 -0.03258,0.038 -0.08655,0.0114 -0.113689,-0.0212 -0.02171,-0.0167 -0.04882,-0.0217 -0.07596,-0.0217 -0.02714,0.005 -0.04908,0.011 -0.08165,0.016 -0.038,0.005 -0.07077,0 -0.114205,0 -0.02715,-0.005 -0.0651,-0.005 -0.09767,0 -0.02714,0.005 -0.04313,0.0115 -0.08113,0.0165 -0.04886,0.006 -0.08162,-0.0102 -0.135909,-0.005 -0.03257,0.011 -0.0868,0.0114 -0.119373,-0.005 -0.02714,-0.0163 -0.04339,-0.0382 -0.07596,-0.0491 -0.04343,-0.0163 -0.07594,-0.0434 -0.119373,-0.0543 -0.04343,-0.0108 -0.09248,-0.0165 -0.135909,-0.0274 -0.03258,-0.0108 -0.07595,-0.0167 -0.10852,-0.0217 -0.038,-0.005 -0.08163,-0.005 -0.114205,-0.0269 -0.01086,-0.0163 -0.03229,-0.0274 -0.04858,-0.0382 -0.01085,-0.0163 -0.01653,-0.0325 -0.02739,-0.0434 -0.01629,-0.0163 -0.04856,-0.0211 -0.07028,-0.032 -0.05429,-0.0271 -0.103069,-0.0431 -0.151929,-0.0594 -0.038,-0.0108 -0.07078,-0.0325 -0.103353,-0.0434 -0.03257,-0.0162 -0.04856,-4e-5 -0.08113,0.0109 -0.01629,0.005 -0.0328,0.0108 -0.04909,0.0217 -0.0054,0.0108 -0.02738,0.0269 -0.03824,0.0269 -0.02714,-0.005 0.01114,-0.0762 0.01654,-0.0925 0.01628,-0.038 -0.01654,-0.092 -0.01654,-0.13539 0.0055,-0.0162 -8e-6,-0.0325 0.01085,-0.0434 0.01629,-0.0162 0.03255,-0.0271 0.04341,-0.0434 0.01628,-0.0109 0.02767,-0.0326 0.03307,-0.0543 0.01628,-0.0488 0.02716,-0.0922 0.03256,-0.14108 0.01086,-0.0814 0.0054,-0.16302 0,-0.24442 -0.0054,-0.0326 -0.0059,-0.0654 -0.02222,-0.0925 -0.0054,-0.0163 -0.01084,-0.0327 -0.03256,-0.0377 -0.02171,-0.0163 -0.04881,-0.0382 -0.04341,-0.0708 0,-0.0326 0.02195,-0.0651 0.03824,-0.0977 0.01629,-0.0326 0.016,-0.0545 0.0052,-0.0925 -0.0054,-0.0326 -0.03232,-0.0651 -0.03772,-0.0977 -0.01085,-0.0272 0.0052,-0.0597 0.01602,-0.0868 0.01629,-0.0326 0.03255,-0.0651 0.04341,-0.0977 0.01086,-0.038 -0.02715,-0.0651 0.01085,-0.0977 0.02715,-0.0217 0.04393,-0.0385 0.04393,-0.0765 0,-0.0271 -0.03306,-0.0488 -0.05478,-0.0651 -0.03257,-0.038 -0.05967,0 -0.09767,0 -0.01085,0 -0.02147,0.0109 -0.02687,0 -0.0054,-0.0109 -0.01108,-0.0441 -0.0057,-0.0491 0.01629,-0.0488 0.05427,-0.0811 0.04341,-0.1354 0,-0.038 -0.02147,-0.0762 -0.02687,-0.1142 -0.0054,-0.0163 -0.01627,-0.0434 -0.03256,-0.0543 -0.02172,-0.0163 -0.03797,-0.0269 -0.05426,-0.0486 -0.01628,-0.0217 -0.03255,-0.0382 -0.04341,-0.0599 -0.02172,-0.0163 -0.02737,-0.0382 -0.04909,-0.0491 -0.01085,-0.0109 -0.01601,-0.005 -0.02687,0 -0.01629,0.005 -0.03255,0.005 -0.04341,0.005 -0.04343,0.0109 -0.01653,0.0599 -0.02739,0.0925 0,0.0217 -0.03254,0.0167 -0.05426,0.0217 -0.02172,0.0109 -0.03797,0.0217 -0.05426,0.0326 -0.076,0.076 0.103085,0.10824 0.130225,0.14624 0.02714,0.0434 2.9e-5,0.0975 -0.05426,0.0925 -0.038,-0.005 -0.130232,-0.0215 -0.119372,0.0491 0.0054,0.0163 0.0217,0.0269 0.0217,0.0486 0.0054,0.0217 -0.0057,0.0436 -0.01654,0.0599 -0.02172,0.0543 -0.04339,-0.005 -0.06511,-0.0217 -0.02172,-0.0159 -0.07569,-0.0272 -0.09198,-0.0109 -0.02715,0.0271 -0.01651,0.0377 -0.05994,0.0377 -0.04343,-0.005 -0.02712,-0.0594 -0.05426,-0.0811 -0.02171,-0.0215 -0.05399,-0.0165 -0.08113,-0.0165 -0.04343,0 -0.09249,0.006 -0.125057,-0.005 -0.038,-0.005 -0.05993,-0.0214 -0.0925,-0.0377 -0.02172,-0.0109 -0.0323,-0.0326 -0.04857,-0.0543 -0.01086,-0.0163 -0.02738,-0.0217 -0.03824,-0.0326 -0.02172,-0.0271 -0.03254,-0.0548 -0.05426,-0.0765 -0.01629,-0.0109 -0.02686,-0.0275 -0.04858,-0.0325 -0.03257,-0.005 -0.07053,-0.006 -0.09767,-0.0165 -0.03258,-0.0108 -0.03281,-0.0372 -0.05994,-0.0589 -0.03258,-0.038 0.0057,-0.0982 0.0057,-0.14159 0,-0.0163 0.0052,-0.0426 -0.0057,-0.0589 -0.0054,-0.0217 -0.02712,-0.0222 -0.04341,-0.0331 -0.03258,-0.0109 -0.0814,-0.0542 -0.05426,-0.0868 0.02171,-0.0272 0.0597,-0.0328 0.03256,-0.0708 -0.03257,-0.0326 -0.04885,-0.0543 -0.03256,-0.0977 0.038,-0.1086 -0.0056,-0.081 -0.103352,-0.076 -0.04886,0 -0.09197,-0.0219 -0.124541,-0.0708 -0.038,-0.0434 -0.03253,-0.0703 -0.07596,-0.016 -0.09772,0.10315 -0.01633,0.15166 0.07596,0.21136 0.04886,0.0272 0.211649,0.11439 0.151929,0.16329 -0.076,0.0597 -0.189885,-0.10334 -0.238745,-0.0599 -0.01628,0.0542 0.08115,0.0705 0.05943,0.11937 -0.02171,0.0379 -0.09223,0.0217 -0.119373,0.005 -0.02714,-0.0217 -0.02685,-0.1251 -0.07028,-0.0708 -0.01086,0.0217 -0.06018,0.10335 -0.109037,0.0816 -0.02715,-0.0543 -0.05423,-0.098 -0.10852,-0.12506 -0.02171,-0.0108 -0.02169,0 -0.04341,-0.0217 -0.01628,-0.0109 -0.03256,-0.0323 -0.03256,-0.0486 -0.01086,-0.10856 -0.227915,-0.24466 -0.184485,-0.26096 0.02172,-0.005 0.04897,-0.11942 -0.206189,-0.10852 -0.03801,0 -0.04882,-0.0488 -0.06511,-0.076 -0.02715,-0.0543 -0.03795,-0.0654 -0.09767,-0.0925 -0.05429,-0.0326 -0.08682,-0.054 -0.08682,-0.11368 0,-0.038 0.02148,-0.0922 -0.0057,-0.13023 -0.0112,-0.0157 -0.02312,-0.0223 -0.03566,-0.0227 z m 6.055961,9.75444 c -0.0054,0.0217 0.0056,0.0489 -0.0052,0.0651 -0.0054,0.0163 -0.03284,0.0271 -0.03824,0.0434 l -0.01602,-0.005 c -0.02172,0.0272 -0.0271,0.0382 -0.0217,0.0708 0.0054,0.038 1.6e-5,0.0377 -0.0217,0.0703 -0.01086,0.0271 -0.0054,0.0547 0.0217,0.0816 0.03257,0.0217 0.08682,0.0108 0.08682,0.0651 v 0.0434 c 0.01086,0.0163 0.02147,0.0274 0.02687,0.0491 0.0054,0.0163 2.49e-4,0.10267 0.02739,0.0977 0.01629,0 0.01602,-0.0219 0.01602,-0.0382 0.01629,-0.0272 0.04339,-0.021 0.07596,-0.016 0.02715,0.005 0.03307,0.0104 0.04393,-0.0114 0.0109,-0.0217 0.01057,-0.0543 0.0052,-0.076 -0.0054,-0.0163 -0.01654,-0.0326 -0.01654,-0.0543 0,-0.0109 0.01085,-0.0268 0.01085,-0.0486 0,-0.0489 -0.02685,-0.0868 -0.07028,-0.10852 -0.05972,-0.0217 -0.05425,-0.0871 -0.07596,-0.13591 -0.0054,-0.0326 -0.02195,-0.0762 -0.04909,-0.0925 z m -0.797884,0.26975 c -0.05694,0.008 -0.08797,0.0987 -0.0925,0.14831 -0.0108,0.076 2.33e-4,0.14673 -0.0052,0.22273 v 0.0377 c -0.0054,0.0325 -0.0056,0.0708 -0.01085,0.10335 -0.01086,0.0435 -0.02737,0.0759 -0.04909,0.10852 -0.01628,0.038 -0.05399,0.0654 -0.07028,0.10336 -0.01625,0.0271 -0.01085,0.0811 -0.01085,0.11369 -0.0054,0.0163 -0.0054,0.0328 0,0.0491 0.02715,0.005 0.03772,-2.4e-4 0.05943,-0.0165 0.02714,-0.0217 0.0651,-0.0651 0.09767,-0.076 0.02172,-0.005 0.03822,-0.005 0.05994,-0.0217 0.01086,-0.0163 0.0328,-0.0326 0.04909,-0.0543 0.05429,-0.0543 0.08138,-0.13019 0.09767,-0.20619 0.0054,-0.076 0.02689,-0.15752 -0.01654,-0.22272 -0.02172,-0.0325 -0.05426,-0.0648 -0.05426,-0.10284 -0.0054,-0.0271 2.33e-4,-0.0601 -0.0052,-0.0816 0,-0.0326 -0.01625,-0.0651 -0.01085,-0.0977 -0.01272,-0.006 -0.02479,-0.008 -0.03566,-0.007 -9.17e-4,8e-5 -0.0017,-1.2e-4 -0.0026,0 z" /></g></g><style
     id="style143"
     type="text/css">
	.st0{fill:#04984A;}
	.st1{fill:#F5F6F6;}
	.st2{fill:none;stroke:#04984A;stroke-width:0.13;}
	.st3{fill:#EC2227;}
	.st4{fill:none;stroke:#EC2227;stroke-width:0.13;}
	.st5{fill:#FCEE23;}
</style><style
     type="text/css"
     id="style364">	.st0{fill-rule:evenodd;clip-rule:evenodd;fill:#ED1C24;}	.st1{fill:#00A750;}	.st2{fill-rule:evenodd;clip-rule:evenodd;fill:#00A750;}	.st3{fill-rule:evenodd;clip-rule:evenodd;fill:#FFDD00;}	.st4{fill:#ED1C24;}	.st5{fill:#FFFFFF;}	.st6{fill-rule:evenodd;clip-rule:evenodd;fill:#0968B1;}	.st7{fill-rule:evenodd;clip-rule:evenodd;fill:#FFFFFF;}	.st8{fill-rule:evenodd;clip-rule:evenodd;fill:#0061AF;}	.st9{clip-path:url(#SVGID_00000145753773101622770710000009675174367737781652_);}	.st10{fill:#038442;}	.st11{fill:#AC2126;}	.st12{fill:#00AF4C;}	.st13{fill:#E42B2C;}	.st14{fill:#F0EFEF;}	.st15{fill:#CCCCCB;}	.st16{fill:#F2F1F1;}</style><style
     id="style143-6"
     type="text/css">
	.st0{fill:#04984A;}
	.st1{fill:#F5F6F6;}
	.st2{fill:none;stroke:#04984A;stroke-width:0.13;}
	.st3{fill:#EC2227;}
	.st4{fill:none;stroke:#EC2227;stroke-width:0.13;}
	.st5{fill:#FCEE23;}
</style><metadata
     id="metadata8349"><rdf:RDF><cc:Work
         rdf:about=""><dc:title>Information and Communication Technology Division - তথ্য ও যোগাযোগ প্রযুক্তি বিভাগ</dc:title></cc:Work></rdf:RDF></metadata></svg>
